SplineFontDB: 3.0
FontName: Metlo-Italic
FullName: Metlo Italic
FamilyName: Metlo
Weight: Book
Copyright: Copyright (c) 2009 Apple Inc. Copyright (c)  2006 by Tavmjong Bah. Copyright (c) 2003 by Bitstream, Inc. All Rights Reserved.
Version: 1.210
ItalicAngle: -11
UnderlinePosition: -355
UnderlineWidth: 90
Ascent: 1556
Descent: 492
InvalidEm: 0
sfntRevision: 0x0002072b
LayerCount: 2
Layer: 0 1 "Back" 1
Layer: 1 1 "Fore" 0
XUID: [1021 416 -386511576 10545968]
StyleMap: 0x0001
FSType: 0
OS2Version: 3
OS2_WeightWidthSlopeOnly: 0
OS2_UseTypoMetrics: 0
CreationTime: 1229875377
ModificationTime: 1573494891
PfmFamily: 17
TTFWeight: 400
TTFWidth: 5
LineGap: 0
VLineGap: 0
Panose: 2 11 6 9 3 3 4 11 2 4
OS2TypoAscent: 1556
OS2TypoAOffset: 0
OS2TypoDescent: -492
OS2TypoDOffset: 0
OS2TypoLinegap: 610
OS2WinAscent: 2001
OS2WinAOffset: 0
OS2WinDescent: 583
OS2WinDOffset: 0
HheadAscent: 2001
HheadAOffset: 0
HheadDescent: -583
HheadDOffset: 0
OS2SubXSize: 1331
OS2SubYSize: 1433
OS2SubXOff: 54
OS2SubYOff: 286
OS2SupXSize: 1331
OS2SupYSize: 1433
OS2SupXOff: -187
OS2SupYOff: 983
OS2StrikeYSize: 102
OS2StrikeYPos: 530
OS2CapHeight: 1493
OS2XHeight: 1120
OS2Vendor: 'PfEd'
OS2CodePages: 6000019f.dfd70000
OS2UnicodeRanges: e60002ff.500079fb.00000020.00000000
MarkAttachClasses: 1
DEI: 91125
TtTable: prep
MPPEM
PUSHW_1
 200
GT
IF
PUSHB_2
 1
 1
INSTCTRL
EIF
PUSHW_2
 2048
 2048
MUL
DUP
PUSHB_1
 1
SWAP
WCVTP
DUP
PUSHB_1
 3
SWAP
WCVTF
PUSHB_1
 23
RCVT
DUP
DUP
MPPEM
PUSHW_1
 14
LTEQ
MPPEM
PUSHB_1
 6
GTEQ
AND
IF
PUSHB_1
 52
ELSE
PUSHB_1
 40
EIF
ADD
FLOOR
DUP
ROLL
NEQ
IF
PUSHB_1
 2
CINDEX
SUB
PUSHB_1
 1
RCVT
MUL
SWAP
DIV
PUSHB_1
 2
SWAP
WCVTP
PUSHB_4
 11
 11
 5
 4
CALL
PUSHB_4
 12
 17
 5
 4
CALL
PUSHB_4
 20
 25
 5
 4
CALL
EIF
PUSHB_3
 4
 40
 9
RCVT
GT
WCVTP
PUSHB_4
 12
 19
 6
 4
CALL
PUSHB_2
 6
 1
WCVTP
PUSHB_2
 36
 1
GETINFO
LTEQ
IF
PUSHB_1
 64
GETINFO
IF
PUSHB_2
 6
 3
WCVTP
PUSHB_2
 38
 1
GETINFO
LTEQ
IF
PUSHW_1
 1024
GETINFO
IF
PUSHB_2
 6
 3
WCVTP
EIF
EIF
EIF
EIF
PUSHW_1
 511
SCANCTRL
PUSHB_1
 4

StartChar: .notdef
Encoding: 65536 -1 0
Width: 1233
Flags: W
LayerCount: 2
Fore
SplineSet
104 -362 m 1,0,-1
 104 1444 l 1,1,-1
 1128 1444 l 1,2,-1
 1128 -362 l 1,3,-1
 104 -362 l 1,0,-1
219 -248 m 1,4,-1
 1014 -248 l 1,5,-1
 1014 1329 l 1,6,-1
 219 1329 l 1,7,-1
 219 -248 l 1,4,-1
EndSplineSet
EndChar

StartChar: exclam
Encoding: 33 33 4
Width: 1233
GlyphClass: 2
Flags: W
LayerCount: 2
Fore
SplineSet
684 1493 m 1,0,-1
 887 1493 l 1,1,-1
 747 838 l 1,2,-1
 661 531 l 1,3,-1
 500 531 l 1,4,-1
 544 838 l 1,5,-1
 684 1493 l 1,0,-1
390 254 m 1,6,-1
 653 254 l 1,7,-1
 599 0 l 1,8,-1
 336 0 l 1,9,-1
 390 254 l 1,6,-1
EndSplineSet
EndChar

StartChar: quotedbl
Encoding: 34 34 5
Width: 1233
GlyphClass: 2
Flags: W
LayerCount: 2
Fore
SplineSet
905 1547 m 1,0,-1
 905 935 l 1,1,-1
 681 935 l 1,2,-1
 681 1547 l 1,3,-1
 905 1547 l 1,0,-1
412 1547 m 1,4,-1
 412 935 l 1,5,-1
 188 935 l 1,6,-1
 188 1547 l 1,7,-1
 412 1547 l 1,4,-1
EndSplineSet
EndChar

StartChar: numbersign
Encoding: 35 35 6
Width: 1233
GlyphClass: 2
Flags: W
LayerCount: 2
Fore
SplineSet
684 1465 m 1,0,-1
 594 1111 l 1,1,-1
 839 1111 l 1,2,-1
 930 1465 l 1,3,-1
 1090 1465 l 1,4,-1
 999 1111 l 1,5,-1
 1243 1111 l 1,6,-1
 1243 958 l 1,7,-1
 962 958 l 1,8,-1
 864 565 l 1,9,-1
 1114 565 l 1,10,-1
 1114 412 l 1,11,-1
 825 412 l 1,12,-1
 721 0 l 1,13,-1
 561 0 l 1,14,-1
 666 412 l 1,15,-1
 420 412 l 1,16,-1
 315 0 l 1,17,-1
 156 0 l 1,18,-1
 260 412 l 1,19,-1
 2 412 l 1,20,-1
 2 565 l 1,21,-1
 299 565 l 1,22,-1
 397 958 l 1,23,-1
 131 958 l 1,24,-1
 131 1111 l 1,25,-1
 434 1111 l 1,26,-1
 524 1465 l 1,27,-1
 684 1465 l 1,0,-1
802 958 m 1,28,-1
 557 958 l 1,29,-1
 459 565 l 1,30,-1
 705 565 l 1,31,-1
 802 958 l 1,28,-1
EndSplineSet
EndChar

StartChar: dollar
Encoding: 36 36 7
Width: 1233
GlyphClass: 2
Flags: W
LayerCount: 2
Fore
SplineSet
629 588 m 1,0,-1
 543 145 l 1,1,2
 672 145 672 145 751.5 217.5 c 128,-1,3
 831 290 831 290 831 406 c 0,4,5
 831 484 831 484 784 526.5 c 128,-1,6
 737 569 737 569 629 588 c 1,0,-1
563 774 m 1,7,-1
 643 1184 l 1,8,9
 524 1176 524 1176 448.5 1107.5 c 128,-1,10
 373 1039 373 1039 373 940 c 0,11,12
 373 871 373 871 415 834 c 128,-1,13
 457 797 457 797 563 774 c 1,7,-1
455 -301 m 1,14,-1
 354 -301 l 1,15,-1
 413 0 l 1,16,17
 318 3 318 3 222 26 c 128,-1,18
 126 49 126 49 31 92 c 1,19,-1
 66 272 l 1,20,21
 147 212 147 212 241.5 179 c 128,-1,22
 336 146 336 146 440 141 c 1,23,-1
 530 606 l 1,24,25
 354 641 354 641 274.5 713.5 c 128,-1,26
 195 786 195 786 195 911 c 0,27,28
 195 1084 195 1084 327.5 1199 c 128,-1,29
 460 1314 460 1314 669 1321 c 1,30,-1
 717 1556 l 1,31,-1
 817 1556 l 1,32,-1
 770 1321 l 1,33,34
 855 1315 855 1315 933 1299.5 c 128,-1,35
 1011 1284 1011 1284 1083 1260 c 1,36,-1
 1051 1087 l 1,37,38
 986 1127 986 1127 909 1150.5 c 128,-1,39
 832 1174 832 1174 743 1182 c 1,40,-1
 662 756 l 1,41,42
 836 722 836 722 925 639 c 128,-1,43
 1014 556 1014 556 1014 426 c 0,44,45
 1014 242 1014 242 877 122 c 128,-1,46
 740 2 740 2 524 2 c 2,47,-1
 514 2 l 1,48,-1
 455 -301 l 1,14,-1
EndSplineSet
EndChar

StartChar: percent
Encoding: 37 37 8
Width: 1233
GlyphClass: 2
Flags: W
LayerCount: 2
Fore
SplineSet
696 319 m 0,0,1
 696 241 696 241 748.5 188 c 128,-1,2
 801 135 801 135 879 135 c 0,3,4
 956 135 956 135 1009.5 188.5 c 128,-1,5
 1063 242 1063 242 1063 319 c 256,6,7
 1063 396 1063 396 1009 450 c 128,-1,8
 955 504 955 504 879 504 c 0,9,10
 801 504 801 504 748.5 451 c 128,-1,11
 696 398 696 398 696 319 c 0,0,1
561 319 m 0,12,13
 561 454 561 454 653 546.5 c 128,-1,14
 745 639 745 639 879 639 c 0,15,16
 943 639 943 639 1000.5 615 c 128,-1,17
 1058 591 1058 591 1104 545 c 0,18,19
 1150 498 1150 498 1175 440 c 128,-1,20
 1200 382 1200 382 1200 319 c 0,21,22
 1200 186 1200 186 1107 93 c 128,-1,23
 1014 0 1014 0 879 0 c 0,24,25
 743 0 743 0 652 91.5 c 128,-1,26
 561 183 561 183 561 319 c 0,12,13
83 440 m 1,27,-1
 39 553 l 1,28,-1
 1154 999 l 1,29,-1
 1204 886 l 1,30,-1
 83 440 l 1,27,-1
168 1112 m 0,31,32
 168 1033 168 1033 220.5 980.5 c 128,-1,33
 273 928 273 928 352 928 c 0,34,35
 429 928 429 928 483 981.5 c 128,-1,36
 537 1035 537 1035 537 1112 c 256,37,38
 537 1189 537 1189 483 1242.5 c 128,-1,39
 429 1296 429 1296 352 1296 c 256,40,41
 275 1296 275 1296 221.5 1243 c 128,-1,42
 168 1190 168 1190 168 1112 c 0,31,32
33 1112 m 256,43,44
 33 1247 33 1247 125 1339.5 c 128,-1,45
 217 1432 217 1432 352 1432 c 0,46,47
 416 1432 416 1432 474.5 1408 c 128,-1,48
 533 1384 533 1384 578 1339 c 256,49,50
 623 1294 623 1294 647.5 1235.5 c 128,-1,51
 672 1177 672 1177 672 1112 c 0,52,53
 672 978 672 978 579 885.5 c 128,-1,54
 486 793 486 793 352 793 c 0,55,56
 217 793 217 793 125 885 c 128,-1,57
 33 977 33 977 33 1112 c 256,43,44
EndSplineSet
EndChar

StartChar: ampersand
Encoding: 38 38 9
Width: 1233
GlyphClass: 2
Flags: W
LayerCount: 2
Fore
SplineSet
567 907 m 2,0,-1
 874 350 l 1,1,2
 936 416 936 416 973 518.5 c 128,-1,3
 1010 621 1010 621 1022 760 c 1,4,-1
 1190 760 l 1,5,6
 1173 592 1173 592 1112 457.5 c 128,-1,7
 1051 323 1051 323 944 221 c 1,8,-1
 1067 0 l 1,9,-1
 868 0 l 1,10,-1
 809 113 l 1,11,12
 714 42 714 42 614 6.5 c 128,-1,13
 514 -29 514 -29 410 -29 c 0,14,15
 215 -29 215 -29 97.5 78 c 128,-1,16
 -20 185 -20 185 -20 360 c 0,17,18
 -20 528 -20 528 79.5 672.5 c 128,-1,19
 179 817 179 817 367 920 c 1,20,21
 338 972 338 972 323.5 1026 c 128,-1,22
 309 1080 309 1080 309 1135 c 0,23,24
 309 1309 309 1309 432 1414.5 c 128,-1,25
 555 1520 555 1520 762 1520 c 0,26,27
 827 1520 827 1520 889 1508 c 128,-1,28
 951 1496 951 1496 1008 1473 c 1,29,-1
 973 1290 l 1,30,31
 931 1328 931 1328 870 1347 c 128,-1,32
 809 1366 809 1366 733 1366 c 0,33,34
 620 1366 620 1366 551.5 1308.5 c 128,-1,35
 483 1251 483 1251 483 1157 c 0,36,37
 483 1110 483 1110 505 1044.5 c 128,-1,38
 527 979 527 979 567 907 c 2,0,-1
432 795 m 1,39,40
 297 722 297 722 227.5 623.5 c 128,-1,41
 158 525 158 525 158 408 c 0,42,43
 158 289 158 289 244 209 c 128,-1,44
 330 129 330 129 459 129 c 0,45,46
 524 129 524 129 597 157.5 c 128,-1,47
 670 186 670 186 741 240 c 1,48,-1
 432 795 l 1,39,40
EndSplineSet
EndChar

StartChar: quotesingle
Encoding: 39 39 10
Width: 1233
GlyphClass: 2
Flags: W
LayerCount: 2
Fore
SplineSet
712 1558 m 1,0,-1
 712 935 l 1,1,-1
 488 935 l 1,2,-1
 488 1558 l 1,3,-1
 712 1558 l 1,0,-1
EndSplineSet
EndChar

StartChar: parenleft
Encoding: 40 40 11
Width: 1233
GlyphClass: 2
Flags: W
LayerCount: 2
Fore
SplineSet
1042 1556 m 1,0,1
 806 1255 806 1255 686.5 949.5 c 128,-1,2
 567 644 567 644 567 342 c 0,3,4
 567 196 567 196 596.5 45 c 128,-1,5
 626 -106 626 -106 686 -268 c 1,6,-1
 526 -268 l 1,7,8
 447 -79 447 -79 410 78 c 128,-1,9
 373 235 373 235 373 377 c 0,10,11
 373 680 373 680 502 979.5 c 128,-1,12
 631 1279 631 1279 883 1556 c 1,13,-1
 1042 1556 l 1,0,1
EndSplineSet
EndChar

StartChar: parenright
Encoding: 41 41 12
Width: 1233
GlyphClass: 2
Flags: W
LayerCount: 2
Fore
SplineSet
150 -268 m 1,0,1
 386 32 386 32 505.5 337.5 c 128,-1,2
 625 643 625 643 625 946 c 0,3,4
 625 1092 625 1092 595.5 1243 c 128,-1,5
 566 1394 566 1394 506 1556 c 1,6,-1
 666 1556 l 1,7,8
 744 1368 744 1368 781.5 1210.5 c 128,-1,9
 819 1053 819 1053 819 911 c 0,10,11
 819 608 819 608 690 308.5 c 128,-1,12
 561 9 561 9 309 -268 c 1,13,-1
 150 -268 l 1,0,1
EndSplineSet
EndChar

StartChar: asterisk
Encoding: 42 42 13
Width: 1233
GlyphClass: 2
Flags: W
LayerCount: 2
Fore
SplineSet
1179 1156 m 1,0,-1
 735 916 l 1,1,-1
 1179 675 l 1,2,-1
 1109 553 l 1,3,-1
 691 804 l 1,4,-1
 691 338 l 1,5,-1
 548 338 l 1,6,-1
 548 804 l 1,7,-1
 130 553 l 1,8,-1
 60 675 l 1,9,-1
 505 916 l 1,10,-1
 60 1156 l 1,11,-1
 130 1279 l 1,12,-1
 548 1028 l 1,13,-1
 548 1494 l 1,14,-1
 691 1494 l 1,15,-1
 691 1028 l 1,16,-1
 1109 1279 l 1,17,-1
 1179 1156 l 1,0,-1
EndSplineSet
EndChar

StartChar: plus
Encoding: 43 43 14
Width: 1233
GlyphClass: 2
Flags: W
LayerCount: 2
Fore
SplineSet
806 1158 m 1,0,-1
 720 715 l 1,1,-1
 1165 715 l 1,2,-1
 1132 546 l 1,3,-1
 687 546 l 1,4,-1
 601 103 l 1,5,-1
 433 103 l 1,6,-1
 519 546 l 1,7,-1
 75 546 l 1,8,-1
 108 715 l 1,9,-1
 552 715 l 1,10,-1
 638 1158 l 1,11,-1
 806 1158 l 1,0,-1
EndSplineSet
EndChar

StartChar: comma
Encoding: 44 44 15
Width: 1233
GlyphClass: 2
Flags: W
LayerCount: 2
Fore
SplineSet
431 361 m 1,0,-1
 743 361 l 1,1,-1
 691 96 l 1,2,-1
 385 -335 l 1,3,-1
 185 -336 l 1,4,-1
 379 96 l 1,5,-1
 431 361 l 1,0,-1
EndSplineSet
EndChar

StartChar: hyphen
Encoding: 45 45 16
Width: 1233
GlyphClass: 2
Flags: W
LayerCount: 2
Fore
SplineSet
135 724 m 1,0,-1
 1195 724 l 1,1,-1
 1159 555 l 1,2,-1
 99 555 l 1,3,-1
 135 724 l 1,0,-1
EndSplineSet
EndChar

StartChar: period
Encoding: 46 46 17
Width: 1233
GlyphClass: 2
Flags: W
LayerCount: 2
Fore
SplineSet
428 404 m 1,0,-1
 780 404 l 1,1,-1
 701 0 l 1,2,-1
 349 0 l 1,3,-1
 428 404 l 1,0,-1
EndSplineSet
EndChar

StartChar: slash
Encoding: 47 47 18
Width: 1233
GlyphClass: 2
Flags: W
LayerCount: 2
Fore
SplineSet
16 -190 m 1,0,-1
 868 1493 l 1,1,-1
 1059 1493 l 1,2,-1
 205 -190 l 1,3,-1
 16 -190 l 1,0,-1
EndSplineSet
EndChar

StartChar: zero
Encoding: 48 48 19
Width: 1233
GlyphClass: 2
Flags: W
LayerCount: 2
Fore
SplineSet
481 750 m 256,0,1
 481 805 481 805 521 845 c 128,-1,2
 561 885 561 885 616 885 c 256,3,4
 671 885 671 885 710.5 845 c 128,-1,5
 750 805 750 805 750 750 c 0,6,7
 750 694 750 694 711 655 c 128,-1,8
 672 616 672 616 616 616 c 0,9,10
 561 616 561 616 521 655.5 c 128,-1,11
 481 695 481 695 481 750 c 256,0,1
1135 1020 m 0,12,13
 1135 829 1135 829 1077.5 607.5 c 128,-1,14
 1020 386 1020 386 936 248 c 0,15,16
 852 107 852 107 740.5 39 c 128,-1,17
 629 -29 629 -29 481 -29 c 0,18,19
 286 -29 286 -29 192 94 c 128,-1,20
 98 217 98 217 98 473 c 0,21,22
 98 665 98 665 155 884.5 c 128,-1,23
 212 1104 212 1104 297 1245 c 256,24,25
 382 1386 382 1386 492.5 1453 c 128,-1,26
 603 1520 603 1520 750 1520 c 0,27,28
 945 1520 945 1520 1040 1397 c 128,-1,29
 1135 1274 1135 1274 1135 1020 c 0,12,13
506 135 m 0,30,31
 586 135 586 135 654.5 186.5 c 128,-1,32
 723 238 723 238 770 334 c 0,33,34
 839 474 839 474 885.5 680.5 c 128,-1,35
 932 887 932 887 932 1063 c 0,36,37
 932 1217 932 1217 883 1286.5 c 128,-1,38
 834 1356 834 1356 727 1356 c 0,39,40
 647 1356 647 1356 578 1305 c 128,-1,41
 509 1254 509 1254 461 1159 c 0,42,43
 391 1020 391 1020 345 811.5 c 128,-1,44
 299 603 299 603 299 414 c 0,45,46
 299 273 299 273 350.5 204 c 128,-1,47
 402 135 402 135 506 135 c 0,30,31
EndSplineSet
EndChar

StartChar: one
Encoding: 49 49 20
Width: 1233
GlyphClass: 2
Flags: W
LayerCount: 2
Fore
SplineSet
156 170 m 1,0,-1
 469 170 l 1,1,-1
 690 1311 l 1,2,-1
 338 1235 l 1,3,-1
 373 1419 l 1,4,-1
 725 1493 l 1,5,-1
 928 1493 l 1,6,-1
 670 170 l 1,7,-1
 979 170 l 1,8,-1
 946 0 l 1,9,-1
 123 0 l 1,10,-1
 156 170 l 1,0,-1
EndSplineSet
EndChar

StartChar: two
Encoding: 50 50 21
Width: 1233
GlyphClass: 2
Flags: W
LayerCount: 2
Fore
SplineSet
268 170 m 1,0,-1
 952 170 l 1,1,-1
 920 0 l 1,2,-1
 6 0 l 1,3,-1
 39 170 l 1,4,-1
 350 444 l 1,5,-1
 389 479 l 1,6,7
 926 950 926 950 926 1153 c 0,8,9
 926 1246 926 1246 862 1299 c 128,-1,10
 798 1352 798 1352 684 1352 c 0,11,12
 592 1352 592 1352 486 1318.5 c 128,-1,13
 380 1285 380 1285 254 1217 c 1,14,-1
 295 1421 l 1,15,16
 407 1470 407 1470 511.5 1495 c 128,-1,17
 616 1520 616 1520 713 1520 c 0,18,19
 898 1520 898 1520 1012 1423 c 128,-1,20
 1126 1326 1126 1326 1126 1171 c 0,21,22
 1126 1075 1126 1075 1090.5 988.5 c 128,-1,23
 1055 902 1055 902 973 799 c 0,24,25
 940 757 940 757 854 678 c 128,-1,26
 768 599 768 599 588 444 c 2,27,-1
 268 170 l 1,0,-1
EndSplineSet
EndChar

StartChar: three
Encoding: 51 51 22
Width: 1233
GlyphClass: 2
Flags: W
LayerCount: 2
Fore
SplineSet
762 799 m 1,0,1
 876 779 876 779 940 697 c 128,-1,2
 1004 615 1004 615 1004 489 c 0,3,4
 1004 255 1004 255 836.5 113 c 128,-1,5
 669 -29 669 -29 389 -29 c 0,6,7
 281 -29 281 -29 178.5 -10.5 c 128,-1,8
 76 8 76 8 -18 45 c 1,9,-1
 20 246 l 1,10,11
 111 194 111 194 206 167.5 c 128,-1,12
 301 141 301 141 399 141 c 0,13,14
 581 141 581 141 693 234.5 c 128,-1,15
 805 328 805 328 805 477 c 0,16,17
 805 594 805 594 733.5 654.5 c 128,-1,18
 662 715 662 715 524 715 c 2,19,-1
 371 715 l 1,20,-1
 403 881 l 1,21,-1
 557 881 l 2,22,23
 715 881 715 881 808 956 c 128,-1,24
 901 1031 901 1031 901 1155 c 0,25,26
 901 1255 901 1255 839.5 1302.5 c 128,-1,27
 778 1350 778 1350 649 1350 c 0,28,29
 567 1350 567 1350 470 1330 c 128,-1,30
 373 1310 373 1310 260 1270 c 1,31,-1
 297 1456 l 1,32,33
 420 1489 420 1489 517 1504.5 c 128,-1,34
 614 1520 614 1520 698 1520 c 0,35,36
 886 1520 886 1520 994 1432 c 128,-1,37
 1102 1344 1102 1344 1102 1192 c 0,38,39
 1102 1039 1102 1039 1012.5 935.5 c 128,-1,40
 923 832 923 832 762 799 c 1,0,1
EndSplineSet
EndChar

StartChar: four
Encoding: 52 52 23
Width: 1233
GlyphClass: 2
Flags: W
LayerCount: 2
Fore
SplineSet
842 1282 m 1,0,-1
 217 520 l 1,1,-1
 690 520 l 1,2,-1
 842 1282 l 1,0,-1
846 1493 m 1,3,-1
 1079 1493 l 1,4,-1
 889 520 l 1,5,-1
 1087 520 l 1,6,-1
 1057 356 l 1,7,-1
 858 356 l 1,8,-1
 788 0 l 1,9,-1
 590 0 l 1,10,-1
 659 356 l 1,11,-1
 25 356 l 1,12,-1
 61 547 l 1,13,-1
 846 1493 l 1,3,-1
EndSplineSet
EndChar

StartChar: five
Encoding: 53 53 24
Width: 1233
GlyphClass: 2
Flags: W
LayerCount: 2
Fore
SplineSet
352 1493 m 1,0,-1
 1108 1493 l 1,1,-1
 1075 1323 l 1,2,-1
 504 1323 l 1,3,-1
 432 956 l 1,4,5
 479 972 479 972 523.5 979.5 c 128,-1,6
 568 987 568 987 612 987 c 0,7,8
 800 987 800 987 915 873.5 c 128,-1,9
 1030 760 1030 760 1030 575 c 0,10,11
 1030 451 1030 451 977.5 334 c 128,-1,12
 925 217 925 217 829 131 c 0,13,14
 741 51 741 51 627.5 11 c 128,-1,15
 514 -29 514 -29 371 -29 c 0,16,17
 263 -29 263 -29 169.5 -12.5 c 128,-1,18
 76 4 76 4 4 35 c 1,19,-1
 45 240 l 1,20,21
 129 189 129 189 217 164 c 128,-1,22
 305 139 305 139 399 139 c 0,23,24
 585 139 585 139 707 256 c 128,-1,25
 829 373 829 373 829 547 c 0,26,27
 829 675 829 675 748.5 748 c 128,-1,28
 668 821 668 821 526 821 c 0,29,30
 447 821 447 821 364.5 801 c 128,-1,31
 282 781 282 781 207 743 c 1,32,-1
 352 1493 l 1,0,-1
EndSplineSet
EndChar

StartChar: six
Encoding: 54 54 25
Width: 1233
GlyphClass: 2
Flags: W
LayerCount: 2
Fore
SplineSet
860 594 m 0,0,1
 860 707 860 707 802 768 c 128,-1,2
 744 829 744 829 637 829 c 0,3,4
 491 829 491 829 392 703 c 128,-1,5
 293 577 293 577 293 387 c 0,6,7
 293 266 293 266 354 197.5 c 128,-1,8
 415 129 415 129 522 129 c 0,9,10
 666 129 666 129 763 263 c 128,-1,11
 860 397 860 397 860 594 c 0,0,1
1128 1460 m 1,12,-1
 1092 1274 l 1,13,14
 1034 1311 1034 1311 966 1330.5 c 128,-1,15
 898 1350 898 1350 823 1350 c 0,16,17
 630 1350 630 1350 504.5 1206.5 c 128,-1,18
 379 1063 379 1063 324 780 c 1,19,20
 392 882 392 882 485.5 934.5 c 128,-1,21
 579 987 579 987 692 987 c 0,22,23
 870 987 870 987 966.5 887.5 c 128,-1,24
 1063 788 1063 788 1063 604 c 0,25,26
 1063 485 1063 485 1023 366 c 128,-1,27
 983 247 983 247 915 164 c 0,28,29
 837 67 837 67 737.5 19 c 128,-1,30
 638 -29 638 -29 516 -29 c 0,31,32
 313 -29 313 -29 202.5 88 c 128,-1,33
 92 205 92 205 92 420 c 0,34,35
 92 586 92 586 131 765 c 128,-1,36
 170 944 170 944 238 1090 c 0,37,38
 336 1305 336 1305 488.5 1412.5 c 128,-1,39
 641 1520 641 1520 848 1520 c 0,40,41
 923 1520 923 1520 994 1504.5 c 128,-1,42
 1065 1489 1065 1489 1128 1460 c 1,12,-1
EndSplineSet
EndChar

StartChar: seven
Encoding: 55 55 26
Width: 1233
GlyphClass: 2
Flags: W
LayerCount: 2
Fore
SplineSet
276 1493 m 1,0,-1
 1212 1493 l 1,1,-1
 1196 1399 l 1,2,-1
 391 0 l 1,3,-1
 174 0 l 1,4,-1
 952 1323 l 1,5,-1
 244 1323 l 1,6,-1
 276 1493 l 1,0,-1
EndSplineSet
EndChar

StartChar: eight
Encoding: 56 56 27
Width: 1233
GlyphClass: 2
Flags: W
LayerCount: 2
Fore
SplineSet
821 461 m 0,0,1
 821 577 821 577 755 643 c 128,-1,2
 689 709 689 709 571 709 c 0,3,4
 429 709 429 709 337.5 610.5 c 128,-1,5
 246 512 246 512 246 358 c 0,6,7
 246 253 246 253 313 190 c 128,-1,8
 380 127 380 127 492 127 c 0,9,10
 640 127 640 127 730.5 219 c 128,-1,11
 821 311 821 311 821 461 c 0,0,1
430 793 m 1,12,13
 323 831 323 831 269 903.5 c 128,-1,14
 215 976 215 976 215 1081 c 0,15,16
 215 1263 215 1263 363 1391.5 c 128,-1,17
 511 1520 511 1520 725 1520 c 0,18,19
 903 1520 903 1520 1014.5 1429 c 128,-1,20
 1126 1338 1126 1338 1126 1194 c 256,21,22
 1126 1050 1126 1050 1029 936.5 c 128,-1,23
 932 823 932 823 772 782 c 1,24,25
 898 752 898 752 962 669 c 128,-1,26
 1026 586 1026 586 1026 453 c 0,27,28
 1026 244 1026 244 874 107.5 c 128,-1,29
 722 -29 722 -29 485 -29 c 0,30,31
 278 -29 278 -29 159.5 73 c 128,-1,32
 41 175 41 175 41 354 c 0,33,34
 41 520 41 520 145.5 638 c 128,-1,35
 250 756 250 756 430 793 c 1,12,13
707 1364 m 0,36,37
 580 1364 580 1364 498 1283.5 c 128,-1,38
 416 1203 416 1203 416 1079 c 0,39,40
 416 980 416 980 474.5 923 c 128,-1,41
 533 866 533 866 635 866 c 0,42,43
 758 866 758 866 842 953 c 128,-1,44
 926 1040 926 1040 926 1165 c 0,45,46
 926 1256 926 1256 866 1310 c 128,-1,47
 806 1364 806 1364 707 1364 c 0,36,37
EndSplineSet
EndChar

StartChar: nine
Encoding: 57 57 28
Width: 1233
GlyphClass: 2
Flags: W
LayerCount: 2
Fore
SplineSet
330 897 m 0,0,1
 330 784 330 784 388 723 c 128,-1,2
 446 662 446 662 553 662 c 0,3,4
 699 662 699 662 798 788 c 128,-1,5
 897 914 897 914 897 1104 c 0,6,7
 897 1226 897 1226 837 1294 c 128,-1,8
 777 1362 777 1362 670 1362 c 0,9,10
 526 1362 526 1362 428 1228 c 128,-1,11
 330 1094 330 1094 330 897 c 0,0,1
63 31 m 1,12,-1
 98 217 l 1,13,14
 156 180 156 180 224 160.5 c 128,-1,15
 292 141 292 141 367 141 c 0,16,17
 560 141 560 141 685.5 284.5 c 128,-1,18
 811 428 811 428 866 711 c 1,19,20
 798 609 798 609 704.5 556.5 c 128,-1,21
 611 504 611 504 498 504 c 0,22,23
 320 504 320 504 223.5 604 c 128,-1,24
 127 704 127 704 127 889 c 0,25,26
 127 1007 127 1007 167 1125.5 c 128,-1,27
 207 1244 207 1244 274 1327 c 0,28,29
 352 1423 352 1423 452 1471.5 c 128,-1,30
 552 1520 552 1520 674 1520 c 0,31,32
 877 1520 877 1520 988.5 1402.5 c 128,-1,33
 1100 1285 1100 1285 1100 1071 c 0,34,35
 1100 905 1100 905 1061 726 c 128,-1,36
 1022 547 1022 547 954 401 c 0,37,38
 856 187 856 187 703 79 c 128,-1,39
 550 -29 550 -29 342 -29 c 0,40,41
 267 -29 267 -29 197 -14 c 128,-1,42
 127 1 127 1 63 31 c 1,12,-1
EndSplineSet
EndChar

StartChar: colon
Encoding: 58 58 29
Width: 1233
GlyphClass: 2
Flags: W
LayerCount: 2
Fore
SplineSet
566 1119 m 1,0,-1
 878 1119 l 1,1,-1
 808 758 l 1,2,-1
 496 758 l 1,3,-1
 566 1119 l 1,0,-1
419 364 m 1,4,-1
 731 364 l 1,5,-1
 661 0 l 1,6,-1
 349 0 l 1,7,-1
 419 364 l 1,4,-1
EndSplineSet
EndChar

StartChar: semicolon
Encoding: 59 59 30
Width: 1233
GlyphClass: 2
Flags: W
LayerCount: 2
Fore
SplineSet
422 361 m 1,0,-1
 734 361 l 1,1,-1
 682 96 l 1,2,-1
 411 -286 l 1,3,-1
 197 -286 l 1,4,-1
 370 96 l 1,5,-1
 422 361 l 1,0,-1
556 1119 m 1,6,-1
 868 1119 l 1,7,-1
 798 758 l 1,8,-1
 486 758 l 1,9,-1
 556 1119 l 1,6,-1
EndSplineSet
EndChar

StartChar: less
Encoding: 60 60 31
Width: 1233
GlyphClass: 2
Flags: W
LayerCount: 2
Fore
SplineSet
1145 961 m 1,0,-1
 295 641 l 1,1,-1
 1145 324 l 1,2,-1
 1145 141 l 1,3,-1
 88 559 l 1,4,-1
 88 725 l 1,5,-1
 1145 1143 l 1,6,-1
 1145 961 l 1,0,-1
EndSplineSet
EndChar

StartChar: equal
Encoding: 61 61 32
Width: 1233
GlyphClass: 2
Flags: W
LayerCount: 2
Fore
SplineSet
88 524 m 1,0,-1
 1145 524 l 1,1,-1
 1145 352 l 1,2,-1
 88 352 l 1,3,-1
 88 524 l 1,0,-1
88 930 m 1,4,-1
 1145 930 l 1,5,-1
 1145 760 l 1,6,-1
 88 760 l 1,7,-1
 88 930 l 1,4,-1
88 550 m 1,8,-1
 1145 550 l 1,9,-1
 1145 381 l 1,10,-1
 88 381 l 1,11,-1
 88 550 l 1,8,-1
88 921 m 1,12,-1
 1145 921 l 1,13,-1
 1145 752 l 1,14,-1
 88 752 l 1,15,-1
 88 921 l 1,12,-1
EndSplineSet
EndChar

StartChar: greater
Encoding: 62 62 33
Width: 1233
GlyphClass: 2
Flags: W
LayerCount: 2
Fore
SplineSet
88 961 m 1,0,-1
 88 1143 l 1,1,-1
 1145 725 l 1,2,-1
 1145 559 l 1,3,-1
 88 141 l 1,4,-1
 88 324 l 1,5,-1
 938 641 l 1,6,-1
 88 961 l 1,0,-1
EndSplineSet
EndChar

StartChar: question
Encoding: 63 63 34
Width: 1233
GlyphClass: 2
Flags: W
LayerCount: 2
Fore
SplineSet
608 401 m 1,0,-1
 418 401 l 1,1,-1
 446 555 l 2,2,3
 465 646 465 646 503.5 711 c 128,-1,4
 542 776 542 776 655 870 c 2,5,-1
 762 961 l 2,6,7
 847 1033 847 1033 882.5 1088.5 c 128,-1,8
 918 1144 918 1144 918 1200 c 0,9,10
 918 1274 918 1274 862 1315 c 128,-1,11
 806 1356 806 1356 707 1356 c 0,12,13
 628 1356 628 1356 529.5 1320.5 c 128,-1,14
 431 1285 431 1285 326 1219 c 1,15,-1
 362 1407 l 1,16,17
 471 1464 471 1464 572 1492 c 128,-1,18
 673 1520 673 1520 774 1520 c 0,19,20
 927 1520 927 1520 1023.5 1438.5 c 128,-1,21
 1120 1357 1120 1357 1120 1231 c 0,22,23
 1120 1137 1120 1137 1071.5 1056.5 c 128,-1,24
 1023 976 1023 976 893 868 c 2,25,-1
 788 782 l 2,26,27
 704 712 704 712 674 661 c 128,-1,28
 644 610 644 610 629 524 c 2,29,-1
 608 401 l 1,0,-1
383 254 m 1,30,-1
 586 254 l 1,31,-1
 537 0 l 1,32,-1
 332 0 l 1,33,-1
 383 254 l 1,30,-1
EndSplineSet
EndChar

StartChar: at
Encoding: 64 64 35
Width: 1233
GlyphClass: 2
Flags: W
LayerCount: 2
Fore
SplineSet
990 545 m 0,0,1
 1016 674 1016 674 967 751.5 c 128,-1,2
 918 829 918 829 811 829 c 256,3,4
 704 829 704 829 624.5 751.5 c 128,-1,5
 545 674 545 674 519 545 c 0,6,7
 493 415 493 415 542 337.5 c 128,-1,8
 591 260 591 260 698 260 c 256,9,10
 805 260 805 260 884.5 337.5 c 128,-1,11
 964 415 964 415 990 545 c 0,0,1
1048 135 m 1,12,-1
 904 135 l 1,13,-1
 926 246 l 1,14,15
 877 183 877 183 804.5 149 c 128,-1,16
 732 115 732 115 650 115 c 0,17,18
 489 115 489 115 407.5 236 c 128,-1,19
 326 357 326 357 364 545 c 0,20,21
 401 733 401 733 530.5 854 c 128,-1,22
 660 975 660 975 821 975 c 0,23,24
 901 975 901 975 961 940 c 128,-1,25
 1021 905 1021 905 1045 844 c 1,26,-1
 1057 907 l 2,27,28
 1089 1063 1089 1063 1020 1158 c 128,-1,29
 951 1253 951 1253 806 1253 c 0,30,31
 560 1253 560 1253 376 1061.5 c 128,-1,32
 192 870 192 870 127 543 c 0,33,34
 62 214 62 214 188 19 c 128,-1,35
 314 -176 314 -176 600 -177 c 1,36,37
 653 -185 653 -185 751 -185 c 128,-1,38
 849 -185 849 -185 927 -181 c 1,39,-1
 898 -325 l 1,40,41
 832 -330 832 -330 729.5 -330.5 c 128,-1,42
 627 -331 627 -331 572 -322 c 1,43,44
 225 -319 225 -319 63 -86 c 128,-1,45
 -99 147 -99 147 -21 543 c 0,46,47
 56 933 56 933 290 1164 c 128,-1,48
 524 1395 524 1395 840 1395 c 0,49,50
 1049 1395 1049 1395 1147.5 1262 c 128,-1,51
 1246 1129 1246 1129 1201 905 c 2,52,-1
 1048 135 l 1,12,-1
EndSplineSet
EndChar

StartChar: A
Encoding: 65 65 36
Width: 1233
GlyphClass: 2
Flags: W
LayerCount: 2
Fore
SplineSet
735 1325 m 1,0,-1
 371 551 l 1,1,-1
 801 551 l 1,2,-1
 735 1325 l 1,0,-1
639 1493 m 1,3,-1
 885 1493 l 1,4,-1
 1051 0 l 1,5,-1
 850 0 l 1,6,-1
 815 389 l 1,7,-1
 295 389 l 1,8,-1
 111 0 l 1,9,-1
 -106 0 l 1,10,-1
 639 1493 l 1,3,-1
EndSplineSet
EndChar

StartChar: B
Encoding: 66 66 37
Width: 1233
GlyphClass: 2
Flags: W
LayerCount: 2
Fore
SplineSet
365 713 m 1,0,-1
 258 166 l 1,1,-1
 506 166 l 2,2,3
 690 166 690 166 787.5 253 c 128,-1,4
 885 340 885 340 885 504 c 0,5,6
 885 611 885 611 817 662 c 128,-1,7
 749 713 749 713 606 713 c 2,8,-1
 365 713 l 1,0,-1
483 1327 m 1,9,-1
 395 877 l 1,10,-1
 639 877 l 2,11,12
 790 877 790 877 876.5 949.5 c 128,-1,13
 963 1022 963 1022 963 1149 c 0,14,15
 963 1243 963 1243 907.5 1285 c 128,-1,16
 852 1327 852 1327 727 1327 c 2,17,-1
 483 1327 l 1,9,-1
313 1493 m 1,18,-1
 756 1493 l 2,19,20
 959 1493 959 1493 1063 1413.5 c 128,-1,21
 1167 1334 1167 1334 1167 1180 c 256,22,23
 1167 1026 1167 1026 1075 922.5 c 128,-1,24
 983 819 983 819 827 799 c 1,25,26
 952 776 952 776 1018.5 697 c 128,-1,27
 1085 618 1085 618 1085 494 c 0,28,29
 1085 260 1085 260 925.5 130 c 128,-1,30
 766 0 766 0 475 0 c 2,31,-1
 23 0 l 1,32,-1
 313 1493 l 1,18,-1
EndSplineSet
EndChar

StartChar: C
Encoding: 67 67 38
Width: 1233
GlyphClass: 2
Flags: W
LayerCount: 2
Fore
SplineSet
944 53 m 1,0,1
 860 12 860 12 774.5 -8.5 c 128,-1,2
 689 -29 689 -29 598 -29 c 0,3,4
 368 -29 368 -29 241.5 104 c 128,-1,5
 115 237 115 237 115 477 c 0,6,7
 115 697 115 697 185 913 c 128,-1,8
 255 1129 255 1129 369 1266 c 0,9,10
 476 1396 476 1396 605 1458 c 128,-1,11
 734 1520 734 1520 899 1520 c 0,12,13
 979 1520 979 1520 1058 1499 c 128,-1,14
 1137 1478 1137 1478 1212 1438 c 1,15,-1
 1171 1231 l 1,16,17
 1107 1294 1107 1294 1036 1325 c 128,-1,18
 965 1356 965 1356 885 1356 c 0,19,20
 790 1356 790 1356 709 1315.5 c 128,-1,21
 628 1275 628 1275 557 1192 c 0,22,23
 453 1069 453 1069 389.5 877 c 128,-1,24
 326 685 326 685 326 492 c 0,25,26
 326 319 326 319 404 227 c 128,-1,27
 482 135 482 135 629 135 c 0,28,29
 714 135 714 135 804.5 167 c 128,-1,30
 895 199 895 199 983 260 c 1,31,-1
 944 53 l 1,0,1
EndSplineSet
EndChar

StartChar: D
Encoding: 68 68 39
Width: 1233
GlyphClass: 2
Flags: W
LayerCount: 2
Fore
SplineSet
324 166 m 2,0,1
 509 166 509 166 621 228.5 c 128,-1,2
 733 291 733 291 801 432 c 0,3,4
 855 547 855 547 889.5 706.5 c 128,-1,5
 924 866 924 866 924 999 c 0,6,7
 924 1175 924 1175 842 1251 c 128,-1,8
 760 1327 760 1327 567 1327 c 2,9,-1
 453 1327 l 1,10,-1
 227 166 l 1,11,-1
 324 166 l 2,0,1
586 1493 m 2,12,13
 859 1493 859 1493 994.5 1369 c 128,-1,14
 1130 1245 1130 1245 1130 993 c 0,15,16
 1130 831 1130 831 1088 659 c 128,-1,17
 1046 487 1046 487 975 354 c 0,18,19
 871 163 871 163 715.5 81.5 c 128,-1,20
 560 0 560 0 295 0 c 2,21,-1
 -8 0 l 1,22,-1
 283 1493 l 1,23,-1
 586 1493 l 2,12,13
EndSplineSet
EndChar

StartChar: E
Encoding: 69 69 40
Width: 1233
GlyphClass: 2
Flags: W
LayerCount: 2
Fore
SplineSet
344 1493 m 1,0,-1
 1229 1493 l 1,1,-1
 1196 1323 l 1,2,-1
 512 1323 l 1,3,-1
 426 881 l 1,4,-1
 1079 881 l 1,5,-1
 1047 711 l 1,6,-1
 393 711 l 1,7,-1
 289 170 l 1,8,-1
 991 170 l 1,9,-1
 958 0 l 1,10,-1
 53 0 l 1,11,-1
 344 1493 l 1,0,-1
EndSplineSet
EndChar

StartChar: F
Encoding: 70 70 41
Width: 1233
GlyphClass: 2
Flags: W
LayerCount: 2
Fore
SplineSet
383 1493 m 1,0,-1
 1262 1493 l 1,1,-1
 1229 1323 l 1,2,-1
 553 1323 l 1,3,-1
 467 883 l 1,4,-1
 1079 883 l 1,5,-1
 1047 713 l 1,6,-1
 434 713 l 1,7,-1
 295 0 l 1,8,-1
 92 0 l 1,9,-1
 383 1493 l 1,0,-1
EndSplineSet
EndChar

StartChar: G
Encoding: 71 71 42
Width: 1233
GlyphClass: 2
Flags: W
LayerCount: 2
Fore
SplineSet
969 96 m 1,0,1
 882 34 882 34 779 2.5 c 128,-1,2
 676 -29 676 -29 559 -29 c 0,3,4
 327 -29 327 -29 202.5 105.5 c 128,-1,5
 78 240 78 240 78 489 c 0,6,7
 78 579 78 579 94.5 680.5 c 128,-1,8
 111 782 111 782 143 893 c 0,9,10
 178 1010 178 1010 225 1104.5 c 128,-1,11
 272 1199 272 1199 328 1266 c 0,12,13
 435 1396 435 1396 564.5 1458 c 128,-1,14
 694 1520 694 1520 860 1520 c 0,15,16
 940 1520 940 1520 1019.5 1499 c 128,-1,17
 1099 1478 1099 1478 1176 1438 c 1,18,-1
 1135 1231 l 1,19,20
 1070 1294 1070 1294 998.5 1325 c 128,-1,21
 927 1356 927 1356 846 1356 c 0,22,23
 748 1356 748 1356 662 1314.5 c 128,-1,24
 576 1273 576 1273 508 1192 c 0,25,26
 464 1140 464 1140 425 1062 c 128,-1,27
 386 984 386 984 356 887 c 0,28,29
 322 773 322 773 304.5 673 c 128,-1,30
 287 573 287 573 287 492 c 0,31,32
 287 321 287 321 366 228 c 128,-1,33
 445 135 445 135 590 135 c 0,34,35
 658 135 658 135 712 153.5 c 128,-1,36
 766 172 766 172 803 207 c 1,37,-1
 879 600 l 1,38,-1
 662 600 l 1,39,-1
 692 766 l 1,40,-1
 1102 766 l 1,41,-1
 969 96 l 1,0,1
EndSplineSet
EndChar

StartChar: H
Encoding: 72 72 43
Width: 1233
GlyphClass: 2
Flags: W
LayerCount: 2
Fore
SplineSet
283 1493 m 1,0,-1
 485 1493 l 1,1,-1
 367 881 l 1,2,-1
 920 881 l 1,3,-1
 1038 1493 l 1,4,-1
 1241 1493 l 1,5,-1
 950 0 l 1,6,-1
 748 0 l 1,7,-1
 887 711 l 1,8,-1
 332 711 l 1,9,-1
 195 0 l 1,10,-1
 -8 0 l 1,11,-1
 283 1493 l 1,0,-1
EndSplineSet
EndChar

StartChar: I
Encoding: 73 73 44
Width: 1233
GlyphClass: 2
Flags: W
LayerCount: 2
Fore
SplineSet
346 1493 m 1,0,-1
 1176 1493 l 1,1,-1
 1143 1323 l 1,2,-1
 829 1323 l 1,3,-1
 606 170 l 1,4,-1
 920 170 l 1,5,-1
 887 0 l 1,6,-1
 57 0 l 1,7,-1
 90 170 l 1,8,-1
 403 170 l 1,9,-1
 627 1323 l 1,10,-1
 313 1323 l 1,11,-1
 346 1493 l 1,0,-1
EndSplineSet
EndChar

StartChar: J
Encoding: 74 74 45
Width: 1233
GlyphClass: 2
Flags: W
LayerCount: 2
Fore
SplineSet
-25 61 m 1,0,-1
 20 297 l 1,1,2
 92 218 92 218 184 176.5 c 128,-1,3
 276 135 276 135 379 135 c 0,4,5
 521 135 521 135 591.5 208 c 128,-1,6
 662 281 662 281 702 487 c 2,7,-1
 866 1323 l 1,8,-1
 485 1323 l 1,9,-1
 518 1493 l 1,10,-1
 1102 1493 l 1,11,-1
 905 487 l 2,12,13
 849 198 849 198 729 84.5 c 128,-1,14
 609 -29 609 -29 371 -29 c 0,15,16
 274 -29 274 -29 174 -6 c 128,-1,17
 74 17 74 17 -25 61 c 1,0,-1
EndSplineSet
EndChar

StartChar: K
Encoding: 75 75 46
Width: 1233
GlyphClass: 2
Flags: W
LayerCount: 2
Fore
SplineSet
283 1493 m 1,0,-1
 485 1493 l 1,1,-1
 358 846 l 1,2,-1
 1100 1493 l 1,3,-1
 1354 1493 l 1,4,-1
 651 874 l 1,5,-1
 1079 0 l 1,6,-1
 860 0 l 1,7,-1
 500 741 l 1,8,-1
 307 573 l 1,9,-1
 195 0 l 1,10,-1
 -8 0 l 1,11,-1
 283 1493 l 1,0,-1
EndSplineSet
EndChar

StartChar: L
Encoding: 76 76 47
Width: 1233
GlyphClass: 2
Flags: W
LayerCount: 2
Fore
SplineSet
369 1493 m 1,0,-1
 571 1493 l 1,1,-1
 313 170 l 1,2,-1
 1034 170 l 1,3,-1
 1001 0 l 1,4,-1
 78 0 l 1,5,-1
 369 1493 l 1,0,-1
EndSplineSet
EndChar

StartChar: M
Encoding: 77 77 48
Width: 1233
GlyphClass: 2
Flags: W
LayerCount: 2
Fore
SplineSet
229 1493 m 1,0,-1
 498 1493 l 1,1,-1
 608 737 l 1,2,-1
 1022 1493 l 1,3,-1
 1292 1493 l 1,4,-1
 1001 0 l 1,5,-1
 815 0 l 1,6,-1
 1073 1327 l 1,7,-1
 639 532 l 1,8,-1
 498 532 l 1,9,-1
 383 1327 l 1,10,-1
 127 0 l 1,11,-1
 -59 0 l 1,12,-1
 229 1493 l 1,0,-1
EndSplineSet
EndChar

StartChar: N
Encoding: 78 78 49
Width: 1233
GlyphClass: 2
Flags: W
LayerCount: 2
Fore
SplineSet
285 1493 m 1,0,-1
 541 1493 l 1,1,-1
 805 264 l 1,2,-1
 1044 1493 l 1,3,-1
 1239 1493 l 1,4,-1
 948 0 l 1,5,-1
 692 0 l 1,6,-1
 428 1229 l 1,7,-1
 188 0 l 1,8,-1
 -6 0 l 1,9,-1
 285 1493 l 1,0,-1
EndSplineSet
EndChar

StartChar: O
Encoding: 79 79 50
Width: 1233
GlyphClass: 2
Flags: W
LayerCount: 2
Fore
SplineSet
502 135 m 0,0,1
 587 135 587 135 659 186 c 128,-1,2
 731 237 731 237 778 332 c 0,3,4
 852 477 852 477 898 683 c 128,-1,5
 944 889 944 889 944 1079 c 0,6,7
 944 1221 944 1221 891.5 1288.5 c 128,-1,8
 839 1356 839 1356 729 1356 c 0,9,10
 644 1356 644 1356 573 1305 c 128,-1,11
 502 1254 502 1254 455 1159 c 0,12,13
 379 1012 379 1012 333 808 c 128,-1,14
 287 604 287 604 287 414 c 0,15,16
 287 271 287 271 339.5 203 c 128,-1,17
 392 135 392 135 502 135 c 0,0,1
1151 1020 m 0,18,19
 1151 910 1151 910 1128.5 781 c 128,-1,20
 1106 652 1106 652 1063 516 c 0,21,22
 1034 424 1034 424 1000.5 351 c 128,-1,23
 967 278 967 278 928 219 c 0,24,25
 840 92 840 92 731 31.5 c 128,-1,26
 622 -29 622 -29 477 -29 c 0,27,28
 276 -29 276 -29 179 94 c 128,-1,29
 82 217 82 217 82 473 c 0,30,31
 82 584 82 584 103.5 711.5 c 128,-1,32
 125 839 125 839 168 975 c 0,33,34
 197 1067 197 1067 230.5 1140 c 128,-1,35
 264 1213 264 1213 303 1272 c 0,36,37
 391 1399 391 1399 500 1459.5 c 128,-1,38
 609 1520 609 1520 754 1520 c 0,39,40
 956 1520 956 1520 1053.5 1397.5 c 128,-1,41
 1151 1275 1151 1275 1151 1020 c 0,18,19
EndSplineSet
EndChar

StartChar: P
Encoding: 80 80 51
Width: 1233
GlyphClass: 2
Flags: W
LayerCount: 2
Fore
SplineSet
512 1327 m 1,0,-1
 403 766 l 1,1,-1
 637 766 l 2,2,3
 802 766 802 766 900.5 861.5 c 128,-1,4
 999 957 999 957 999 1116 c 0,5,6
 999 1224 999 1224 937 1275.5 c 128,-1,7
 875 1327 875 1327 745 1327 c 2,8,-1
 512 1327 l 1,0,-1
342 1493 m 1,9,-1
 782 1493 l 2,10,11
 988 1493 988 1493 1096 1401 c 128,-1,12
 1204 1309 1204 1309 1204 1135 c 0,13,14
 1204 886 1204 886 1044 743 c 128,-1,15
 884 600 884 600 604 600 c 2,16,-1
 371 600 l 1,17,-1
 254 0 l 1,18,-1
 51 0 l 1,19,-1
 342 1493 l 1,9,-1
EndSplineSet
EndChar

StartChar: Q
Encoding: 81 81 52
Width: 1233
GlyphClass: 2
Flags: W
LayerCount: 2
Fore
SplineSet
504 -27 m 1,0,-1
 494 -27 l 2,1,2
 279 -27 279 -27 180.5 92 c 128,-1,3
 82 211 82 211 82 473 c 0,4,5
 82 584 82 584 103.5 711.5 c 128,-1,6
 125 839 125 839 168 975 c 0,7,8
 197 1067 197 1067 230.5 1140 c 128,-1,9
 264 1213 264 1213 303 1272 c 0,10,11
 391 1399 391 1399 500 1459.5 c 128,-1,12
 609 1520 609 1520 754 1520 c 0,13,14
 956 1520 956 1520 1053.5 1397.5 c 128,-1,15
 1151 1275 1151 1275 1151 1020 c 0,16,17
 1151 937 1151 937 1136.5 838.5 c 128,-1,18
 1122 740 1122 740 1094 629 c 0,19,20
 1064 513 1064 513 1032 427 c 128,-1,21
 1000 341 1000 341 963 274 c 0,22,23
 909 179 909 179 839 111 c 128,-1,24
 769 43 769 43 690 10 c 1,25,-1
 844 -178 l 1,26,-1
 690 -270 l 1,27,-1
 504 -27 l 1,0,-1
502 135 m 0,28,29
 587 135 587 135 659 186 c 128,-1,30
 731 237 731 237 778 332 c 0,31,32
 852 477 852 477 898 683 c 128,-1,33
 944 889 944 889 944 1079 c 0,34,35
 944 1221 944 1221 891.5 1288.5 c 128,-1,36
 839 1356 839 1356 729 1356 c 0,37,38
 644 1356 644 1356 573 1305 c 128,-1,39
 502 1254 502 1254 455 1159 c 0,40,41
 379 1012 379 1012 333 808 c 128,-1,42
 287 604 287 604 287 414 c 0,43,44
 287 271 287 271 339.5 203 c 128,-1,45
 392 135 392 135 502 135 c 0,28,29
EndSplineSet
EndChar

StartChar: R
Encoding: 82 82 53
Width: 1233
GlyphClass: 2
Flags: W
LayerCount: 2
Fore
SplineSet
766 705 m 1,0,1
 838 691 838 691 881.5 638 c 128,-1,2
 925 585 925 585 979 408 c 2,3,-1
 1100 0 l 1,4,-1
 899 0 l 1,5,-1
 793 377 l 2,6,7
 749 533 749 533 694.5 582 c 128,-1,8
 640 631 640 631 530 631 c 2,9,-1
 338 631 l 1,10,-1
 215 0 l 1,11,-1
 12 0 l 1,12,-1
 301 1493 l 1,13,-1
 717 1493 l 2,14,15
 924 1493 924 1493 1037.5 1403.5 c 128,-1,16
 1151 1314 1151 1314 1151 1151 c 0,17,18
 1151 968 1151 968 1047.5 848 c 128,-1,19
 944 728 944 728 766 705 c 1,0,1
473 1327 m 1,20,-1
 371 797 l 1,21,-1
 590 797 l 2,22,23
 753 797 753 797 850.5 882.5 c 128,-1,24
 948 968 948 968 948 1110 c 0,25,26
 948 1222 948 1222 885 1274.5 c 128,-1,27
 822 1327 822 1327 686 1327 c 2,28,-1
 473 1327 l 1,20,-1
EndSplineSet
EndChar

StartChar: S
Encoding: 83 83 54
Width: 1233
GlyphClass: 2
Flags: W
LayerCount: 2
Fore
SplineSet
1147 1442 m 1,0,-1
 1108 1237 l 1,1,2
 1027 1296 1027 1296 940 1326 c 128,-1,3
 853 1356 853 1356 760 1356 c 0,4,5
 595 1356 595 1356 491 1274 c 128,-1,6
 387 1192 387 1192 387 1065 c 0,7,8
 387 994 387 994 436 950 c 128,-1,9
 485 906 485 906 614 866 c 2,10,-1
 735 827 l 2,11,12
 898 777 898 777 973.5 693.5 c 128,-1,13
 1049 610 1049 610 1049 481 c 0,14,15
 1049 246 1049 246 883 108.5 c 128,-1,16
 717 -29 717 -29 430 -29 c 0,17,18
 326 -29 326 -29 225.5 -6.5 c 128,-1,19
 125 16 125 16 25 61 c 1,20,-1
 66 270 l 1,21,22
 164 201 164 201 264.5 168 c 128,-1,23
 365 135 365 135 477 135 c 0,24,25
 642 135 642 135 745 223 c 128,-1,26
 848 311 848 311 848 446 c 0,27,28
 848 528 848 528 804 573 c 128,-1,29
 760 618 760 618 627 659 c 2,30,-1
 526 692 l 2,31,32
 342 750 342 750 268.5 823.5 c 128,-1,33
 195 897 195 897 195 1018 c 0,34,35
 195 1239 195 1239 360 1379.5 c 128,-1,36
 525 1520 525 1520 791 1520 c 0,37,38
 871 1520 871 1520 961.5 1500 c 128,-1,39
 1052 1480 1052 1480 1147 1442 c 1,0,-1
EndSplineSet
EndChar

StartChar: T
Encoding: 84 84 55
Width: 1233
GlyphClass: 2
Flags: W
LayerCount: 2
Fore
SplineSet
193 1493 m 1,0,-1
 1333 1493 l 1,1,-1
 1300 1323 l 1,2,-1
 831 1323 l 1,3,-1
 575 0 l 1,4,-1
 371 0 l 1,5,-1
 629 1323 l 1,6,-1
 160 1323 l 1,7,-1
 193 1493 l 1,0,-1
EndSplineSet
EndChar

StartChar: U
Encoding: 85 85 56
Width: 1233
GlyphClass: 2
Flags: W
LayerCount: 2
Fore
SplineSet
115 573 m 2,0,-1
 293 1493 l 1,1,-1
 496 1493 l 1,2,-1
 317 573 l 2,3,4
 315 560 315 560 309 532 c 0,5,6
 279 378 279 378 279 319 c 0,7,8
 279 227 279 227 333.5 181 c 128,-1,9
 388 135 388 135 498 135 c 0,10,11
 587 135 587 135 649 163.5 c 128,-1,12
 711 192 711 192 756 254 c 0,13,14
 778 285 778 285 800.5 360.5 c 128,-1,15
 823 436 823 436 850 573 c 2,16,-1
 1028 1493 l 1,17,-1
 1231 1493 l 1,18,-1
 1053 573 l 2,19,20
 1011 354 1011 354 963.5 251.5 c 128,-1,21
 916 149 916 149 838 86 c 0,22,23
 767 30 767 30 676 0.5 c 128,-1,24
 585 -29 585 -29 479 -29 c 0,25,26
 287 -29 287 -29 183.5 61 c 128,-1,27
 80 151 80 151 80 317 c 0,28,29
 80 354 80 354 88.5 417 c 128,-1,30
 97 480 97 480 115 573 c 2,0,-1
EndSplineSet
EndChar

StartChar: V
Encoding: 86 86 57
Width: 1233
GlyphClass: 2
Flags: W
LayerCount: 2
Fore
SplineSet
510 190 m 1,0,-1
 1108 1493 l 1,1,-1
 1323 1493 l 1,2,-1
 604 0 l 1,3,-1
 346 0 l 1,4,-1
 199 1493 l 1,5,-1
 397 1493 l 1,6,-1
 510 190 l 1,0,-1
EndSplineSet
EndChar

StartChar: W
Encoding: 87 87 58
Width: 1233
GlyphClass: 2
Flags: W
LayerCount: 2
Fore
SplineSet
145 1493 m 1,0,-1
 336 1493 l 1,1,-1
 246 283 l 1,2,-1
 575 1083 l 1,3,-1
 786 1083 l 1,4,-1
 801 281 l 1,5,-1
 1178 1493 l 1,6,-1
 1376 1493 l 1,7,-1
 866 0 l 1,8,-1
 672 0 l 1,9,-1
 641 870 l 1,10,-1
 270 0 l 1,11,-1
 82 0 l 1,12,-1
 145 1493 l 1,0,-1
EndSplineSet
EndChar

StartChar: X
Encoding: 88 88 59
Width: 1233
GlyphClass: 2
Flags: W
LayerCount: 2
Fore
SplineSet
242 1493 m 1,0,-1
 442 1493 l 1,1,-1
 666 961 l 1,2,-1
 1106 1493 l 1,3,-1
 1337 1493 l 1,4,-1
 741 774 l 1,5,-1
 1065 0 l 1,6,-1
 864 0 l 1,7,-1
 610 612 l 1,8,-1
 104 0 l 1,9,-1
 -127 0 l 1,10,-1
 530 797 l 1,11,-1
 242 1493 l 1,0,-1
EndSplineSet
EndChar

StartChar: Y
Encoding: 89 89 60
Width: 1233
GlyphClass: 2
Flags: W
LayerCount: 2
Fore
SplineSet
195 1493 m 1,0,-1
 397 1493 l 1,1,-1
 633 842 l 1,2,-1
 1130 1493 l 1,3,-1
 1348 1493 l 1,4,-1
 713 670 l 1,5,-1
 584 0 l 1,6,-1
 377 0 l 1,7,-1
 508 670 l 1,8,-1
 195 1493 l 1,0,-1
EndSplineSet
EndChar

StartChar: Z
Encoding: 90 90 61
Width: 1233
GlyphClass: 2
Flags: W
LayerCount: 2
Fore
SplineSet
305 1493 m 1,0,-1
 1274 1493 l 1,1,-1
 1245 1339 l 1,2,-1
 266 170 l 1,3,-1
 1040 170 l 1,4,-1
 1006 0 l 1,5,-1
 -6 0 l 1,6,-1
 23 154 l 1,7,-1
 999 1323 l 1,8,-1
 272 1323 l 1,9,-1
 305 1493 l 1,0,-1
EndSplineSet
EndChar

StartChar: bracketleft
Encoding: 91 91 62
Width: 1233
GlyphClass: 2
Flags: W
LayerCount: 2
Fore
SplineSet
681 1456 m 1,0,-1
 1104 1456 l 1,1,-1
 1076 1313 l 1,2,-1
 836 1313 l 1,3,-1
 537 -227 l 1,4,-1
 777 -227 l 1,5,-1
 750 -370 l 1,6,-1
 324 -370 l 1,7,-1
 681 1456 l 1,0,-1
EndSplineSet
EndChar

StartChar: backslash
Encoding: 92 92 63
Width: 1233
GlyphClass: 2
Flags: W
LayerCount: 2
Fore
SplineSet
725 -190 m 1,0,-1
 555 -190 l 1,1,-1
 356 1493 l 1,2,-1
 526 1493 l 1,3,-1
 725 -190 l 1,0,-1
EndSplineSet
EndChar

StartChar: bracketright
Encoding: 93 93 64
Width: 1233
GlyphClass: 2
Flags: W
LayerCount: 2
Fore
SplineSet
978 1456 m 1,0,-1
 621 -370 l 1,1,-1
 197 -370 l 1,2,-1
 226 -227 l 1,3,-1
 466 -227 l 1,4,-1
 765 1313 l 1,5,-1
 525 1313 l 1,6,-1
 554 1456 l 1,7,-1
 978 1456 l 1,0,-1
EndSplineSet
EndChar

StartChar: asciicircum
Encoding: 94 94 65
Width: 1233
GlyphClass: 2
Flags: W
LayerCount: 2
Fore
SplineSet
705 1493 m 1,0,-1
 1161 936 l 1,1,-1
 983 936 l 1,2,-1
 616 1331 l 1,3,-1
 250 936 l 1,4,-1
 72 936 l 1,5,-1
 528 1493 l 1,6,-1
 705 1493 l 1,0,-1
EndSplineSet
EndChar

StartChar: underscore
Encoding: 95 95 66
Width: 1233
GlyphClass: 2
Flags: W
LayerCount: 2
Fore
SplineSet
1133 -160 m 1,0,-1
 1133 -310 l 1,1,-1
 100 -310 l 1,2,-1
 100 -160 l 1,3,-1
 1133 -160 l 1,0,-1
EndSplineSet
EndChar

StartChar: grave
Encoding: 96 96 67
Width: 1233
GlyphClass: 2
Flags: W
LayerCount: 2
Fore
SplineSet
651 1638 m 1,0,-1
 848 1262 l 1,1,-1
 705 1262 l 1,2,-1
 453 1638 l 1,3,-1
 651 1638 l 1,0,-1
EndSplineSet
EndChar

StartChar: a
Encoding: 97 97 68
Width: 1233
GlyphClass: 2
Flags: W
LayerCount: 2
Fore
SplineSet
692 563 m 2,0,1
 573 563 573 563 515 555.5 c 128,-1,2
 457 548 457 548 414 530 c 0,3,4
 346 503 346 503 305 441.5 c 128,-1,5
 264 380 264 380 264 307 c 0,6,7
 264 224 264 224 315.5 174.5 c 128,-1,8
 367 125 367 125 455 125 c 0,9,10
 603 125 603 125 710.5 231 c 128,-1,11
 818 337 818 337 856 522 c 2,12,-1
 864 563 l 1,13,-1
 692 563 l 2,0,1
1063 639 m 2,14,-1
 938 0 l 1,15,-1
 754 0 l 1,16,-1
 786 166 l 1,17,18
 714 72 714 72 616 21.5 c 128,-1,19
 518 -29 518 -29 408 -29 c 0,20,21
 255 -29 255 -29 163.5 54.5 c 128,-1,22
 72 138 72 138 72 276 c 0,23,24
 72 472 72 472 226.5 589.5 c 128,-1,25
 381 707 381 707 645 707 c 2,26,-1
 891 707 l 1,27,-1
 903 768 l 2,28,29
 905 777 905 777 906 787 c 128,-1,30
 907 797 907 797 907 815 c 0,31,32
 907 900 907 900 844 945.5 c 128,-1,33
 781 991 781 991 664 991 c 0,34,35
 578 991 578 991 478.5 965.5 c 128,-1,36
 379 940 379 940 268 889 c 1,37,-1
 303 1069 l 1,38,39
 411 1108 411 1108 508 1127.5 c 128,-1,40
 605 1147 605 1147 694 1147 c 0,41,42
 880 1147 880 1147 983.5 1065 c 128,-1,43
 1087 983 1087 983 1087 838 c 0,44,45
 1087 806 1087 806 1081 754 c 128,-1,46
 1075 702 1075 702 1063 639 c 2,14,-1
EndSplineSet
EndChar

StartChar: b
Encoding: 98 98 69
Width: 1233
GlyphClass: 2
Flags: W
LayerCount: 2
Fore
SplineSet
539 127 m 0,0,1
 623 127 623 127 691 172 c 128,-1,2
 759 217 759 217 805 303 c 0,3,4
 854 397 854 397 882.5 513 c 128,-1,5
 911 629 911 629 911 737 c 0,6,7
 911 865 911 865 860.5 929 c 128,-1,8
 810 993 810 993 709 993 c 0,9,10
 626 993 626 993 557.5 947 c 128,-1,11
 489 901 489 901 438 813 c 0,12,13
 390 727 390 727 361 610.5 c 128,-1,14
 332 494 332 494 332 383 c 0,15,16
 332 260 332 260 385.5 193.5 c 128,-1,17
 439 127 439 127 539 127 c 0,0,1
434 977 m 1,18,19
 496 1061 496 1061 578 1104 c 128,-1,20
 660 1147 660 1147 762 1147 c 0,21,22
 926 1147 926 1147 1017 1043.5 c 128,-1,23
 1108 940 1108 940 1108 754 c 0,24,25
 1108 609 1108 609 1067 465 c 128,-1,26
 1026 321 1026 321 954 213 c 0,27,28
 878 98 878 98 768.5 34.5 c 128,-1,29
 659 -29 659 -29 535 -29 c 0,30,31
 437 -29 437 -29 370.5 14 c 128,-1,32
 304 57 304 57 270 141 c 1,33,-1
 244 0 l 1,34,-1
 59 0 l 1,35,-1
 362 1556 l 1,36,-1
 547 1556 l 1,37,-1
 434 977 l 1,18,19
EndSplineSet
EndChar

StartChar: c
Encoding: 99 99 70
Width: 1233
GlyphClass: 2
Flags: W
LayerCount: 2
Fore
SplineSet
940 51 m 1,0,1
 867 12 867 12 783.5 -8.5 c 128,-1,2
 700 -29 700 -29 610 -29 c 0,3,4
 386 -29 386 -29 271 83.5 c 128,-1,5
 156 196 156 196 156 416 c 0,6,7
 156 565 156 565 209.5 708.5 c 128,-1,8
 263 852 263 852 354 950 c 0,9,10
 447 1049 447 1049 558.5 1098 c 128,-1,11
 670 1147 670 1147 803 1147 c 0,12,13
 892 1147 892 1147 975 1125.5 c 128,-1,14
 1058 1104 1058 1104 1137 1061 c 1,15,-1
 1100 879 l 1,16,17
 1034 937 1034 937 964 964 c 128,-1,18
 894 991 894 991 809 991 c 0,19,20
 699 991 699 991 614 946.5 c 128,-1,21
 529 902 529 902 469 813 c 0,22,23
 413 731 413 731 381.5 625.5 c 128,-1,24
 350 520 350 520 350 416 c 0,25,26
 350 272 350 272 418.5 199.5 c 128,-1,27
 487 127 487 127 623 127 c 0,28,29
 719 127 719 127 807.5 158 c 128,-1,30
 896 189 896 189 979 252 c 1,31,-1
 940 51 l 1,0,1
EndSplineSet
EndChar

StartChar: d
Encoding: 100 100 71
Width: 1233
GlyphClass: 2
Flags: W
LayerCount: 2
Fore
SplineSet
686 991 m 0,0,1
 598 991 598 991 531 947.5 c 128,-1,2
 464 904 464 904 418 817 c 0,3,4
 369 727 369 727 342 612.5 c 128,-1,5
 315 498 315 498 315 383 c 0,6,7
 315 255 315 255 366 191 c 128,-1,8
 417 127 417 127 518 127 c 0,9,10
 603 127 603 127 671.5 172 c 128,-1,11
 740 217 740 217 788 305 c 0,12,13
 837 392 837 392 865 507.5 c 128,-1,14
 893 623 893 623 893 737 c 0,15,16
 893 857 893 857 838.5 924 c 128,-1,17
 784 991 784 991 686 991 c 0,0,1
954 977 m 1,18,-1
 1069 1556 l 1,19,-1
 1253 1556 l 1,20,-1
 950 0 l 1,21,-1
 766 0 l 1,22,-1
 793 141 l 1,23,24
 728 57 728 57 645.5 14 c 128,-1,25
 563 -29 563 -29 463 -29 c 0,26,27
 300 -29 300 -29 209.5 76 c 128,-1,28
 119 181 119 181 119 369 c 0,29,30
 119 512 119 512 159 656.5 c 128,-1,31
 199 801 199 801 268 909 c 0,32,33
 343 1027 343 1027 444.5 1087 c 128,-1,34
 546 1147 546 1147 670 1147 c 0,35,36
 767 1147 767 1147 840 1103.5 c 128,-1,37
 913 1060 913 1060 954 977 c 1,18,-1
EndSplineSet
EndChar

StartChar: e
Encoding: 101 101 72
Width: 1233
GlyphClass: 2
Flags: W
LayerCount: 2
Fore
SplineSet
938 659 m 1,0,1
 944 686 944 686 946 703.5 c 128,-1,2
 948 721 948 721 948 737 c 0,3,4
 948 857 948 857 883 924 c 128,-1,5
 818 991 818 991 702 991 c 0,6,7
 579 991 579 991 477.5 901 c 128,-1,8
 376 811 376 811 332 659 c 1,9,-1
 938 659 l 1,0,1
961 57 m 1,10,11
 856 14 856 14 756 -7.5 c 128,-1,12
 656 -29 656 -29 553 -29 c 0,13,14
 330 -29 330 -29 214 82.5 c 128,-1,15
 98 194 98 194 98 408 c 0,16,17
 98 564 98 564 158 714 c 128,-1,18
 218 864 218 864 324 973 c 0,19,20
 407 1059 407 1059 507.5 1104 c 128,-1,21
 608 1149 608 1149 717 1149 c 0,22,23
 903 1149 903 1149 1014.5 1034.5 c 128,-1,24
 1126 920 1126 920 1126 729 c 0,25,26
 1126 695 1126 695 1121 644.5 c 128,-1,27
 1116 594 1116 594 1104 516 c 1,28,-1
 297 516 l 1,29,30
 291 484 291 484 288 458 c 128,-1,31
 285 432 285 432 285 412 c 0,32,33
 285 273 285 273 362 200 c 128,-1,34
 439 127 439 127 586 127 c 0,35,36
 674 127 674 127 778.5 155.5 c 128,-1,37
 883 184 883 184 997 240 c 1,38,-1
 961 57 l 1,10,11
EndSplineSet
EndChar

StartChar: f
Encoding: 102 102 73
Width: 1233
GlyphClass: 2
Flags: W
LayerCount: 2
Fore
SplineSet
1245 1556 m 1,0,-1
 1214 1403 l 1,1,-1
 1006 1403 l 2,2,3
 911 1403 911 1403 863 1361.5 c 128,-1,4
 815 1320 815 1320 795 1219 c 2,5,-1
 774 1120 l 1,6,-1
 1159 1120 l 1,7,-1
 1133 977 l 1,8,-1
 748 977 l 1,9,-1
 557 0 l 1,10,-1
 373 0 l 1,11,-1
 563 977 l 1,12,-1
 264 977 l 1,13,-1
 293 1120 l 1,14,-1
 590 1120 l 1,15,-1
 606 1198 l 2,16,17
 644 1391 644 1391 740.5 1473.5 c 128,-1,18
 837 1556 837 1556 1024 1556 c 2,19,-1
 1245 1556 l 1,0,-1
EndSplineSet
EndChar

StartChar: g
Encoding: 103 103 74
Width: 1233
GlyphClass: 2
Flags: W
LayerCount: 2
Fore
SplineSet
512 145 m 0,0,1
 591 145 591 145 657.5 190 c 128,-1,2
 724 235 724 235 770 319 c 0,3,4
 819 409 819 409 846.5 521 c 128,-1,5
 874 633 874 633 874 739 c 0,6,7
 874 858 874 858 818 924.5 c 128,-1,8
 762 991 762 991 662 991 c 0,9,10
 508 991 508 991 402.5 822.5 c 128,-1,11
 297 654 297 654 297 399 c 0,12,13
 297 280 297 280 354 212.5 c 128,-1,14
 411 145 411 145 512 145 c 0,0,1
942 72 m 2,15,16
 889 -199 889 -199 755.5 -319.5 c 128,-1,17
 622 -440 622 -440 375 -440 c 0,18,19
 293 -440 293 -440 213.5 -426 c 128,-1,20
 134 -412 134 -412 59 -385 c 1,21,-1
 96 -203 l 1,22,23
 169 -247 169 -247 247.5 -270 c 128,-1,24
 326 -293 326 -293 406 -293 c 0,25,26
 555 -293 555 -293 637 -213 c 128,-1,27
 719 -133 719 -133 756 53 c 2,28,-1
 780 170 l 1,29,30
 722 83 722 83 635 37.5 c 128,-1,31
 548 -8 548 -8 438 -8 c 0,32,33
 284 -8 284 -8 193 99.5 c 128,-1,34
 102 207 102 207 102 391 c 0,35,36
 102 530 102 530 142 667.5 c 128,-1,37
 182 805 182 805 254 911 c 0,38,39
 328 1023 328 1023 432 1085 c 128,-1,40
 536 1147 536 1147 647 1147 c 0,41,42
 748 1147 748 1147 824 1098.5 c 128,-1,43
 900 1050 900 1050 934 965 c 1,44,-1
 961 1116 l 1,45,-1
 1145 1116 l 1,46,-1
 942 72 l 2,15,16
EndSplineSet
EndChar

StartChar: h
Encoding: 104 104 75
Width: 1233
GlyphClass: 2
Flags: W
LayerCount: 2
Fore
SplineSet
1075 694 m 2,0,-1
 940 0 l 1,1,-1
 756 0 l 1,2,-1
 891 695 l 2,3,4
 892 699 892 699 894 709 c 0,5,6
 909 780 909 780 909 819 c 0,7,8
 909 900 909 900 862.5 943.5 c 128,-1,9
 816 987 816 987 729 987 c 0,10,11
 602 987 602 987 513 894 c 128,-1,12
 424 801 424 801 391 633 c 2,13,-1
 268 0 l 1,14,-1
 84 0 l 1,15,-1
 387 1556 l 1,16,-1
 571 1556 l 1,17,-1
 455 952 l 1,18,19
 530 1049 530 1049 617.5 1098 c 128,-1,20
 705 1147 705 1147 803 1147 c 0,21,22
 942 1147 942 1147 1019 1074.5 c 128,-1,23
 1096 1002 1096 1002 1096 872 c 0,24,25
 1096 840 1096 840 1090.5 793 c 128,-1,26
 1085 746 1085 746 1075 694 c 2,0,-1
EndSplineSet
EndChar

StartChar: i
Encoding: 105 105 76
Width: 1233
GlyphClass: 2
Flags: W
LayerCount: 2
Fore
SplineSet
358 1120 m 1,0,-1
 829 1120 l 1,1,-1
 639 143 l 1,2,-1
 1004 143 l 1,3,-1
 975 0 l 1,4,-1
 61 0 l 1,5,-1
 90 143 l 1,6,-1
 455 143 l 1,7,-1
 616 977 l 1,8,-1
 330 977 l 1,9,-1
 358 1120 l 1,0,-1
729 1556 m 1,10,-1
 913 1556 l 1,11,-1
 868 1323 l 1,12,-1
 684 1323 l 1,13,-1
 729 1556 l 1,10,-1
EndSplineSet
EndChar

StartChar: j
Encoding: 106 106 77
Width: 1233
GlyphClass: 2
Flags: W
LayerCount: 2
Fore
SplineSet
498 -20 m 2,0,-1
 690 977 l 1,1,-1
 373 977 l 1,2,-1
 401 1120 l 1,3,-1
 903 1120 l 1,4,-1
 682 -20 l 2,5,6
 641 -233 641 -233 540 -329.5 c 128,-1,7
 439 -426 439 -426 258 -426 c 2,8,-1
 4 -426 l 1,9,-1
 35 -270 l 1,10,-1
 268 -270 l 2,11,12
 363 -270 363 -270 418 -210.5 c 128,-1,13
 473 -151 473 -151 498 -20 c 2,0,-1
803 1556 m 1,14,-1
 987 1556 l 1,15,-1
 942 1323 l 1,16,-1
 758 1323 l 1,17,-1
 803 1556 l 1,14,-1
EndSplineSet
EndChar

StartChar: k
Encoding: 107 107 78
Width: 1233
GlyphClass: 2
Flags: W
LayerCount: 2
Fore
SplineSet
393 1556 m 1,0,-1
 584 1556 l 1,1,-1
 414 682 l 1,2,-1
 963 1120 l 1,3,-1
 1204 1120 l 1,4,-1
 684 698 l 1,5,-1
 1057 0 l 1,6,-1
 844 0 l 1,7,-1
 537 582 l 1,8,-1
 369 449 l 1,9,-1
 281 0 l 1,10,-1
 90 0 l 1,11,-1
 393 1556 l 1,0,-1
EndSplineSet
EndChar

StartChar: l
Encoding: 108 108 79
Width: 1233
GlyphClass: 2
Flags: W
LayerCount: 2
Fore
SplineSet
600 408 m 2,0,1
 593 373 593 373 589.5 346 c 128,-1,2
 586 319 586 319 586 301 c 0,3,4
 586 228 586 228 630.5 192 c 128,-1,5
 675 156 675 156 766 156 c 2,6,-1
 977 156 l 1,7,-1
 946 0 l 1,8,-1
 739 0 l 2,9,10
 566 0 566 0 481.5 63.5 c 128,-1,11
 397 127 397 127 397 258 c 0,12,13
 397 286 397 286 402 326 c 128,-1,14
 407 366 407 366 416 412 c 2,15,-1
 627 1423 l 1,16,-1
 311 1423 l 1,17,-1
 340 1567 l 1,18,-1
 840 1567 l 1,19,-1
 600 408 l 2,0,1
EndSplineSet
EndChar

StartChar: m
Encoding: 109 109 80
Width: 1233
GlyphClass: 2
Flags: W
LayerCount: 2
Fore
SplineSet
748 1006 m 1,0,1
 787 1074 787 1074 849.5 1110.5 c 128,-1,2
 912 1147 912 1147 989 1147 c 0,3,4
 1075 1147 1075 1147 1126.5 1092.5 c 128,-1,5
 1178 1038 1178 1038 1178 946 c 0,6,7
 1178 892 1178 892 1169 824 c 128,-1,8
 1160 756 1160 756 1139 649 c 2,9,-1
 1012 0 l 1,10,-1
 844 0 l 1,11,-1
 969 641 l 2,12,13
 987 733 987 733 996.5 791.5 c 128,-1,14
 1006 850 1006 850 1006 874 c 0,15,16
 1006 937 1006 937 983 965 c 128,-1,17
 960 993 960 993 909 993 c 0,18,19
 834 993 834 993 792 928.5 c 128,-1,20
 750 864 750 864 707 641 c 2,21,-1
 582 0 l 1,22,-1
 414 0 l 1,23,-1
 539 641 l 2,24,25
 558 738 558 738 566.5 794.5 c 128,-1,26
 575 851 575 851 575 874 c 0,27,28
 575 935 575 935 551.5 964 c 128,-1,29
 528 993 528 993 479 993 c 0,30,31
 405 993 405 993 364.5 933.5 c 128,-1,32
 324 874 324 874 279 641 c 2,33,-1
 154 0 l 1,34,-1
 -14 0 l 1,35,-1
 203 1120 l 1,36,-1
 371 1120 l 1,37,-1
 352 1024 l 1,38,39
 396 1084 396 1084 451.5 1115.5 c 128,-1,40
 507 1147 507 1147 571 1147 c 0,41,42
 646 1147 646 1147 692 1109.5 c 128,-1,43
 738 1072 738 1072 748 1006 c 1,0,1
EndSplineSet
EndChar

StartChar: n
Encoding: 110 110 81
Width: 1233
GlyphClass: 2
Flags: W
LayerCount: 2
Fore
SplineSet
1075 694 m 2,0,-1
 940 0 l 1,1,-1
 756 0 l 1,2,-1
 891 695 l 2,3,4
 892 699 892 699 894 709 c 0,5,6
 909 780 909 780 909 819 c 0,7,8
 909 900 909 900 862.5 943.5 c 128,-1,9
 816 987 816 987 729 987 c 0,10,11
 602 987 602 987 513 894 c 128,-1,12
 424 801 424 801 391 633 c 2,13,-1
 268 0 l 1,14,-1
 84 0 l 1,15,-1
 303 1120 l 1,16,-1
 487 1120 l 1,17,-1
 455 952 l 1,18,19
 530 1049 530 1049 617.5 1098 c 128,-1,20
 705 1147 705 1147 803 1147 c 0,21,22
 942 1147 942 1147 1019 1074.5 c 128,-1,23
 1096 1002 1096 1002 1096 872 c 0,24,25
 1096 840 1096 840 1090.5 793 c 128,-1,26
 1085 746 1085 746 1075 694 c 2,0,-1
EndSplineSet
EndChar

StartChar: o
Encoding: 111 111 82
Width: 1233
GlyphClass: 2
Flags: W
LayerCount: 2
Fore
SplineSet
696 991 m 0,0,1
 532 991 532 991 422.5 820 c 128,-1,2
 313 649 313 649 313 385 c 0,3,4
 313 256 313 256 369 191.5 c 128,-1,5
 425 127 425 127 537 127 c 0,6,7
 701 127 701 127 810.5 298 c 128,-1,8
 920 469 920 469 920 733 c 0,9,10
 920 862 920 862 864 926.5 c 128,-1,11
 808 991 808 991 696 991 c 0,0,1
713 1147 m 0,12,13
 909 1147 909 1147 1011.5 1040 c 128,-1,14
 1114 933 1114 933 1114 727 c 0,15,16
 1114 589 1114 589 1073 452.5 c 128,-1,17
 1032 316 1032 316 958 207 c 0,18,19
 879 89 879 89 766 30 c 128,-1,20
 653 -29 653 -29 506 -29 c 0,21,22
 319 -29 319 -29 218 80.5 c 128,-1,23
 117 190 117 190 117 393 c 0,24,25
 117 528 117 528 158 663 c 128,-1,26
 199 798 199 798 274 911 c 0,27,28
 353 1027 353 1027 464.5 1087 c 128,-1,29
 576 1147 576 1147 713 1147 c 0,12,13
EndSplineSet
EndChar

StartChar: p
Encoding: 112 112 83
Width: 1233
GlyphClass: 2
Flags: W
LayerCount: 2
Fore
SplineSet
293 141 m 1,0,-1
 182 -426 l 1,1,-1
 -2 -426 l 1,2,-1
 299 1120 l 1,3,-1
 483 1120 l 1,4,-1
 455 977 l 1,5,6
 516 1059 516 1059 602 1103 c 128,-1,7
 688 1147 688 1147 788 1147 c 0,8,9
 950 1147 950 1147 1039 1043 c 128,-1,10
 1128 939 1128 939 1128 752 c 0,11,12
 1128 609 1128 609 1088.5 465 c 128,-1,13
 1049 321 1049 321 979 211 c 0,14,15
 904 93 904 93 802 32 c 128,-1,16
 700 -29 700 -29 578 -29 c 0,17,18
 478 -29 478 -29 407.5 13 c 128,-1,19
 337 55 337 55 293 141 c 1,0,-1
569 127 m 0,20,21
 650 127 650 127 717 171.5 c 128,-1,22
 784 216 784 216 829 301 c 0,23,24
 878 393 878 393 906 508.5 c 128,-1,25
 934 624 934 624 934 737 c 0,26,27
 934 864 934 864 882.5 927.5 c 128,-1,28
 831 991 831 991 729 991 c 0,29,30
 644 991 644 991 575.5 946 c 128,-1,31
 507 901 507 901 459 813 c 0,32,33
 410 725 410 725 382 611 c 128,-1,34
 354 497 354 497 354 383 c 0,35,36
 354 260 354 260 410 193.5 c 128,-1,37
 466 127 466 127 569 127 c 0,20,21
EndSplineSet
EndChar

StartChar: q
Encoding: 113 113 84
Width: 1233
GlyphClass: 2
Flags: W
LayerCount: 2
Fore
SplineSet
774 141 m 1,0,1
 713 57 713 57 630.5 14 c 128,-1,2
 548 -29 548 -29 446 -29 c 0,3,4
 282 -29 282 -29 190 74.5 c 128,-1,5
 98 178 98 178 98 365 c 0,6,7
 98 507 98 507 139 652 c 128,-1,8
 180 797 180 797 252 909 c 0,9,10
 327 1027 327 1027 431.5 1087 c 128,-1,11
 536 1147 536 1147 666 1147 c 0,12,13
 766 1147 766 1147 833.5 1104.5 c 128,-1,14
 901 1062 901 1062 936 977 c 1,15,-1
 963 1120 l 1,16,-1
 1147 1120 l 1,17,-1
 848 -426 l 1,18,-1
 664 -426 l 1,19,-1
 774 141 l 1,0,1
668 991 m 0,20,21
 583 991 583 991 515 947 c 128,-1,22
 447 903 447 903 401 817 c 0,23,24
 352 723 352 723 323.5 607 c 128,-1,25
 295 491 295 491 295 383 c 0,26,27
 295 255 295 255 345.5 191 c 128,-1,28
 396 127 396 127 498 127 c 0,29,30
 580 127 580 127 649 172.5 c 128,-1,31
 718 218 718 218 768 305 c 0,32,33
 816 390 816 390 845 507.5 c 128,-1,34
 874 625 874 625 874 737 c 0,35,36
 874 860 874 860 820.5 925.5 c 128,-1,37
 767 991 767 991 668 991 c 0,20,21
EndSplineSet
EndChar

StartChar: r
Encoding: 114 114 85
Width: 1233
GlyphClass: 2
Flags: W
LayerCount: 2
Fore
SplineSet
1184 889 m 1,0,1
 1139 933 1139 933 1079.5 955 c 128,-1,2
 1020 977 1020 977 944 977 c 0,3,4
 780 977 780 977 663 862.5 c 128,-1,5
 546 748 546 748 508 549 c 2,6,-1
 401 0 l 1,7,-1
 217 0 l 1,8,-1
 434 1120 l 1,9,-1
 618 1120 l 1,10,-1
 578 901 l 1,11,12
 645 1021 645 1021 751.5 1084 c 128,-1,13
 858 1147 858 1147 993 1147 c 0,14,15
 1064 1147 1064 1147 1121.5 1128.5 c 128,-1,16
 1179 1110 1179 1110 1219 1075 c 1,17,-1
 1184 889 l 1,0,1
EndSplineSet
EndChar

StartChar: s
Encoding: 115 115 86
Width: 1233
GlyphClass: 2
Flags: W
LayerCount: 2
Fore
SplineSet
1077 1081 m 1,0,-1
 1042 901 l 1,1,2
 971 946 971 946 892.5 969.5 c 128,-1,3
 814 993 814 993 737 993 c 0,4,5
 600 993 600 993 524.5 942 c 128,-1,6
 449 891 449 891 449 799 c 0,7,8
 449 701 449 701 670 645 c 0,9,10
 685 641 685 641 692 639 c 2,11,-1
 764 621 l 2,12,13
 881 590 881 590 939 528.5 c 128,-1,14
 997 467 997 467 997 375 c 0,15,16
 997 194 997 194 853 82.5 c 128,-1,17
 709 -29 709 -29 471 -29 c 0,18,19
 390 -29 390 -29 302 -11.5 c 128,-1,20
 214 6 214 6 115 41 c 1,21,-1
 152 231 l 1,22,23
 246 178 246 178 334.5 151.5 c 128,-1,24
 423 125 423 125 506 125 c 0,25,26
 639 125 639 125 723 184.5 c 128,-1,27
 807 244 807 244 807 336 c 0,28,29
 807 435 807 435 611 487 c 0,30,31
 593 491 593 491 583 494 c 2,32,-1
 516 512 l 2,33,34
 387 545 387 545 326.5 609 c 128,-1,35
 266 673 266 673 266 776 c 0,36,37
 266 946 266 946 398 1046.5 c 128,-1,38
 530 1147 530 1147 754 1147 c 0,39,40
 842 1147 842 1147 923 1130.5 c 128,-1,41
 1004 1114 1004 1114 1077 1081 c 1,0,-1
EndSplineSet
EndChar

StartChar: t
Encoding: 116 116 87
Width: 1233
GlyphClass: 2
Flags: W
LayerCount: 2
Fore
SplineSet
768 1438 m 1,0,-1
 707 1120 l 1,1,-1
 1124 1120 l 1,2,-1
 1096 977 l 1,3,-1
 678 977 l 1,4,-1
 559 369 l 2,5,6
 553 339 553 339 550 313.5 c 128,-1,7
 547 288 547 288 547 266 c 0,8,9
 547 200 547 200 586 173.5 c 128,-1,10
 625 147 625 147 727 147 c 2,11,-1
 934 147 l 1,12,-1
 905 0 l 1,13,-1
 682 0 l 2,14,15
 515 0 515 0 436.5 55.5 c 128,-1,16
 358 111 358 111 358 229 c 0,17,18
 358 254 358 254 362 288 c 128,-1,19
 366 322 366 322 375 369 c 2,20,-1
 494 977 l 1,21,-1
 195 977 l 1,22,-1
 223 1120 l 1,23,-1
 522 1120 l 1,24,-1
 584 1438 l 1,25,-1
 768 1438 l 1,0,-1
EndSplineSet
EndChar

StartChar: u
Encoding: 117 117 88
Width: 1233
GlyphClass: 2
Flags: W
LayerCount: 2
Fore
SplineSet
143 426 m 2,0,-1
 276 1120 l 1,1,-1
 461 1120 l 1,2,-1
 326 426 l 2,3,4
 319 389 319 389 315 355 c 128,-1,5
 311 321 311 321 311 297 c 0,6,7
 311 218 311 218 357.5 175.5 c 128,-1,8
 404 133 404 133 489 133 c 0,9,10
 616 133 616 133 704 225.5 c 128,-1,11
 792 318 792 318 825 487 c 2,12,-1
 948 1120 l 1,13,-1
 1133 1120 l 1,14,-1
 915 0 l 1,15,-1
 731 0 l 1,16,-1
 764 168 l 1,17,18
 691 70 691 70 602 21.5 c 128,-1,19
 513 -27 513 -27 408 -27 c 0,20,21
 277 -27 277 -27 201 46.5 c 128,-1,22
 125 120 125 120 125 246 c 0,23,24
 125 285 125 285 129.5 331.5 c 128,-1,25
 134 378 134 378 143 426 c 2,0,-1
EndSplineSet
EndChar

StartChar: v
Encoding: 118 118 89
Width: 1233
GlyphClass: 2
Flags: W
LayerCount: 2
Fore
SplineSet
182 1120 m 1,0,-1
 360 1120 l 1,1,-1
 514 164 l 1,2,-1
 1016 1120 l 1,3,-1
 1214 1120 l 1,4,-1
 600 0 l 1,5,-1
 362 0 l 1,6,-1
 182 1120 l 1,0,-1
EndSplineSet
EndChar

StartChar: w
Encoding: 119 119 90
Width: 1233
GlyphClass: 2
Flags: W
LayerCount: 2
Fore
SplineSet
92 1120 m 1,0,-1
 268 1120 l 1,1,-1
 283 215 l 1,2,-1
 551 793 l 1,3,-1
 713 793 l 1,4,-1
 762 215 l 1,5,-1
 1124 1120 l 1,6,-1
 1315 1120 l 1,7,-1
 829 0 l 1,8,-1
 664 0 l 1,9,-1
 604 623 l 1,10,-1
 307 0 l 1,11,-1
 141 0 l 1,12,-1
 92 1120 l 1,0,-1
EndSplineSet
EndChar

StartChar: x
Encoding: 120 120 91
Width: 1233
GlyphClass: 2
Flags: W
LayerCount: 2
Fore
SplineSet
1208 1120 m 1,0,-1
 696 573 l 1,1,-1
 1014 0 l 1,2,-1
 817 0 l 1,3,-1
 573 444 l 1,4,-1
 156 0 l 1,5,-1
 -70 0 l 1,6,-1
 494 596 l 1,7,-1
 201 1120 l 1,8,-1
 397 1120 l 1,9,-1
 614 725 l 1,10,-1
 983 1120 l 1,11,-1
 1208 1120 l 1,0,-1
EndSplineSet
EndChar

StartChar: y
Encoding: 121 121 92
Width: 1233
GlyphClass: 2
Flags: W
LayerCount: 2
Fore
SplineSet
786 360 m 2,0,1
 724 253 724 253 621 72 c 0,2,3
 466 -203 466 -203 412 -276 c 0,4,5
 354 -352 354 -352 279.5 -389 c 128,-1,6
 205 -426 205 -426 109 -426 c 2,7,-1
 -39 -426 l 1,8,-1
 -10 -272 l 1,9,-1
 98 -272 l 2,10,11
 179 -272 179 -272 237.5 -225.5 c 128,-1,12
 296 -179 296 -179 356 -66 c 2,13,-1
 399 18 l 1,14,-1
 182 1120 l 1,15,-1
 365 1120 l 1,16,-1
 537 258 l 1,17,-1
 1020 1120 l 1,18,-1
 1225 1120 l 1,19,-1
 786 360 l 2,0,1
EndSplineSet
EndChar

StartChar: z
Encoding: 122 122 93
Width: 1233
GlyphClass: 2
Flags: W
LayerCount: 2
Fore
SplineSet
319 1120 m 1,0,-1
 1133 1120 l 1,1,-1
 1100 952 l 1,2,-1
 315 147 l 1,3,-1
 944 147 l 1,4,-1
 915 0 l 1,5,-1
 78 0 l 1,6,-1
 111 168 l 1,7,-1
 895 973 l 1,8,-1
 291 973 l 1,9,-1
 319 1120 l 1,0,-1
EndSplineSet
EndChar

StartChar: braceleft
Encoding: 123 123 94
Width: 1233
GlyphClass: 2
Flags: W
LayerCount: 2
Fore
SplineSet
1176 1556 m 1,0,-1
 1147 1413 l 1,1,-1
 1069 1413 l 2,2,3
 933 1413 933 1413 886 1373.5 c 128,-1,4
 839 1334 839 1334 809 1184 c 2,5,-1
 758 932 l 2,6,7
 725 772 725 772 665 699.5 c 128,-1,8
 605 627 605 627 494 606 c 1,9,10
 567 588 567 588 607 536.5 c 128,-1,11
 647 485 647 485 647 410 c 0,12,13
 647 385 647 385 643.5 353 c 128,-1,14
 640 321 640 321 633 283 c 2,15,-1
 586 39 l 2,16,17
 580 6 580 6 578 -19.5 c 128,-1,18
 576 -45 576 -45 575 -70 c 0,19,20
 575 -133 575 -133 618 -161.5 c 128,-1,21
 661 -190 661 -190 758 -190 c 2,22,-1
 836 -190 l 1,23,-1
 807 -334 l 1,24,-1
 735 -334 l 2,25,26
 548 -334 548 -334 466.5 -279.5 c 128,-1,27
 385 -225 385 -225 385 -102 c 0,28,29
 385 -71 385 -71 388.5 -37 c 128,-1,30
 392 -3 392 -3 399 34 c 2,31,-1
 444 270 l 2,32,33
 445 273 445 273 447 282 c 0,34,35
 457 332 457 332 457 377 c 0,36,37
 457 462 457 462 408 499.5 c 128,-1,38
 359 537 359 537 246 537 c 2,39,-1
 184 537 l 1,40,-1
 213 684 l 1,41,-1
 274 684 l 2,42,43
 419 684 419 684 482 739 c 128,-1,44
 545 794 545 794 575 944 c 2,45,-1
 625 1188 l 2,46,47
 650 1311 650 1311 686 1382.5 c 128,-1,48
 722 1454 722 1454 776 1493 c 0,49,50
 823 1527 823 1527 892 1541.5 c 128,-1,51
 961 1556 961 1556 1094 1556 c 2,52,-1
 1176 1556 l 1,0,-1
EndSplineSet
EndChar

StartChar: bar
Encoding: 124 124 95
Width: 1233
GlyphClass: 2
Flags: W
LayerCount: 2
Fore
SplineSet
700 1556 m 1,0,-1
 700 -492 l 1,1,-1
 530 -492 l 1,2,-1
 530 1556 l 1,3,-1
 700 1556 l 1,0,-1
EndSplineSet
EndChar

StartChar: braceright
Encoding: 125 125 96
Width: 1233
GlyphClass: 2
Flags: W
LayerCount: 2
Fore
SplineSet
-14 -334 m 1,0,-1
 14 -190 l 1,1,-1
 92 -190 l 2,2,3
 228 -190 228 -190 275 -150.5 c 128,-1,4
 322 -111 322 -111 352 39 c 2,5,-1
 403 291 l 2,6,7
 436 451 436 451 496 523.5 c 128,-1,8
 556 596 556 596 668 616 c 1,9,10
 594 635 594 635 554 686 c 128,-1,11
 514 737 514 737 514 813 c 0,12,13
 514 837 514 837 517.5 869.5 c 128,-1,14
 521 902 521 902 528 940 c 2,15,-1
 575 1183 l 2,16,17
 581 1217 581 1217 583.5 1242.5 c 128,-1,18
 586 1268 586 1268 586 1292 c 0,19,20
 586 1356 586 1356 543.5 1384.5 c 128,-1,21
 501 1413 501 1413 403 1413 c 2,22,-1
 326 1413 l 1,23,-1
 352 1556 l 1,24,-1
 426 1556 l 2,25,26
 614 1556 614 1556 695 1502 c 128,-1,27
 776 1448 776 1448 776 1325 c 0,28,29
 776 1293 776 1293 772.5 1259 c 128,-1,30
 769 1225 769 1225 762 1188 c 2,31,-1
 717 952 l 2,32,33
 716 949 716 949 715 940 c 0,34,35
 705 891 705 891 705 846 c 0,36,37
 705 760 705 760 754 723 c 128,-1,38
 803 686 803 686 915 686 c 2,39,-1
 977 686 l 1,40,-1
 948 539 l 1,41,-1
 887 539 l 2,42,43
 743 539 743 539 679.5 484 c 128,-1,44
 616 429 616 429 584 279 c 2,45,-1
 537 35 l 2,46,47
 511 -89 511 -89 475 -160 c 128,-1,48
 439 -231 439 -231 385 -270 c 0,49,50
 338 -304 338 -304 269 -319 c 128,-1,51
 200 -334 200 -334 68 -334 c 2,52,-1
 -14 -334 l 1,0,-1
EndSplineSet
EndChar

StartChar: asciitilde
Encoding: 126 126 97
Width: 1233
GlyphClass: 2
Flags: W
LayerCount: 2
Fore
SplineSet
1120 804 m 1,0,-1
 1232 716 l 1,1,2
 1104 520 1104 520 1006 448.5 c 128,-1,3
 908 377 908 377 820 377 c 1,4,5
 681 385 681 385 598 522.5 c 128,-1,6
 515 660 515 660 481 717.5 c 128,-1,7
 447 775 447 775 374 774 c 0,8,9
 297 774 297 774 241.5 701.5 c 128,-1,10
 186 629 186 629 118 517 c 1,11,-1
 2 593 l 1,12,13
 99 778 99 778 209.5 866 c 128,-1,14
 320 954 320 954 413 954 c 0,15,16
 583 956 583 956 673.5 754 c 128,-1,17
 764 552 764 552 857 552 c 0,18,19
 936 552 936 552 1004.5 638.5 c 128,-1,20
 1073 725 1073 725 1120 804 c 1,0,-1
EndSplineSet
EndChar

StartChar: exclamdown
Encoding: 161 161 99
Width: 1233
GlyphClass: 2
Flags: W
LayerCount: 2
Fore
SplineSet
834 1239 m 1,0,-1
 631 1239 l 1,1,-1
 680 1493 l 1,2,-1
 883 1493 l 1,3,-1
 834 1239 l 1,0,-1
592 0 m 1,4,-1
 389 0 l 1,5,-1
 518 655 l 1,6,-1
 606 1012 l 1,7,-1
 768 1012 l 1,8,-1
 719 655 l 1,9,-1
 592 0 l 1,4,-1
EndSplineSet
EndChar

StartChar: cent
Encoding: 162 162 100
Width: 1233
GlyphClass: 2
Flags: W
LayerCount: 2
Fore
SplineSet
1087 1077 m 1,0,-1
 1055 905 l 1,1,2
 1006 943 1006 943 944.5 965 c 128,-1,3
 883 987 883 987 811 993 c 1,4,-1
 641 123 l 1,5,6
 706 128 706 128 775.5 150.5 c 128,-1,7
 845 173 845 173 920 213 c 1,8,-1
 887 41 l 1,9,10
 812 10 812 10 743.5 -6.5 c 128,-1,11
 675 -23 675 -23 612 -27 c 1,12,-1
 557 -313 l 1,13,-1
 455 -313 l 1,14,-1
 510 -27 l 1,15,16
 327 -7 327 -7 225 114 c 128,-1,17
 123 235 123 235 123 430 c 0,18,19
 123 616 123 616 204 778 c 128,-1,20
 285 940 285 940 426 1036 c 0,21,22
 496 1085 496 1085 573.5 1112 c 128,-1,23
 651 1139 651 1139 737 1145 c 1,24,-1
 793 1432 l 1,25,-1
 895 1432 l 1,26,-1
 840 1145 l 1,27,28
 900 1142 900 1142 962.5 1125 c 128,-1,29
 1025 1108 1025 1108 1087 1077 c 1,0,-1
541 127 m 1,30,-1
 709 991 l 1,31,32
 544 976 544 976 429.5 811.5 c 128,-1,33
 315 647 315 647 315 422 c 0,34,35
 315 292 315 292 373.5 215.5 c 128,-1,36
 432 139 432 139 541 127 c 1,30,-1
EndSplineSet
EndChar

StartChar: sterling
Encoding: 163 163 101
Width: 1233
GlyphClass: 2
Flags: W
LayerCount: 2
Fore
SplineSet
1229 1462 m 1,0,-1
 1192 1278 l 1,1,2
 1138 1321 1138 1321 1077.5 1343.5 c 128,-1,3
 1017 1366 1017 1366 954 1366 c 0,4,5
 815 1366 815 1366 738 1281 c 128,-1,6
 661 1196 661 1196 623 995 c 2,7,-1
 580 778 l 1,8,-1
 950 778 l 1,9,-1
 922 635 l 1,10,-1
 551 635 l 1,11,-1
 461 170 l 1,12,-1
 997 170 l 1,13,-1
 965 0 l 1,14,-1
 -8 0 l 1,15,-1
 25 170 l 1,16,-1
 262 170 l 1,17,-1
 352 635 l 1,18,-1
 154 635 l 1,19,-1
 180 778 l 1,20,-1
 379 778 l 1,21,-1
 426 1016 l 2,22,23
 477 1276 477 1276 608 1398 c 128,-1,24
 739 1520 739 1520 967 1520 c 0,25,26
 1027 1520 1027 1520 1092 1505.5 c 128,-1,27
 1157 1491 1157 1491 1229 1462 c 1,0,-1
EndSplineSet
EndChar

StartChar: currency
Encoding: 164 164 102
Width: 1233
GlyphClass: 2
Flags: W
LayerCount: 2
Fore
SplineSet
866 644 m 0,0,1
 866 734 866 734 804.5 795 c 128,-1,2
 743 856 743 856 652 856 c 0,3,4
 562 856 562 856 500 795 c 128,-1,5
 438 734 438 734 438 644 c 0,6,7
 438 552 438 552 500 490 c 128,-1,8
 562 428 562 428 652 428 c 0,9,10
 743 428 743 428 804.5 490.5 c 128,-1,11
 866 553 866 553 866 644 c 0,0,1
842 924 m 1,12,-1
 1010 1090 l 1,13,-1
 1100 997 l 1,14,-1
 933 831 l 1,15,16
 964 782 964 782 978.5 736 c 128,-1,17
 993 690 993 690 993 642 c 0,18,19
 993 592 993 592 978 547 c 128,-1,20
 963 502 963 502 931 457 c 1,21,-1
 1100 289 l 1,22,-1
 1006 195 l 1,23,-1
 838 363 l 1,24,25
 792 331 792 331 747 316 c 128,-1,26
 702 301 702 301 652 301 c 0,27,28
 604 301 604 301 556.5 315.5 c 128,-1,29
 509 330 509 330 461 359 c 1,30,-1
 297 195 l 1,31,-1
 205 285 l 1,32,-1
 371 453 l 1,33,34
 340 504 340 504 325.5 550 c 128,-1,35
 311 596 311 596 311 642 c 0,36,37
 311 692 311 692 326.5 738 c 128,-1,38
 342 784 342 784 373 829 c 1,39,-1
 205 995 l 1,40,-1
 299 1090 l 1,41,-1
 465 922 l 1,42,43
 511 953 511 953 556 968 c 128,-1,44
 601 983 601 983 652 983 c 0,45,46
 698 983 698 983 744.5 968.5 c 128,-1,47
 791 954 791 954 842 924 c 1,12,-1
EndSplineSet
EndChar

StartChar: yen
Encoding: 165 165 103
Width: 1233
GlyphClass: 2
Flags: W
LayerCount: 2
Fore
SplineSet
1036 524 m 1,0,-1
 643 524 l 1,1,-1
 545 0 l 1,2,-1
 346 0 l 1,3,-1
 444 524 l 1,4,-1
 47 524 l 1,5,-1
 70 635 l 1,6,-1
 467 635 l 1,7,-1
 473 670 l 1,8,-1
 418 821 l 1,9,-1
 109 821 l 1,10,-1
 131 932 l 1,11,-1
 377 932 l 1,12,-1
 172 1493 l 1,13,-1
 379 1493 l 1,14,-1
 602 829 l 1,15,-1
 1061 1493 l 1,16,-1
 1272 1493 l 1,17,-1
 868 932 l 1,18,-1
 1120 932 l 1,19,-1
 1098 821 l 1,20,-1
 786 821 l 1,21,-1
 676 670 l 1,22,-1
 666 635 l 1,23,-1
 1059 635 l 1,24,-1
 1036 524 l 1,0,-1
EndSplineSet
EndChar

StartChar: brokenbar
Encoding: 166 166 104
Width: 1233
GlyphClass: 2
Flags: W
LayerCount: 2
Fore
SplineSet
700 1432 m 1,0,-1
 700 674 l 1,1,-1
 530 674 l 1,2,-1
 530 1432 l 1,3,-1
 700 1432 l 1,0,-1
700 408 m 1,4,-1
 700 -350 l 1,5,-1
 530 -350 l 1,6,-1
 530 408 l 1,7,-1
 700 408 l 1,4,-1
EndSplineSet
EndChar

StartChar: section
Encoding: 167 167 105
Width: 1233
GlyphClass: 2
Flags: W
LayerCount: 2
Fore
SplineSet
1069 1454 m 1,0,-1
 1036 1290 l 1,1,2
 965 1328 965 1328 896.5 1348 c 128,-1,3
 828 1368 828 1368 770 1368 c 0,4,5
 667 1368 667 1368 601 1319 c 128,-1,6
 535 1270 535 1270 535 1198 c 0,7,8
 535 1119 535 1119 669 1029 c 0,9,10
 700 1009 700 1009 717 997 c 2,11,-1
 803 938 l 2,12,13
 927 852 927 852 969.5 793.5 c 128,-1,14
 1012 735 1012 735 1012 666 c 0,15,16
 1012 565 1012 565 946 475 c 128,-1,17
 880 385 880 385 766 332 c 1,18,19
 807 297 807 297 827.5 252 c 128,-1,20
 848 207 848 207 848 152 c 0,21,22
 848 -5 848 -5 726.5 -103 c 128,-1,23
 605 -201 605 -201 406 -201 c 0,24,25
 336 -201 336 -201 259.5 -186.5 c 128,-1,26
 183 -172 183 -172 100 -143 c 1,27,-1
 133 18 l 1,28,29
 207 -18 207 -18 279 -37.5 c 128,-1,30
 351 -57 351 -57 412 -57 c 0,31,32
 524 -57 524 -57 590.5 -10 c 128,-1,33
 657 37 657 37 657 115 c 0,34,35
 657 213 657 213 474 337 c 2,36,-1
 461 346 l 1,37,-1
 387 397 l 2,38,39
 262 482 262 482 222 537.5 c 128,-1,40
 182 593 182 593 182 666 c 0,41,42
 182 762 182 762 246 848 c 128,-1,43
 310 934 310 934 428 997 c 1,44,45
 387 1034 387 1034 368.5 1074 c 128,-1,46
 350 1114 350 1114 350 1167 c 0,47,48
 350 1316 350 1316 470 1413.5 c 128,-1,49
 590 1511 590 1511 776 1511 c 0,50,51
 847 1511 847 1511 920.5 1497 c 128,-1,52
 994 1483 994 1483 1069 1454 c 1,0,-1
678 401 m 1,53,54
 762 452 762 452 806 507.5 c 128,-1,55
 850 563 850 563 850 618 c 0,56,57
 850 671 850 671 796.5 727 c 128,-1,58
 743 783 743 783 596 877 c 2,59,-1
 516 928 l 1,60,61
 434 876 434 876 391 820 c 128,-1,62
 348 764 348 764 348 709 c 0,63,64
 348 658 348 658 390.5 610 c 128,-1,65
 433 562 433 562 559 479 c 2,66,-1
 678 401 l 1,53,54
EndSplineSet
EndChar

StartChar: dieresis
Encoding: 168 168 106
Width: 1233
GlyphClass: 2
Flags: W
LayerCount: 2
Fore
SplineSet
475 1552 m 1,0,-1
 678 1552 l 1,1,-1
 639 1350 l 1,2,-1
 436 1350 l 1,3,-1
 475 1552 l 1,0,-1
866 1552 m 1,4,-1
 1069 1552 l 1,5,-1
 1030 1350 l 1,6,-1
 827 1350 l 1,7,-1
 866 1552 l 1,4,-1
EndSplineSet
EndChar

StartChar: copyright
Encoding: 169 169 107
Width: 1233
GlyphClass: 2
Flags: W
LayerCount: 2
Fore
SplineSet
864 1071 m 1,0,-1
 864 963 l 1,1,2
 806 991 806 991 750.5 1004.5 c 128,-1,3
 695 1018 695 1018 637 1018 c 0,4,5
 520 1018 520 1018 452.5 943.5 c 128,-1,6
 385 869 385 869 385 741 c 0,7,8
 385 609 385 609 455 538 c 128,-1,9
 525 467 525 467 655 467 c 0,10,11
 711 467 711 467 762.5 479.5 c 128,-1,12
 814 492 814 492 864 518 c 1,13,-1
 864 414 l 1,14,15
 812 391 812 391 755 380 c 128,-1,16
 698 369 698 369 637 369 c 0,17,18
 457 369 457 369 353.5 469 c 128,-1,19
 250 569 250 569 250 741 c 0,20,21
 250 914 250 914 354 1015 c 128,-1,22
 458 1116 458 1116 637 1116 c 0,23,24
 698 1116 698 1116 755 1105 c 128,-1,25
 812 1094 812 1094 864 1071 c 1,0,-1
616 1255 m 0,26,27
 510 1255 510 1255 419.5 1218 c 128,-1,28
 329 1181 329 1181 254 1106 c 256,29,30
 179 1031 179 1031 140.5 939 c 128,-1,31
 102 847 102 847 102 741 c 0,32,33
 102 637 102 637 140.5 545.5 c 128,-1,34
 179 454 179 454 254 379 c 0,35,36
 330 303 330 303 420.5 265 c 128,-1,37
 511 227 511 227 616 227 c 0,38,39
 722 227 722 227 812.5 265 c 128,-1,40
 903 303 903 303 979 379 c 256,41,42
 1055 455 1055 455 1092.5 545.5 c 128,-1,43
 1130 636 1130 636 1130 741 c 0,44,45
 1130 847 1130 847 1092 939 c 128,-1,46
 1054 1031 1054 1031 979 1106 c 256,47,48
 904 1181 904 1181 813.5 1218 c 128,-1,49
 723 1255 723 1255 616 1255 c 0,26,27
616 1358 m 0,50,51
 743 1358 743 1358 852 1313 c 128,-1,52
 961 1268 961 1268 1051 1178 c 0,53,54
 1141 1087 1141 1087 1187 977 c 128,-1,55
 1233 867 1233 867 1233 741 c 0,56,57
 1233 616 1233 616 1187.5 507 c 128,-1,58
 1142 398 1142 398 1051 307 c 256,59,60
 960 216 960 216 851 170.5 c 128,-1,61
 742 125 742 125 616 125 c 0,62,63
 491 125 491 125 382 170.5 c 128,-1,64
 273 216 273 216 182 307 c 256,65,66
 91 398 91 398 45.5 507 c 128,-1,67
 0 616 0 616 0 741 c 0,68,69
 0 867 0 867 46 977 c 128,-1,70
 92 1087 92 1087 182 1178 c 0,71,72
 272 1268 272 1268 381 1313 c 128,-1,73
 490 1358 490 1358 616 1358 c 0,50,51
EndSplineSet
EndChar

StartChar: ordfeminine
Encoding: 170 170 108
Width: 1233
GlyphClass: 2
Flags: W
LayerCount: 2
Fore
SplineSet
729 1104 m 2,0,1
 581 1104 581 1104 511.5 1064 c 128,-1,2
 442 1024 442 1024 442 938 c 0,3,4
 442 883 442 883 478.5 850 c 128,-1,5
 515 817 515 817 575 817 c 0,6,7
 686 817 686 817 761.5 884 c 128,-1,8
 837 951 837 951 864 1075 c 2,9,-1
 870 1104 l 1,10,-1
 729 1104 l 2,0,1
1026 1165 m 2,11,-1
 940 717 l 1,12,-1
 797 717 l 1,13,-1
 819 829 l 1,14,15
 766 766 766 766 692 732 c 128,-1,16
 618 698 618 698 532 698 c 0,17,18
 423 698 423 698 359 758 c 128,-1,19
 295 818 295 818 295 920 c 0,20,21
 295 1060 295 1060 406.5 1139.5 c 128,-1,22
 518 1219 518 1219 717 1219 c 2,23,-1
 891 1219 l 2,24,25
 891 1221 891 1221 892 1228 c 0,26,27
 895 1255 895 1255 895 1268 c 0,28,29
 895 1339 895 1339 851 1372 c 128,-1,30
 807 1405 807 1405 711 1405 c 0,31,32
 642 1405 642 1405 574 1388.5 c 128,-1,33
 506 1372 506 1372 434 1337 c 1,34,-1
 457 1464 l 1,35,36
 532 1492 532 1492 605 1506 c 128,-1,37
 678 1520 678 1520 743 1520 c 0,38,39
 891 1520 891 1520 963.5 1457.5 c 128,-1,40
 1036 1395 1036 1395 1036 1268 c 0,41,42
 1036 1245 1036 1245 1033.5 1219.5 c 128,-1,43
 1031 1194 1031 1194 1026 1165 c 2,11,-1
246 592 m 1,44,-1
 922 592 l 1,45,-1
 899 469 l 1,46,-1
 223 469 l 1,47,-1
 246 592 l 1,44,-1
EndSplineSet
EndChar

StartChar: guillemotleft
Encoding: 171 171 109
Width: 1233
GlyphClass: 2
Flags: W
LayerCount: 2
Fore
SplineSet
1106 1059 m 1,0,-1
 1063 848 l 1,1,-1
 713 584 l 1,2,-1
 963 317 l 1,3,-1
 928 141 l 1,4,-1
 541 559 l 1,5,-1
 557 641 l 1,6,-1
 1106 1059 l 1,0,-1
639 1059 m 1,7,-1
 596 848 l 1,8,-1
 246 584 l 1,9,-1
 496 317 l 1,10,-1
 461 141 l 1,11,-1
 74 559 l 1,12,-1
 90 641 l 1,13,-1
 639 1059 l 1,7,-1
EndSplineSet
EndChar

StartChar: logicalnot
Encoding: 172 172 110
Width: 1233
GlyphClass: 2
Flags: W
LayerCount: 2
Fore
SplineSet
88 862 m 1,0,-1
 1145 862 l 1,1,-1
 1145 371 l 1,2,-1
 977 371 l 1,3,-1
 977 690 l 1,4,-1
 88 690 l 1,5,-1
 88 862 l 1,0,-1
EndSplineSet
EndChar

StartChar: sfthyphen
Encoding: 173 173 111
Width: 1233
GlyphClass: 2
Flags: W
LayerCount: 2
Fore
SplineSet
137 724 m 1,0,-1
 1127 724 l 1,1,-1
 1092 555 l 1,2,-1
 102 555 l 1,3,-1
 137 724 l 1,0,-1
EndSplineSet
EndChar

StartChar: registered
Encoding: 174 174 112
Width: 1233
GlyphClass: 2
Flags: W
LayerCount: 2
Fore
SplineSet
600 1100 m 2,0,1
 747 1100 747 1100 819 1051 c 128,-1,2
 891 1002 891 1002 891 901 c 0,3,4
 891 830 891 830 847 783.5 c 128,-1,5
 803 737 803 737 723 723 c 1,6,7
 742 718 742 718 771 684.5 c 128,-1,8
 800 651 800 651 838 592 c 2,9,-1
 952 406 l 1,10,-1
 809 406 l 1,11,-1
 702 580 l 2,12,13
 653 660 653 660 622.5 681 c 128,-1,14
 592 702 592 702 547 702 c 2,15,-1
 492 702 l 1,16,-1
 492 406 l 1,17,-1
 362 406 l 1,18,-1
 362 1100 l 1,19,-1
 600 1100 l 2,0,1
594 1016 m 2,20,-1
 492 1016 l 1,21,-1
 492 784 l 1,22,-1
 594 784 l 2,23,24
 684 784 684 784 721 811 c 128,-1,25
 758 838 758 838 758 901 c 0,26,27
 758 963 758 963 721 989.5 c 128,-1,28
 684 1016 684 1016 594 1016 c 2,20,-1
616 1358 m 0,29,30
 743 1358 743 1358 852 1313 c 128,-1,31
 961 1268 961 1268 1051 1178 c 0,32,33
 1141 1087 1141 1087 1187 977 c 128,-1,34
 1233 867 1233 867 1233 741 c 0,35,36
 1233 616 1233 616 1187.5 507 c 128,-1,37
 1142 398 1142 398 1051 307 c 256,38,39
 960 216 960 216 851 170.5 c 128,-1,40
 742 125 742 125 616 125 c 0,41,42
 491 125 491 125 382 170.5 c 128,-1,43
 273 216 273 216 182 307 c 256,44,45
 91 398 91 398 45.5 507 c 128,-1,46
 0 616 0 616 0 741 c 0,47,48
 0 867 0 867 46 977 c 128,-1,49
 92 1087 92 1087 182 1178 c 0,50,51
 272 1268 272 1268 381 1313 c 128,-1,52
 490 1358 490 1358 616 1358 c 0,29,30
616 1255 m 0,53,54
 510 1255 510 1255 419.5 1218 c 128,-1,55
 329 1181 329 1181 254 1106 c 256,56,57
 179 1031 179 1031 140.5 939 c 128,-1,58
 102 847 102 847 102 741 c 0,59,60
 102 637 102 637 140.5 545.5 c 128,-1,61
 179 454 179 454 254 379 c 0,62,63
 330 303 330 303 420.5 265 c 128,-1,64
 511 227 511 227 616 227 c 0,65,66
 722 227 722 227 812.5 265 c 128,-1,67
 903 303 903 303 979 379 c 256,68,69
 1055 455 1055 455 1092.5 545.5 c 128,-1,70
 1130 636 1130 636 1130 741 c 0,71,72
 1130 847 1130 847 1092 939 c 128,-1,73
 1054 1031 1054 1031 979 1106 c 256,74,75
 904 1181 904 1181 813.5 1218 c 128,-1,76
 723 1255 723 1255 616 1255 c 0,53,54
EndSplineSet
EndChar

StartChar: macron
Encoding: 175 175 113
Width: 1233
GlyphClass: 2
Flags: W
LayerCount: 2
Fore
SplineSet
129 1526 m 1,0,-1
 1127 1526 l 1,1,-1
 1101 1378 l 1,2,-1
 103 1378 l 1,3,-1
 129 1526 l 1,0,-1
EndSplineSet
EndChar

StartChar: degree
Encoding: 176 176 114
Width: 1233
GlyphClass: 2
Flags: W
LayerCount: 2
Fore
SplineSet
616 1520 m 0,0,1
 681 1520 681 1520 739.5 1495.5 c 128,-1,2
 798 1471 798 1471 842 1425 c 0,3,4
 887 1380 887 1380 910.5 1323 c 128,-1,5
 934 1266 934 1266 934 1200 c 0,6,7
 934 1068 934 1068 841 976.5 c 128,-1,8
 748 885 748 885 614 885 c 0,9,10
 479 885 479 885 389 975 c 128,-1,11
 299 1065 299 1065 299 1200 c 0,12,13
 299 1334 299 1334 391 1427 c 128,-1,14
 483 1520 483 1520 616 1520 c 0,0,1
616 1391 m 256,15,16
 537 1391 537 1391 481.5 1335.5 c 128,-1,17
 426 1280 426 1280 426 1200 c 256,18,19
 426 1120 426 1120 480.5 1066 c 128,-1,20
 535 1012 535 1012 614 1012 c 0,21,22
 694 1012 694 1012 750.5 1067 c 128,-1,23
 807 1122 807 1122 807 1200 c 0,24,25
 807 1279 807 1279 751 1335 c 128,-1,26
 695 1391 695 1391 616 1391 c 256,15,16
EndSplineSet
EndChar

StartChar: plusminus
Encoding: 177 177 115
Width: 1233
GlyphClass: 2
Flags: W
LayerCount: 2
Fore
SplineSet
88 170 m 1,0,-1
 1145 170 l 1,1,-1
 1145 0 l 1,2,-1
 88 0 l 1,3,-1
 88 170 l 1,0,-1
700 1171 m 1,4,-1
 700 842 l 1,5,-1
 1145 842 l 1,6,-1
 1145 672 l 1,7,-1
 700 672 l 1,8,-1
 700 340 l 1,9,-1
 532 340 l 1,10,-1
 532 672 l 1,11,-1
 88 672 l 1,12,-1
 88 842 l 1,13,-1
 532 842 l 1,14,-1
 532 1171 l 1,15,-1
 700 1171 l 1,4,-1
EndSplineSet
EndChar

StartChar: twosuperior
Encoding: 178 178 116
Width: 1233
GlyphClass: 2
Flags: W
LayerCount: 2
Fore
SplineSet
492 782 m 1,0,-1
 887 782 l 1,1,-1
 864 668 l 1,2,-1
 307 668 l 1,3,-1
 328 778 l 1,4,-1
 498 918 l 1,5,-1
 531 945 l 2,6,7
 844 1198 844 1198 844 1303 c 0,8,9
 844 1354 844 1354 807 1384.5 c 128,-1,10
 770 1415 770 1415 707 1415 c 0,11,12
 656 1415 656 1415 595 1396.5 c 128,-1,13
 534 1378 534 1378 451 1337 c 1,14,-1
 475 1464 l 1,15,16
 559 1493 559 1493 621.5 1506.5 c 128,-1,17
 684 1520 684 1520 737 1520 c 0,18,19
 855 1520 855 1520 923 1464.5 c 128,-1,20
 991 1409 991 1409 991 1315 c 0,21,22
 991 1176 991 1176 682 933 c 1,23,-1
 662 918 l 1,24,-1
 492 782 l 1,0,-1
EndSplineSet
EndChar

StartChar: threesuperior
Encoding: 179 179 117
Width: 1233
GlyphClass: 2
Flags: W
LayerCount: 2
Fore
SplineSet
772 1116 m 1,0,1
 844 1104 844 1104 883 1058.5 c 128,-1,2
 922 1013 922 1013 922 942 c 0,3,4
 922 811 922 811 818 732 c 128,-1,5
 714 653 714 653 539 653 c 0,6,7
 473 653 473 653 409.5 663.5 c 128,-1,8
 346 674 346 674 287 694 c 1,9,-1
 311 815 l 1,10,11
 378 786 378 786 430 773 c 128,-1,12
 482 760 482 760 532 760 c 0,13,14
 644 760 644 760 709 806 c 128,-1,15
 774 852 774 852 774 930 c 0,16,17
 774 997 774 997 731.5 1029 c 128,-1,18
 689 1061 689 1061 600 1061 c 2,19,-1
 528 1061 l 1,20,-1
 549 1167 l 1,21,-1
 621 1167 l 2,22,23
 718 1167 718 1167 777 1207 c 128,-1,24
 836 1247 836 1247 836 1311 c 0,25,26
 836 1362 836 1362 793 1387.5 c 128,-1,27
 750 1413 750 1413 664 1413 c 0,28,29
 622 1413 622 1413 571.5 1402.5 c 128,-1,30
 521 1392 521 1392 461 1370 c 1,31,-1
 483 1485 l 1,32,33
 554 1502 554 1502 615 1511 c 128,-1,34
 676 1520 676 1520 731 1520 c 0,35,36
 852 1520 852 1520 917.5 1470 c 128,-1,37
 983 1420 983 1420 983 1329 c 0,38,39
 983 1250 983 1250 926 1192 c 128,-1,40
 869 1134 869 1134 772 1116 c 1,0,1
EndSplineSet
EndChar

StartChar: acute
Encoding: 180 180 118
Width: 1233
GlyphClass: 2
Flags: W
LayerCount: 2
Fore
SplineSet
907 1638 m 1,0,-1
 1126 1638 l 1,1,-1
 731 1262 l 1,2,-1
 575 1262 l 1,3,-1
 907 1638 l 1,0,-1
EndSplineSet
EndChar

StartChar: mu
Encoding: 181 181 119
Width: 1233
GlyphClass: 2
Flags: W
LayerCount: 2
Fore
SplineSet
-39 -426 m 1,0,-1
 262 1120 l 1,1,-1
 449 1120 l 1,2,-1
 313 424 l 2,3,4
 307 393 307 393 304 366 c 128,-1,5
 301 339 301 339 301 319 c 0,6,7
 301 228 301 228 355.5 179.5 c 128,-1,8
 410 131 410 131 512 131 c 0,9,10
 649 131 649 131 731 214 c 128,-1,11
 813 297 813 297 846 467 c 2,12,-1
 973 1120 l 1,13,-1
 1159 1120 l 1,14,-1
 991 258 l 2,15,16
 988 240 988 240 986.5 227 c 128,-1,17
 985 214 985 214 985 203 c 0,18,19
 985 173 985 173 997.5 157 c 128,-1,20
 1010 141 1010 141 1034 141 c 0,21,22
 1043 141 1043 141 1059 146 c 128,-1,23
 1075 151 1075 151 1106 164 c 1,24,-1
 1077 16 l 1,25,26
 1037 -6 1037 -6 1000 -17.5 c 128,-1,27
 963 -29 963 -29 930 -29 c 0,28,29
 863 -29 863 -29 823.5 13.5 c 128,-1,30
 784 56 784 56 784 129 c 1,31,32
 731 47 731 47 661.5 9 c 128,-1,33
 592 -29 592 -29 494 -29 c 0,34,35
 402 -29 402 -29 340 12.5 c 128,-1,36
 278 54 278 54 246 137 c 1,37,-1
 137 -426 l 1,38,-1
 -39 -426 l 1,0,-1
EndSplineSet
EndChar

StartChar: paragraph
Encoding: 182 182 120
Width: 1233
GlyphClass: 2
Flags: W
LayerCount: 2
Fore
SplineSet
735 1493 m 2,0,-1
 1141 1493 l 1,1,-1
 813 -197 l 1,2,-1
 674 -197 l 1,3,-1
 977 1370 l 1,4,-1
 786 1370 l 1,5,-1
 483 -197 l 1,6,-1
 342 -197 l 1,7,-1
 506 649 l 1,8,9
 329 653 329 653 227 748 c 128,-1,10
 125 843 125 843 125 1004 c 0,11,12
 125 1213 125 1213 298 1353 c 128,-1,13
 471 1493 471 1493 735 1493 c 2,0,-1
EndSplineSet
EndChar

StartChar: periodcentered
Encoding: 183 183 121
Width: 1233
GlyphClass: 2
Flags: W
LayerCount: 2
Fore
SplineSet
512 864 m 1,0,-1
 766 864 l 1,1,-1
 707 559 l 1,2,-1
 455 559 l 1,3,-1
 512 864 l 1,0,-1
EndSplineSet
EndChar

StartChar: cedilla
Encoding: 184 184 122
Width: 1233
GlyphClass: 2
Flags: W
LayerCount: 2
Fore
SplineSet
555 0 m 1,0,1
 592 -64 592 -64 609.5 -110.5 c 128,-1,2
 627 -157 627 -157 627 -193 c 0,3,4
 627 -286 627 -286 556.5 -340.5 c 128,-1,5
 486 -395 486 -395 367 -395 c 0,6,7
 323 -395 323 -395 276 -387.5 c 128,-1,8
 229 -380 229 -380 182 -365 c 1,9,-1
 207 -236 l 1,10,11
 247 -255 247 -255 283.5 -264.5 c 128,-1,12
 320 -274 320 -274 352 -274 c 0,13,14
 419 -274 419 -274 456.5 -244 c 128,-1,15
 494 -214 494 -214 494 -160 c 0,16,17
 494 -132 494 -132 479.5 -93 c 128,-1,18
 465 -54 465 -54 436 0 c 1,19,-1
 555 0 l 1,0,1
EndSplineSet
EndChar

StartChar: onesuperior
Encoding: 185 185 123
Width: 1233
GlyphClass: 2
Flags: W
LayerCount: 2
Fore
SplineSet
369 778 m 1,0,-1
 575 778 l 1,1,-1
 692 1389 l 1,2,-1
 461 1348 l 1,3,-1
 483 1464 l 1,4,-1
 721 1503 l 1,5,-1
 858 1503 l 1,6,-1
 717 778 l 1,7,-1
 922 778 l 1,8,-1
 901 668 l 1,9,-1
 348 668 l 1,10,-1
 369 778 l 1,0,-1
EndSplineSet
EndChar

StartChar: ordmasculine
Encoding: 186 186 124
Width: 1233
GlyphClass: 2
Flags: W
LayerCount: 2
Fore
SplineSet
633 698 m 0,0,1
 481 698 481 698 394 788.5 c 128,-1,2
 307 879 307 879 307 1036 c 0,3,4
 307 1123 307 1123 339.5 1212 c 128,-1,5
 372 1301 372 1301 428 1368 c 0,6,7
 489 1442 489 1442 570 1481 c 128,-1,8
 651 1520 651 1520 741 1520 c 0,9,10
 892 1520 892 1520 978.5 1429 c 128,-1,11
 1065 1338 1065 1338 1065 1180 c 0,12,13
 1065 1092 1065 1092 1033 1004 c 128,-1,14
 1001 916 1001 916 946 850 c 0,15,16
 885 776 885 776 804.5 737 c 128,-1,17
 724 698 724 698 633 698 c 0,0,1
463 1038 m 0,18,19
 463 933 463 933 512.5 873 c 128,-1,20
 562 813 562 813 649 813 c 0,21,22
 755 813 755 813 833 921 c 128,-1,23
 911 1029 911 1029 911 1180 c 0,24,25
 911 1285 911 1285 861.5 1345 c 128,-1,26
 812 1405 812 1405 725 1405 c 0,27,28
 618 1405 618 1405 540.5 1297.5 c 128,-1,29
 463 1190 463 1190 463 1038 c 0,18,19
246 592 m 1,30,-1
 922 592 l 1,31,-1
 899 469 l 1,32,-1
 223 469 l 1,33,-1
 246 592 l 1,30,-1
EndSplineSet
EndChar

StartChar: guillemotright
Encoding: 187 187 125
Width: 1233
GlyphClass: 2
Flags: W
LayerCount: 2
Fore
SplineSet
82 141 m 1,0,-1
 125 352 l 1,1,-1
 475 614 l 1,2,-1
 225 883 l 1,3,-1
 260 1059 l 1,4,-1
 647 641 l 1,5,-1
 633 559 l 1,6,-1
 82 141 l 1,0,-1
549 141 m 1,7,-1
 592 352 l 1,8,-1
 942 614 l 1,9,-1
 692 883 l 1,10,-1
 727 1059 l 1,11,-1
 1114 641 l 1,12,-1
 1100 559 l 1,13,-1
 549 141 l 1,7,-1
EndSplineSet
EndChar

StartChar: onequarter
Encoding: 188 188 126
Width: 1233
GlyphClass: 2
Flags: W
LayerCount: 2
Fore
SplineSet
901 566 m 1,0,-1
 1063 566 l 1,1,-1
 958 26 l 1,2,-1
 1075 26 l 1,3,-1
 1055 -85 l 1,4,-1
 936 -85 l 1,5,-1
 903 -269 l 1,6,-1
 764 -269 l 1,7,-1
 799 -85 l 1,8,-1
 413 -85 l 1,9,-1
 436 36 l 1,10,-1
 901 566 l 1,0,-1
897 417 m 1,11,-1
 555 26 l 1,12,-1
 821 26 l 1,13,-1
 897 417 l 1,11,-1
112 934 m 1,14,-1
 318 934 l 1,15,-1
 435 1545 l 1,16,-1
 204 1504 l 1,17,-1
 226 1620 l 1,18,-1
 464 1659 l 1,19,-1
 601 1659 l 1,20,-1
 460 934 l 1,21,-1
 665 934 l 1,22,-1
 644 824 l 1,23,-1
 91 824 l 1,24,-1
 112 934 l 1,14,-1
70 504 m 1,25,-1
 47 612 l 1,26,-1
 1106 870 l 1,27,-1
 1133 762 l 1,28,-1
 70 504 l 1,25,-1
EndSplineSet
EndChar

StartChar: onehalf
Encoding: 189 189 127
Width: 1233
GlyphClass: 2
Flags: W
LayerCount: 2
Fore
SplineSet
112 934 m 1,0,-1
 318 934 l 1,1,-1
 435 1545 l 1,2,-1
 204 1504 l 1,3,-1
 226 1620 l 1,4,-1
 464 1659 l 1,5,-1
 601 1659 l 1,6,-1
 460 934 l 1,7,-1
 665 934 l 1,8,-1
 644 824 l 1,9,-1
 91 824 l 1,10,-1
 112 934 l 1,0,-1
70 504 m 1,11,-1
 47 612 l 1,12,-1
 1106 870 l 1,13,-1
 1133 762 l 1,14,-1
 70 504 l 1,11,-1
646 -155 m 1,15,-1
 1041 -155 l 1,16,-1
 1018 -269 l 1,17,-1
 461 -269 l 1,18,-1
 482 -159 l 1,19,-1
 652 -19 l 1,20,-1
 685 8 l 2,21,22
 998 261 998 261 998 366 c 0,23,24
 998 417 998 417 961 447.5 c 128,-1,25
 924 478 924 478 861 478 c 0,26,27
 810 478 810 478 749 459.5 c 128,-1,28
 688 441 688 441 605 400 c 1,29,-1
 629 527 l 1,30,31
 713 556 713 556 775.5 569.5 c 128,-1,32
 838 583 838 583 891 583 c 0,33,34
 1009 583 1009 583 1077 527.5 c 128,-1,35
 1145 472 1145 472 1145 378 c 0,36,37
 1145 239 1145 239 836 -4 c 1,38,-1
 816 -19 l 1,39,-1
 646 -155 l 1,15,-1
EndSplineSet
EndChar

StartChar: threequarters
Encoding: 190 190 128
Width: 1233
GlyphClass: 2
Flags: W
LayerCount: 2
Fore
SplineSet
901 566 m 1,0,-1
 1063 566 l 1,1,-1
 958 26 l 1,2,-1
 1075 26 l 1,3,-1
 1055 -85 l 1,4,-1
 936 -85 l 1,5,-1
 903 -269 l 1,6,-1
 764 -269 l 1,7,-1
 799 -85 l 1,8,-1
 413 -85 l 1,9,-1
 436 36 l 1,10,-1
 901 566 l 1,0,-1
897 417 m 1,11,-1
 555 26 l 1,12,-1
 821 26 l 1,13,-1
 897 417 l 1,11,-1
546 1272 m 1,14,15
 618 1260 618 1260 657 1214.5 c 128,-1,16
 696 1169 696 1169 696 1098 c 0,17,18
 696 967 696 967 592 888 c 128,-1,19
 488 809 488 809 313 809 c 0,20,21
 247 809 247 809 183.5 819.5 c 128,-1,22
 120 830 120 830 61 850 c 1,23,-1
 85 971 l 1,24,25
 152 942 152 942 204 929 c 128,-1,26
 256 916 256 916 306 916 c 0,27,28
 418 916 418 916 483 962 c 128,-1,29
 548 1008 548 1008 548 1086 c 0,30,31
 548 1153 548 1153 505.5 1185 c 128,-1,32
 463 1217 463 1217 374 1217 c 2,33,-1
 302 1217 l 1,34,-1
 323 1323 l 1,35,-1
 395 1323 l 2,36,37
 492 1323 492 1323 551 1363 c 128,-1,38
 610 1403 610 1403 610 1467 c 0,39,40
 610 1518 610 1518 567 1543.5 c 128,-1,41
 524 1569 524 1569 438 1569 c 0,42,43
 396 1569 396 1569 345.5 1558.5 c 128,-1,44
 295 1548 295 1548 235 1526 c 1,45,-1
 257 1641 l 1,46,47
 328 1658 328 1658 389 1667 c 128,-1,48
 450 1676 450 1676 505 1676 c 0,49,50
 626 1676 626 1676 691.5 1626 c 128,-1,51
 757 1576 757 1576 757 1485 c 0,52,53
 757 1406 757 1406 700 1348 c 128,-1,54
 643 1290 643 1290 546 1272 c 1,14,15
70 504 m 1,55,-1
 47 612 l 1,56,-1
 1106 870 l 1,57,-1
 1133 762 l 1,58,-1
 70 504 l 1,55,-1
EndSplineSet
EndChar

StartChar: questiondown
Encoding: 191 191 129
Width: 1233
GlyphClass: 2
Flags: W
LayerCount: 2
Fore
SplineSet
655 1092 m 1,0,-1
 846 1092 l 1,1,-1
 817 938 l 2,2,3
 799 845 799 845 759 779.5 c 128,-1,4
 719 714 719 714 608 621 c 2,5,-1
 502 532 l 2,6,7
 417 460 417 460 381.5 404.5 c 128,-1,8
 346 349 346 349 346 293 c 0,9,10
 346 219 346 219 401.5 178 c 128,-1,11
 457 137 457 137 557 137 c 0,12,13
 636 137 636 137 734 172.5 c 128,-1,14
 832 208 832 208 938 274 c 1,15,-1
 901 86 l 1,16,17
 793 29 793 29 691.5 1 c 128,-1,18
 590 -27 590 -27 489 -27 c 0,19,20
 337 -27 337 -27 240 54.5 c 128,-1,21
 143 136 143 136 143 262 c 0,22,23
 143 356 143 356 192 436.5 c 128,-1,24
 241 517 241 517 371 625 c 2,25,-1
 475 711 l 2,26,27
 559 781 559 781 589.5 832 c 128,-1,28
 620 883 620 883 635 969 c 2,29,-1
 655 1092 l 1,0,-1
881 1239 m 1,30,-1
 678 1239 l 1,31,-1
 727 1493 l 1,32,-1
 930 1493 l 1,33,-1
 881 1239 l 1,30,-1
EndSplineSet
EndChar

StartChar: Agrave
Encoding: 192 192 130
Width: 1233
GlyphClass: 3
Flags: W
LayerCount: 2
Fore
SplineSet
735 1325 m 1,0,-1
 371 551 l 1,1,-1
 801 551 l 1,2,-1
 735 1325 l 1,0,-1
639 1493 m 1,3,-1
 885 1493 l 1,4,-1
 1051 0 l 1,5,-1
 850 0 l 1,6,-1
 815 389 l 1,7,-1
 295 389 l 1,8,-1
 111 0 l 1,9,-1
 -106 0 l 1,10,-1
 639 1493 l 1,3,-1
733 1899 m 1,11,-1
 880 1635 l 1,12,-1
 741 1635 l 1,13,-1
 551 1899 l 1,14,-1
 733 1899 l 1,11,-1
EndSplineSet
EndChar

StartChar: Aacute
Encoding: 193 193 131
Width: 1233
GlyphClass: 3
Flags: W
LayerCount: 2
Fore
SplineSet
735 1325 m 1,0,-1
 371 551 l 1,1,-1
 801 551 l 1,2,-1
 735 1325 l 1,0,-1
639 1493 m 1,3,-1
 885 1493 l 1,4,-1
 1051 0 l 1,5,-1
 850 0 l 1,6,-1
 815 389 l 1,7,-1
 295 389 l 1,8,-1
 111 0 l 1,9,-1
 -106 0 l 1,10,-1
 639 1493 l 1,3,-1
885 1899 m 1,11,-1
 1093 1899 l 1,12,-1
 786 1635 l 1,13,-1
 626 1635 l 1,14,-1
 885 1899 l 1,11,-1
EndSplineSet
EndChar

StartChar: Acircumflex
Encoding: 194 194 132
Width: 1233
GlyphClass: 3
Flags: W
LayerCount: 2
Fore
SplineSet
735 1325 m 1,0,-1
 371 551 l 1,1,-1
 801 551 l 1,2,-1
 735 1325 l 1,0,-1
639 1493 m 1,3,-1
 885 1493 l 1,4,-1
 1051 0 l 1,5,-1
 850 0 l 1,6,-1
 815 389 l 1,7,-1
 295 389 l 1,8,-1
 111 0 l 1,9,-1
 -106 0 l 1,10,-1
 639 1493 l 1,3,-1
704 1901 m 1,11,-1
 917 1901 l 1,12,-1
 1075 1635 l 1,13,-1
 942 1635 l 1,14,-1
 803 1813 l 1,15,-1
 594 1635 l 1,16,-1
 442 1635 l 1,17,-1
 704 1901 l 1,11,-1
EndSplineSet
EndChar

StartChar: Atilde
Encoding: 195 195 133
Width: 1233
GlyphClass: 3
Flags: W
LayerCount: 2
Fore
SplineSet
735 1325 m 1,0,-1
 371 551 l 1,1,-1
 801 551 l 1,2,-1
 735 1325 l 1,0,-1
639 1493 m 1,3,-1
 885 1493 l 1,4,-1
 1051 0 l 1,5,-1
 850 0 l 1,6,-1
 815 389 l 1,7,-1
 295 389 l 1,8,-1
 111 0 l 1,9,-1
 -106 0 l 1,10,-1
 639 1493 l 1,3,-1
790 1710 m 2,11,-1
 756 1735 l 1,12,-1
 754 1736 l 1,13,14
 712 1768 712 1768 674 1768 c 0,15,16
 640 1768 640 1768 613 1742.5 c 128,-1,17
 586 1717 586 1717 567 1667 c 1,18,-1
 442 1667 l 1,19,20
 477 1776 477 1776 539 1831 c 128,-1,21
 601 1886 601 1886 686 1886 c 0,22,23
 720 1886 720 1886 751 1875 c 128,-1,24
 782 1864 782 1864 817 1839 c 2,25,-1
 852 1813 l 2,26,27
 870 1799 870 1799 888 1792.5 c 128,-1,28
 906 1786 906 1786 925 1786 c 0,29,30
 965 1786 965 1786 993 1813 c 128,-1,31
 1021 1840 1021 1840 1032 1886 c 1,32,-1
 1157 1886 l 1,33,34
 1125 1777 1125 1777 1062 1722 c 128,-1,35
 999 1667 999 1667 907 1667 c 0,36,37
 876 1667 876 1667 848.5 1677.5 c 128,-1,38
 821 1688 821 1688 790 1710 c 2,11,-1
EndSplineSet
EndChar

StartChar: Adieresis
Encoding: 196 196 134
Width: 1233
GlyphClass: 3
Flags: W
LayerCount: 2
Fore
SplineSet
735 1325 m 1,0,-1
 371 551 l 1,1,-1
 801 551 l 1,2,-1
 735 1325 l 1,0,-1
639 1493 m 1,3,-1
 885 1493 l 1,4,-1
 1051 0 l 1,5,-1
 850 0 l 1,6,-1
 815 389 l 1,7,-1
 295 389 l 1,8,-1
 111 0 l 1,9,-1
 -106 0 l 1,10,-1
 639 1493 l 1,3,-1
897 1870 m 1,11,-1
 1100 1870 l 1,12,-1
 1061 1667 l 1,13,-1
 858 1667 l 1,14,-1
 897 1870 l 1,11,-1
506 1870 m 1,15,-1
 710 1870 l 1,16,-1
 669 1667 l 1,17,-1
 467 1667 l 1,18,-1
 506 1870 l 1,15,-1
EndSplineSet
EndChar

StartChar: Aring
Encoding: 197 197 135
Width: 1233
GlyphClass: 3
Flags: W
LayerCount: 2
Fore
SplineSet
924 1626 m 256,0,1
 924 1689 924 1689 879.5 1733.5 c 128,-1,2
 835 1778 835 1778 772 1778 c 0,3,4
 708 1778 708 1778 664.5 1734.5 c 128,-1,5
 621 1691 621 1691 621 1626 c 0,6,7
 621 1563 621 1563 664.5 1519 c 128,-1,8
 708 1475 708 1475 772 1475 c 0,9,10
 835 1475 835 1475 879.5 1519 c 128,-1,11
 924 1563 924 1563 924 1626 c 256,0,1
735 1325 m 1,12,-1
 371 551 l 1,13,-1
 801 551 l 1,14,-1
 735 1325 l 1,12,-1
600 1415 m 1,15,16
 549 1450 549 1450 523.5 1503.5 c 128,-1,17
 498 1557 498 1557 498 1626 c 0,18,19
 498 1740 498 1740 577.5 1820.5 c 128,-1,20
 657 1901 657 1901 772 1901 c 0,21,22
 886 1901 886 1901 966.5 1820.5 c 128,-1,23
 1047 1740 1047 1740 1047 1626 c 0,24,25
 1047 1545 1047 1545 1007 1481.5 c 128,-1,26
 967 1418 967 1418 897 1386 c 1,27,-1
 1051 0 l 1,28,-1
 850 0 l 1,29,-1
 815 389 l 1,30,-1
 295 389 l 1,31,-1
 111 0 l 1,32,-1
 -106 0 l 1,33,-1
 600 1415 l 1,15,16
EndSplineSet
EndChar

StartChar: AE
Encoding: 198 198 136
Width: 1233
GlyphClass: 2
Flags: W
LayerCount: 2
Fore
SplineSet
1307 1493 m 1,0,-1
 1274 1323 l 1,1,-1
 936 1323 l 1,2,-1
 850 881 l 1,3,-1
 1157 881 l 1,4,-1
 1124 711 l 1,5,-1
 817 711 l 1,6,-1
 711 170 l 1,7,-1
 1067 170 l 1,8,-1
 1034 0 l 1,9,-1
 492 0 l 1,10,-1
 567 383 l 1,11,-1
 215 383 l 1,12,-1
 39 0 l 1,13,-1
 -145 0 l 1,14,-1
 555 1493 l 1,15,-1
 1307 1493 l 1,0,-1
647 1323 m 1,16,-1
 291 551 l 1,17,-1
 600 551 l 1,18,-1
 750 1323 l 1,19,-1
 647 1323 l 1,16,-1
EndSplineSet
EndChar

StartChar: Ccedilla
Encoding: 199 199 137
Width: 1233
GlyphClass: 3
Flags: W
LayerCount: 2
Fore
SplineSet
944 53 m 1,0,1
 860 12 860 12 774.5 -8.5 c 128,-1,2
 689 -29 689 -29 598 -29 c 0,3,4
 368 -29 368 -29 241.5 104 c 128,-1,5
 115 237 115 237 115 477 c 0,6,7
 115 697 115 697 185 913 c 128,-1,8
 255 1129 255 1129 369 1266 c 0,9,10
 476 1396 476 1396 605 1458 c 128,-1,11
 734 1520 734 1520 899 1520 c 0,12,13
 979 1520 979 1520 1058 1499 c 128,-1,14
 1137 1478 1137 1478 1212 1438 c 1,15,-1
 1171 1231 l 1,16,17
 1107 1294 1107 1294 1036 1325 c 128,-1,18
 965 1356 965 1356 885 1356 c 0,19,20
 790 1356 790 1356 709 1315.5 c 128,-1,21
 628 1275 628 1275 557 1192 c 0,22,23
 453 1069 453 1069 389.5 877 c 128,-1,24
 326 685 326 685 326 492 c 0,25,26
 326 319 326 319 404 227 c 128,-1,27
 482 135 482 135 629 135 c 0,28,29
 714 135 714 135 804.5 167 c 128,-1,30
 895 199 895 199 983 260 c 1,31,-1
 944 53 l 1,0,1
655 0 m 1,32,33
 692 -64 692 -64 709.5 -110.5 c 128,-1,34
 727 -157 727 -157 727 -193 c 0,35,36
 727 -286 727 -286 656.5 -340.5 c 128,-1,37
 586 -395 586 -395 467 -395 c 0,38,39
 423 -395 423 -395 376 -387.5 c 128,-1,40
 329 -380 329 -380 282 -365 c 1,41,-1
 307 -236 l 1,42,43
 347 -255 347 -255 383.5 -264.5 c 128,-1,44
 420 -274 420 -274 452 -274 c 0,45,46
 519 -274 519 -274 556.5 -244 c 128,-1,47
 594 -214 594 -214 594 -160 c 0,48,49
 594 -132 594 -132 579.5 -93 c 128,-1,50
 565 -54 565 -54 536 0 c 1,51,-1
 655 0 l 1,32,33
EndSplineSet
EndChar

StartChar: Egrave
Encoding: 200 200 138
Width: 1233
GlyphClass: 3
Flags: W
LayerCount: 2
Fore
SplineSet
344 1493 m 1,0,-1
 1229 1493 l 1,1,-1
 1196 1323 l 1,2,-1
 512 1323 l 1,3,-1
 426 881 l 1,4,-1
 1079 881 l 1,5,-1
 1047 711 l 1,6,-1
 393 711 l 1,7,-1
 289 170 l 1,8,-1
 991 170 l 1,9,-1
 958 0 l 1,10,-1
 53 0 l 1,11,-1
 344 1493 l 1,0,-1
778 1899 m 1,12,-1
 925 1635 l 1,13,-1
 786 1635 l 1,14,-1
 596 1899 l 1,15,-1
 778 1899 l 1,12,-1
EndSplineSet
EndChar

StartChar: Eacute
Encoding: 201 201 139
Width: 1233
GlyphClass: 3
Flags: W
LayerCount: 2
Fore
SplineSet
344 1493 m 1,0,-1
 1229 1493 l 1,1,-1
 1196 1323 l 1,2,-1
 512 1323 l 1,3,-1
 426 881 l 1,4,-1
 1079 881 l 1,5,-1
 1047 711 l 1,6,-1
 393 711 l 1,7,-1
 289 170 l 1,8,-1
 991 170 l 1,9,-1
 958 0 l 1,10,-1
 53 0 l 1,11,-1
 344 1493 l 1,0,-1
930 1899 m 1,12,-1
 1138 1899 l 1,13,-1
 831 1635 l 1,14,-1
 671 1635 l 1,15,-1
 930 1899 l 1,12,-1
EndSplineSet
EndChar

StartChar: Ecircumflex
Encoding: 202 202 140
Width: 1233
GlyphClass: 3
Flags: W
LayerCount: 2
Fore
SplineSet
344 1493 m 1,0,-1
 1229 1493 l 1,1,-1
 1196 1323 l 1,2,-1
 512 1323 l 1,3,-1
 426 881 l 1,4,-1
 1079 881 l 1,5,-1
 1047 711 l 1,6,-1
 393 711 l 1,7,-1
 289 170 l 1,8,-1
 991 170 l 1,9,-1
 958 0 l 1,10,-1
 53 0 l 1,11,-1
 344 1493 l 1,0,-1
749 1901 m 1,12,-1
 962 1901 l 1,13,-1
 1120 1635 l 1,14,-1
 987 1635 l 1,15,-1
 848 1813 l 1,16,-1
 639 1635 l 1,17,-1
 487 1635 l 1,18,-1
 749 1901 l 1,12,-1
EndSplineSet
EndChar

StartChar: Edieresis
Encoding: 203 203 141
Width: 1233
GlyphClass: 3
Flags: W
LayerCount: 2
Fore
SplineSet
344 1493 m 1,0,-1
 1229 1493 l 1,1,-1
 1196 1323 l 1,2,-1
 512 1323 l 1,3,-1
 426 881 l 1,4,-1
 1079 881 l 1,5,-1
 1047 711 l 1,6,-1
 393 711 l 1,7,-1
 289 170 l 1,8,-1
 991 170 l 1,9,-1
 958 0 l 1,10,-1
 53 0 l 1,11,-1
 344 1493 l 1,0,-1
942 1870 m 1,12,-1
 1145 1870 l 1,13,-1
 1106 1667 l 1,14,-1
 903 1667 l 1,15,-1
 942 1870 l 1,12,-1
551 1870 m 1,16,-1
 755 1870 l 1,17,-1
 714 1667 l 1,18,-1
 512 1667 l 1,19,-1
 551 1870 l 1,16,-1
EndSplineSet
EndChar

StartChar: Igrave
Encoding: 204 204 142
Width: 1233
GlyphClass: 3
Flags: W
LayerCount: 2
Fore
SplineSet
346 1493 m 1,0,-1
 1176 1493 l 1,1,-1
 1143 1323 l 1,2,-1
 829 1323 l 1,3,-1
 606 170 l 1,4,-1
 920 170 l 1,5,-1
 887 0 l 1,6,-1
 57 0 l 1,7,-1
 90 170 l 1,8,-1
 403 170 l 1,9,-1
 627 1323 l 1,10,-1
 313 1323 l 1,11,-1
 346 1493 l 1,0,-1
739 1899 m 1,12,-1
 886 1635 l 1,13,-1
 747 1635 l 1,14,-1
 557 1899 l 1,15,-1
 739 1899 l 1,12,-1
EndSplineSet
EndChar

StartChar: Iacute
Encoding: 205 205 143
Width: 1233
GlyphClass: 3
Flags: W
LayerCount: 2
Fore
SplineSet
346 1493 m 1,0,-1
 1176 1493 l 1,1,-1
 1143 1323 l 1,2,-1
 829 1323 l 1,3,-1
 606 170 l 1,4,-1
 920 170 l 1,5,-1
 887 0 l 1,6,-1
 57 0 l 1,7,-1
 90 170 l 1,8,-1
 403 170 l 1,9,-1
 627 1323 l 1,10,-1
 313 1323 l 1,11,-1
 346 1493 l 1,0,-1
891 1899 m 1,12,-1
 1099 1899 l 1,13,-1
 792 1635 l 1,14,-1
 632 1635 l 1,15,-1
 891 1899 l 1,12,-1
EndSplineSet
EndChar

StartChar: Icircumflex
Encoding: 206 206 144
Width: 1233
GlyphClass: 3
Flags: W
LayerCount: 2
Fore
SplineSet
346 1493 m 1,0,-1
 1176 1493 l 1,1,-1
 1143 1323 l 1,2,-1
 829 1323 l 1,3,-1
 606 170 l 1,4,-1
 920 170 l 1,5,-1
 887 0 l 1,6,-1
 57 0 l 1,7,-1
 90 170 l 1,8,-1
 403 170 l 1,9,-1
 627 1323 l 1,10,-1
 313 1323 l 1,11,-1
 346 1493 l 1,0,-1
710 1901 m 1,12,-1
 923 1901 l 1,13,-1
 1081 1635 l 1,14,-1
 948 1635 l 1,15,-1
 809 1813 l 1,16,-1
 600 1635 l 1,17,-1
 448 1635 l 1,18,-1
 710 1901 l 1,12,-1
EndSplineSet
EndChar

StartChar: Idieresis
Encoding: 207 207 145
Width: 1233
GlyphClass: 3
Flags: W
LayerCount: 2
Fore
SplineSet
346 1493 m 1,0,-1
 1176 1493 l 1,1,-1
 1143 1323 l 1,2,-1
 829 1323 l 1,3,-1
 606 170 l 1,4,-1
 920 170 l 1,5,-1
 887 0 l 1,6,-1
 57 0 l 1,7,-1
 90 170 l 1,8,-1
 403 170 l 1,9,-1
 627 1323 l 1,10,-1
 313 1323 l 1,11,-1
 346 1493 l 1,0,-1
903 1870 m 1,12,-1
 1106 1870 l 1,13,-1
 1067 1667 l 1,14,-1
 864 1667 l 1,15,-1
 903 1870 l 1,12,-1
512 1870 m 1,16,-1
 716 1870 l 1,17,-1
 675 1667 l 1,18,-1
 473 1667 l 1,19,-1
 512 1870 l 1,16,-1
EndSplineSet
EndChar

StartChar: Eth
Encoding: 208 208 146
Width: 1233
GlyphClass: 2
Flags: W
LayerCount: 2
Fore
SplineSet
324 166 m 2,0,1
 509 166 509 166 621 228.5 c 128,-1,2
 733 291 733 291 801 432 c 0,3,4
 855 547 855 547 889.5 706.5 c 128,-1,5
 924 866 924 866 924 999 c 0,6,7
 924 1175 924 1175 842 1251 c 128,-1,8
 760 1327 760 1327 567 1327 c 2,9,-1
 453 1327 l 1,10,-1
 362 858 l 1,11,-1
 629 858 l 1,12,-1
 600 709 l 1,13,-1
 334 709 l 1,14,-1
 227 166 l 1,15,-1
 324 166 l 2,0,1
586 1493 m 2,16,17
 859 1493 859 1493 994.5 1369 c 128,-1,18
 1130 1245 1130 1245 1130 993 c 0,19,20
 1130 831 1130 831 1088 659 c 128,-1,21
 1046 487 1046 487 975 354 c 0,22,23
 871 163 871 163 715.5 81.5 c 128,-1,24
 560 0 560 0 295 0 c 2,25,-1
 -8 0 l 1,26,-1
 129 709 l 1,27,-1
 2 709 l 1,28,-1
 31 858 l 1,29,-1
 160 858 l 1,30,-1
 283 1493 l 1,31,-1
 586 1493 l 2,16,17
EndSplineSet
EndChar

StartChar: Ntilde
Encoding: 209 209 147
Width: 1233
GlyphClass: 3
Flags: W
LayerCount: 2
Fore
SplineSet
285 1493 m 1,0,-1
 541 1493 l 1,1,-1
 805 264 l 1,2,-1
 1044 1493 l 1,3,-1
 1239 1493 l 1,4,-1
 948 0 l 1,5,-1
 692 0 l 1,6,-1
 428 1229 l 1,7,-1
 188 0 l 1,8,-1
 -6 0 l 1,9,-1
 285 1493 l 1,0,-1
786 1710 m 2,10,-1
 752 1735 l 1,11,-1
 750 1736 l 1,12,13
 708 1768 708 1768 670 1768 c 0,14,15
 636 1768 636 1768 609 1742.5 c 128,-1,16
 582 1717 582 1717 563 1667 c 1,17,-1
 438 1667 l 1,18,19
 473 1776 473 1776 535 1831 c 128,-1,20
 597 1886 597 1886 682 1886 c 0,21,22
 716 1886 716 1886 747 1875 c 128,-1,23
 778 1864 778 1864 813 1839 c 2,24,-1
 848 1813 l 2,25,26
 866 1799 866 1799 884 1792.5 c 128,-1,27
 902 1786 902 1786 921 1786 c 0,28,29
 961 1786 961 1786 989 1813 c 128,-1,30
 1017 1840 1017 1840 1028 1886 c 1,31,-1
 1153 1886 l 1,32,33
 1121 1777 1121 1777 1058 1722 c 128,-1,34
 995 1667 995 1667 903 1667 c 0,35,36
 872 1667 872 1667 844.5 1677.5 c 128,-1,37
 817 1688 817 1688 786 1710 c 2,10,-1
EndSplineSet
EndChar

StartChar: Ograve
Encoding: 210 210 148
Width: 1233
GlyphClass: 3
Flags: W
LayerCount: 2
Fore
SplineSet
502 135 m 0,0,1
 587 135 587 135 659 186 c 128,-1,2
 731 237 731 237 778 332 c 0,3,4
 852 477 852 477 898 683 c 128,-1,5
 944 889 944 889 944 1079 c 0,6,7
 944 1221 944 1221 891.5 1288.5 c 128,-1,8
 839 1356 839 1356 729 1356 c 0,9,10
 644 1356 644 1356 573 1305 c 128,-1,11
 502 1254 502 1254 455 1159 c 0,12,13
 379 1012 379 1012 333 808 c 128,-1,14
 287 604 287 604 287 414 c 0,15,16
 287 271 287 271 339.5 203 c 128,-1,17
 392 135 392 135 502 135 c 0,0,1
1151 1020 m 0,18,19
 1151 910 1151 910 1128.5 781 c 128,-1,20
 1106 652 1106 652 1063 516 c 0,21,22
 1034 424 1034 424 1000.5 351 c 128,-1,23
 967 278 967 278 928 219 c 0,24,25
 840 92 840 92 731 31.5 c 128,-1,26
 622 -29 622 -29 477 -29 c 0,27,28
 276 -29 276 -29 179 94 c 128,-1,29
 82 217 82 217 82 473 c 0,30,31
 82 584 82 584 103.5 711.5 c 128,-1,32
 125 839 125 839 168 975 c 0,33,34
 197 1067 197 1067 230.5 1140 c 128,-1,35
 264 1213 264 1213 303 1272 c 0,36,37
 391 1399 391 1399 500 1459.5 c 128,-1,38
 609 1520 609 1520 754 1520 c 0,39,40
 956 1520 956 1520 1053.5 1397.5 c 128,-1,41
 1151 1275 1151 1275 1151 1020 c 0,18,19
725 1899 m 1,42,-1
 872 1635 l 1,43,-1
 733 1635 l 1,44,-1
 543 1899 l 1,45,-1
 725 1899 l 1,42,-1
EndSplineSet
EndChar

StartChar: Oacute
Encoding: 211 211 149
Width: 1233
GlyphClass: 3
Flags: W
LayerCount: 2
Fore
SplineSet
502 135 m 0,0,1
 587 135 587 135 659 186 c 128,-1,2
 731 237 731 237 778 332 c 0,3,4
 852 477 852 477 898 683 c 128,-1,5
 944 889 944 889 944 1079 c 0,6,7
 944 1221 944 1221 891.5 1288.5 c 128,-1,8
 839 1356 839 1356 729 1356 c 0,9,10
 644 1356 644 1356 573 1305 c 128,-1,11
 502 1254 502 1254 455 1159 c 0,12,13
 379 1012 379 1012 333 808 c 128,-1,14
 287 604 287 604 287 414 c 0,15,16
 287 271 287 271 339.5 203 c 128,-1,17
 392 135 392 135 502 135 c 0,0,1
1151 1020 m 0,18,19
 1151 910 1151 910 1128.5 781 c 128,-1,20
 1106 652 1106 652 1063 516 c 0,21,22
 1034 424 1034 424 1000.5 351 c 128,-1,23
 967 278 967 278 928 219 c 0,24,25
 840 92 840 92 731 31.5 c 128,-1,26
 622 -29 622 -29 477 -29 c 0,27,28
 276 -29 276 -29 179 94 c 128,-1,29
 82 217 82 217 82 473 c 0,30,31
 82 584 82 584 103.5 711.5 c 128,-1,32
 125 839 125 839 168 975 c 0,33,34
 197 1067 197 1067 230.5 1140 c 128,-1,35
 264 1213 264 1213 303 1272 c 0,36,37
 391 1399 391 1399 500 1459.5 c 128,-1,38
 609 1520 609 1520 754 1520 c 0,39,40
 956 1520 956 1520 1053.5 1397.5 c 128,-1,41
 1151 1275 1151 1275 1151 1020 c 0,18,19
877 1899 m 1,42,-1
 1085 1899 l 1,43,-1
 778 1635 l 1,44,-1
 618 1635 l 1,45,-1
 877 1899 l 1,42,-1
EndSplineSet
EndChar

StartChar: Ocircumflex
Encoding: 212 212 150
Width: 1233
GlyphClass: 3
Flags: W
LayerCount: 2
Fore
SplineSet
502 135 m 0,0,1
 587 135 587 135 659 186 c 128,-1,2
 731 237 731 237 778 332 c 0,3,4
 852 477 852 477 898 683 c 128,-1,5
 944 889 944 889 944 1079 c 0,6,7
 944 1221 944 1221 891.5 1288.5 c 128,-1,8
 839 1356 839 1356 729 1356 c 0,9,10
 644 1356 644 1356 573 1305 c 128,-1,11
 502 1254 502 1254 455 1159 c 0,12,13
 379 1012 379 1012 333 808 c 128,-1,14
 287 604 287 604 287 414 c 0,15,16
 287 271 287 271 339.5 203 c 128,-1,17
 392 135 392 135 502 135 c 0,0,1
1151 1020 m 0,18,19
 1151 910 1151 910 1128.5 781 c 128,-1,20
 1106 652 1106 652 1063 516 c 0,21,22
 1034 424 1034 424 1000.5 351 c 128,-1,23
 967 278 967 278 928 219 c 0,24,25
 840 92 840 92 731 31.5 c 128,-1,26
 622 -29 622 -29 477 -29 c 0,27,28
 276 -29 276 -29 179 94 c 128,-1,29
 82 217 82 217 82 473 c 0,30,31
 82 584 82 584 103.5 711.5 c 128,-1,32
 125 839 125 839 168 975 c 0,33,34
 197 1067 197 1067 230.5 1140 c 128,-1,35
 264 1213 264 1213 303 1272 c 0,36,37
 391 1399 391 1399 500 1459.5 c 128,-1,38
 609 1520 609 1520 754 1520 c 0,39,40
 956 1520 956 1520 1053.5 1397.5 c 128,-1,41
 1151 1275 1151 1275 1151 1020 c 0,18,19
696 1901 m 1,42,-1
 909 1901 l 1,43,-1
 1067 1635 l 1,44,-1
 934 1635 l 1,45,-1
 795 1813 l 1,46,-1
 586 1635 l 1,47,-1
 434 1635 l 1,48,-1
 696 1901 l 1,42,-1
EndSplineSet
EndChar

StartChar: Otilde
Encoding: 213 213 151
Width: 1233
GlyphClass: 3
Flags: W
LayerCount: 2
Fore
SplineSet
502 135 m 0,0,1
 587 135 587 135 659 186 c 128,-1,2
 731 237 731 237 778 332 c 0,3,4
 852 477 852 477 898 683 c 128,-1,5
 944 889 944 889 944 1079 c 0,6,7
 944 1221 944 1221 891.5 1288.5 c 128,-1,8
 839 1356 839 1356 729 1356 c 0,9,10
 644 1356 644 1356 573 1305 c 128,-1,11
 502 1254 502 1254 455 1159 c 0,12,13
 379 1012 379 1012 333 808 c 128,-1,14
 287 604 287 604 287 414 c 0,15,16
 287 271 287 271 339.5 203 c 128,-1,17
 392 135 392 135 502 135 c 0,0,1
1151 1020 m 0,18,19
 1151 910 1151 910 1128.5 781 c 128,-1,20
 1106 652 1106 652 1063 516 c 0,21,22
 1034 424 1034 424 1000.5 351 c 128,-1,23
 967 278 967 278 928 219 c 0,24,25
 840 92 840 92 731 31.5 c 128,-1,26
 622 -29 622 -29 477 -29 c 0,27,28
 276 -29 276 -29 179 94 c 128,-1,29
 82 217 82 217 82 473 c 0,30,31
 82 584 82 584 103.5 711.5 c 128,-1,32
 125 839 125 839 168 975 c 0,33,34
 197 1067 197 1067 230.5 1140 c 128,-1,35
 264 1213 264 1213 303 1272 c 0,36,37
 391 1399 391 1399 500 1459.5 c 128,-1,38
 609 1520 609 1520 754 1520 c 0,39,40
 956 1520 956 1520 1053.5 1397.5 c 128,-1,41
 1151 1275 1151 1275 1151 1020 c 0,18,19
782 1710 m 2,42,-1
 748 1735 l 1,43,-1
 746 1736 l 1,44,45
 704 1768 704 1768 666 1768 c 0,46,47
 632 1768 632 1768 605 1742.5 c 128,-1,48
 578 1717 578 1717 559 1667 c 1,49,-1
 434 1667 l 1,50,51
 469 1776 469 1776 531 1831 c 128,-1,52
 593 1886 593 1886 678 1886 c 0,53,54
 712 1886 712 1886 743 1875 c 128,-1,55
 774 1864 774 1864 809 1839 c 2,56,-1
 844 1813 l 2,57,58
 862 1799 862 1799 880 1792.5 c 128,-1,59
 898 1786 898 1786 917 1786 c 0,60,61
 957 1786 957 1786 985 1813 c 128,-1,62
 1013 1840 1013 1840 1024 1886 c 1,63,-1
 1149 1886 l 1,64,65
 1117 1777 1117 1777 1054 1722 c 128,-1,66
 991 1667 991 1667 899 1667 c 0,67,68
 868 1667 868 1667 840.5 1677.5 c 128,-1,69
 813 1688 813 1688 782 1710 c 2,42,-1
EndSplineSet
EndChar

StartChar: Odieresis
Encoding: 214 214 152
Width: 1233
GlyphClass: 3
Flags: W
LayerCount: 2
Fore
SplineSet
502 135 m 0,0,1
 587 135 587 135 659 186 c 128,-1,2
 731 237 731 237 778 332 c 0,3,4
 852 477 852 477 898 683 c 128,-1,5
 944 889 944 889 944 1079 c 0,6,7
 944 1221 944 1221 891.5 1288.5 c 128,-1,8
 839 1356 839 1356 729 1356 c 0,9,10
 644 1356 644 1356 573 1305 c 128,-1,11
 502 1254 502 1254 455 1159 c 0,12,13
 379 1012 379 1012 333 808 c 128,-1,14
 287 604 287 604 287 414 c 0,15,16
 287 271 287 271 339.5 203 c 128,-1,17
 392 135 392 135 502 135 c 0,0,1
1151 1020 m 0,18,19
 1151 910 1151 910 1128.5 781 c 128,-1,20
 1106 652 1106 652 1063 516 c 0,21,22
 1034 424 1034 424 1000.5 351 c 128,-1,23
 967 278 967 278 928 219 c 0,24,25
 840 92 840 92 731 31.5 c 128,-1,26
 622 -29 622 -29 477 -29 c 0,27,28
 276 -29 276 -29 179 94 c 128,-1,29
 82 217 82 217 82 473 c 0,30,31
 82 584 82 584 103.5 711.5 c 128,-1,32
 125 839 125 839 168 975 c 0,33,34
 197 1067 197 1067 230.5 1140 c 128,-1,35
 264 1213 264 1213 303 1272 c 0,36,37
 391 1399 391 1399 500 1459.5 c 128,-1,38
 609 1520 609 1520 754 1520 c 0,39,40
 956 1520 956 1520 1053.5 1397.5 c 128,-1,41
 1151 1275 1151 1275 1151 1020 c 0,18,19
889 1870 m 1,42,-1
 1092 1870 l 1,43,-1
 1053 1667 l 1,44,-1
 850 1667 l 1,45,-1
 889 1870 l 1,42,-1
498 1870 m 1,46,-1
 702 1870 l 1,47,-1
 661 1667 l 1,48,-1
 459 1667 l 1,49,-1
 498 1870 l 1,46,-1
EndSplineSet
EndChar

StartChar: multiply
Encoding: 215 215 153
Width: 1233
GlyphClass: 2
Flags: W
LayerCount: 2
Fore
SplineSet
150 293 m 1,0,-1
 500 641 l 1,1,-1
 150 991 l 1,2,-1
 266 1108 l 1,3,-1
 616 758 l 1,4,-1
 967 1108 l 1,5,-1
 1083 991 l 1,6,-1
 733 641 l 1,7,-1
 1081 293 l 1,8,-1
 965 174 l 1,9,-1
 616 524 l 1,10,-1
 268 174 l 1,11,-1
 150 293 l 1,0,-1
EndSplineSet
EndChar

StartChar: Oslash
Encoding: 216 216 154
Width: 1233
GlyphClass: 2
Flags: W
LayerCount: 2
Fore
SplineSet
322 229 m 1,0,1
 342 185 342 185 389 160 c 128,-1,2
 436 135 436 135 502 135 c 0,3,4
 614 135 614 135 694.5 217 c 128,-1,5
 775 299 775 299 836 473 c 0,6,7
 886 618 886 618 913 765.5 c 128,-1,8
 940 913 940 913 940 1036 c 0,9,10
 940 1064 940 1064 939.5 1081.5 c 128,-1,11
 939 1099 939 1099 938 1116 c 1,12,-1
 322 229 l 1,0,1
291 389 m 1,13,-1
 905 1274 l 1,14,15
 876 1313 876 1313 830.5 1334.5 c 128,-1,16
 785 1356 785 1356 729 1356 c 0,17,18
 616 1356 616 1356 535.5 1274 c 128,-1,19
 455 1192 455 1192 395 1018 c 0,20,21
 345 870 345 870 316 717.5 c 128,-1,22
 287 565 287 565 287 457 c 0,23,24
 287 447 287 447 289 419 c 0,25,26
 290 401 290 401 291 389 c 1,13,-1
1094 1337 m 1,27,28
 1123 1277 1123 1277 1137 1205 c 128,-1,29
 1151 1133 1151 1133 1151 1042 c 0,30,31
 1151 846 1151 846 1098.5 635 c 128,-1,32
 1046 424 1046 424 963 276 c 0,33,34
 875 122 875 122 755 46.5 c 128,-1,35
 635 -29 635 -29 477 -29 c 0,36,37
 396 -29 396 -29 328.5 -6 c 128,-1,38
 261 17 261 17 207 63 c 1,39,-1
 113 -70 l 1,40,-1
 14 -6 l 1,41,-1
 133 164 l 1,42,43
 106 222 106 222 93 292.5 c 128,-1,44
 80 363 80 363 80 449 c 0,45,46
 80 647 80 647 132 857.5 c 128,-1,47
 184 1068 184 1068 268 1217 c 0,48,49
 356 1370 356 1370 475.5 1445 c 128,-1,50
 595 1520 595 1520 754 1520 c 0,51,52
 831 1520 831 1520 896.5 1498.5 c 128,-1,53
 962 1477 962 1477 1016 1434 c 1,54,-1
 1100 1559 l 1,55,-1
 1200 1495 l 1,56,-1
 1094 1337 l 1,27,28
EndSplineSet
EndChar

StartChar: Ugrave
Encoding: 217 217 155
Width: 1233
GlyphClass: 3
Flags: W
LayerCount: 2
Fore
SplineSet
115 573 m 2,0,-1
 293 1493 l 1,1,-1
 496 1493 l 1,2,-1
 317 573 l 2,3,4
 315 560 315 560 309 532 c 0,5,6
 279 378 279 378 279 319 c 0,7,8
 279 227 279 227 333.5 181 c 128,-1,9
 388 135 388 135 498 135 c 0,10,11
 587 135 587 135 649 163.5 c 128,-1,12
 711 192 711 192 756 254 c 0,13,14
 778 285 778 285 800.5 360.5 c 128,-1,15
 823 436 823 436 850 573 c 2,16,-1
 1028 1493 l 1,17,-1
 1231 1493 l 1,18,-1
 1053 573 l 2,19,20
 1011 354 1011 354 963.5 251.5 c 128,-1,21
 916 149 916 149 838 86 c 0,22,23
 767 30 767 30 676 0.5 c 128,-1,24
 585 -29 585 -29 479 -29 c 0,25,26
 287 -29 287 -29 183.5 61 c 128,-1,27
 80 151 80 151 80 317 c 0,28,29
 80 354 80 354 88.5 417 c 128,-1,30
 97 480 97 480 115 573 c 2,0,-1
737 1899 m 1,31,-1
 884 1635 l 1,32,-1
 745 1635 l 1,33,-1
 555 1899 l 1,34,-1
 737 1899 l 1,31,-1
EndSplineSet
EndChar

StartChar: Uacute
Encoding: 218 218 156
Width: 1233
GlyphClass: 3
Flags: W
LayerCount: 2
Fore
SplineSet
115 573 m 2,0,-1
 293 1493 l 1,1,-1
 496 1493 l 1,2,-1
 317 573 l 2,3,4
 315 560 315 560 309 532 c 0,5,6
 279 378 279 378 279 319 c 0,7,8
 279 227 279 227 333.5 181 c 128,-1,9
 388 135 388 135 498 135 c 0,10,11
 587 135 587 135 649 163.5 c 128,-1,12
 711 192 711 192 756 254 c 0,13,14
 778 285 778 285 800.5 360.5 c 128,-1,15
 823 436 823 436 850 573 c 2,16,-1
 1028 1493 l 1,17,-1
 1231 1493 l 1,18,-1
 1053 573 l 2,19,20
 1011 354 1011 354 963.5 251.5 c 128,-1,21
 916 149 916 149 838 86 c 0,22,23
 767 30 767 30 676 0.5 c 128,-1,24
 585 -29 585 -29 479 -29 c 0,25,26
 287 -29 287 -29 183.5 61 c 128,-1,27
 80 151 80 151 80 317 c 0,28,29
 80 354 80 354 88.5 417 c 128,-1,30
 97 480 97 480 115 573 c 2,0,-1
889 1899 m 1,31,-1
 1097 1899 l 1,32,-1
 790 1635 l 1,33,-1
 630 1635 l 1,34,-1
 889 1899 l 1,31,-1
EndSplineSet
EndChar

StartChar: Ucircumflex
Encoding: 219 219 157
Width: 1233
GlyphClass: 3
Flags: W
LayerCount: 2
Fore
SplineSet
115 573 m 2,0,-1
 293 1493 l 1,1,-1
 496 1493 l 1,2,-1
 317 573 l 2,3,4
 315 560 315 560 309 532 c 0,5,6
 279 378 279 378 279 319 c 0,7,8
 279 227 279 227 333.5 181 c 128,-1,9
 388 135 388 135 498 135 c 0,10,11
 587 135 587 135 649 163.5 c 128,-1,12
 711 192 711 192 756 254 c 0,13,14
 778 285 778 285 800.5 360.5 c 128,-1,15
 823 436 823 436 850 573 c 2,16,-1
 1028 1493 l 1,17,-1
 1231 1493 l 1,18,-1
 1053 573 l 2,19,20
 1011 354 1011 354 963.5 251.5 c 128,-1,21
 916 149 916 149 838 86 c 0,22,23
 767 30 767 30 676 0.5 c 128,-1,24
 585 -29 585 -29 479 -29 c 0,25,26
 287 -29 287 -29 183.5 61 c 128,-1,27
 80 151 80 151 80 317 c 0,28,29
 80 354 80 354 88.5 417 c 128,-1,30
 97 480 97 480 115 573 c 2,0,-1
708 1901 m 1,31,-1
 921 1901 l 1,32,-1
 1079 1635 l 1,33,-1
 946 1635 l 1,34,-1
 807 1813 l 1,35,-1
 598 1635 l 1,36,-1
 446 1635 l 1,37,-1
 708 1901 l 1,31,-1
EndSplineSet
EndChar

StartChar: Udieresis
Encoding: 220 220 158
Width: 1233
GlyphClass: 3
Flags: W
LayerCount: 2
Fore
SplineSet
115 573 m 2,0,-1
 293 1493 l 1,1,-1
 496 1493 l 1,2,-1
 317 573 l 2,3,4
 315 560 315 560 309 532 c 0,5,6
 279 378 279 378 279 319 c 0,7,8
 279 227 279 227 333.5 181 c 128,-1,9
 388 135 388 135 498 135 c 0,10,11
 587 135 587 135 649 163.5 c 128,-1,12
 711 192 711 192 756 254 c 0,13,14
 778 285 778 285 800.5 360.5 c 128,-1,15
 823 436 823 436 850 573 c 2,16,-1
 1028 1493 l 1,17,-1
 1231 1493 l 1,18,-1
 1053 573 l 2,19,20
 1011 354 1011 354 963.5 251.5 c 128,-1,21
 916 149 916 149 838 86 c 0,22,23
 767 30 767 30 676 0.5 c 128,-1,24
 585 -29 585 -29 479 -29 c 0,25,26
 287 -29 287 -29 183.5 61 c 128,-1,27
 80 151 80 151 80 317 c 0,28,29
 80 354 80 354 88.5 417 c 128,-1,30
 97 480 97 480 115 573 c 2,0,-1
901 1870 m 1,31,-1
 1104 1870 l 1,32,-1
 1065 1667 l 1,33,-1
 862 1667 l 1,34,-1
 901 1870 l 1,31,-1
510 1870 m 1,35,-1
 714 1870 l 1,36,-1
 673 1667 l 1,37,-1
 471 1667 l 1,38,-1
 510 1870 l 1,35,-1
EndSplineSet
EndChar

StartChar: Yacute
Encoding: 221 221 159
Width: 1233
GlyphClass: 3
Flags: W
LayerCount: 2
Fore
SplineSet
195 1493 m 1,0,-1
 397 1493 l 1,1,-1
 633 842 l 1,2,-1
 1130 1493 l 1,3,-1
 1348 1493 l 1,4,-1
 713 670 l 1,5,-1
 584 0 l 1,6,-1
 377 0 l 1,7,-1
 508 670 l 1,8,-1
 195 1493 l 1,0,-1
891 1899 m 1,9,-1
 1099 1899 l 1,10,-1
 792 1635 l 1,11,-1
 632 1635 l 1,12,-1
 891 1899 l 1,9,-1
EndSplineSet
EndChar

StartChar: Thorn
Encoding: 222 222 160
Width: 1233
GlyphClass: 2
Flags: W
LayerCount: 2
Fore
SplineSet
326 365 m 1,0,-1
 254 0 l 1,1,-1
 51 0 l 1,2,-1
 342 1493 l 1,3,-1
 545 1491 l 1,4,-1
 494 1217 l 1,5,-1
 735 1217 l 2,6,7
 942 1217 942 1217 1050.5 1129 c 128,-1,8
 1159 1041 1159 1041 1159 874 c 0,9,10
 1159 638 1159 638 998 501.5 c 128,-1,11
 837 365 837 365 557 365 c 2,12,-1
 326 365 l 1,0,-1
461 1059 m 1,13,-1
 356 522 l 1,14,-1
 590 522 l 2,15,16
 754 522 754 522 853 614 c 128,-1,17
 952 706 952 706 952 858 c 0,18,19
 952 961 952 961 890 1010 c 128,-1,20
 828 1059 828 1059 698 1059 c 2,21,-1
 461 1059 l 1,13,-1
EndSplineSet
EndChar

StartChar: germandbls
Encoding: 223 223 161
Width: 1233
GlyphClass: 2
Flags: W
LayerCount: 2
Fore
SplineSet
276 1137 m 2,0,1
 318 1349 318 1349 437.5 1452.5 c 128,-1,2
 557 1556 557 1556 760 1556 c 0,3,4
 936 1556 936 1556 1031 1476 c 128,-1,5
 1126 1396 1126 1396 1126 1247 c 0,6,7
 1126 1214 1126 1214 1121.5 1179 c 128,-1,8
 1117 1144 1117 1144 1108 1108 c 1,9,10
 934 1087 934 1087 833.5 1019.5 c 128,-1,11
 733 952 733 952 733 856 c 0,12,13
 733 818 733 818 753.5 787.5 c 128,-1,14
 774 757 774 757 834 713 c 2,15,-1
 885 674 l 2,16,17
 1000 589 1000 589 1040.5 522.5 c 128,-1,18
 1081 456 1081 456 1081 369 c 0,19,20
 1081 186 1081 186 951.5 78.5 c 128,-1,21
 822 -29 822 -29 600 -29 c 0,22,23
 529 -29 529 -29 462 -16.5 c 128,-1,24
 395 -4 395 -4 330 20 c 1,25,-1
 360 184 l 1,26,27
 419 152 419 152 485.5 135.5 c 128,-1,28
 552 119 552 119 623 119 c 0,29,30
 754 119 754 119 829.5 181.5 c 128,-1,31
 905 244 905 244 905 352 c 0,32,33
 905 404 905 404 878 445 c 128,-1,34
 851 486 851 486 766 549 c 2,35,-1
 705 596 l 2,36,37
 615 664 615 664 587 710 c 128,-1,38
 559 756 559 756 559 819 c 0,39,40
 559 950 559 950 660.5 1046 c 128,-1,41
 762 1142 762 1142 940 1178 c 1,42,43
 943 1193 943 1193 944.5 1207.5 c 128,-1,44
 946 1222 946 1222 946 1237 c 0,45,46
 946 1316 946 1316 894 1360.5 c 128,-1,47
 842 1405 842 1405 750 1405 c 0,48,49
 629 1405 629 1405 558 1337.5 c 128,-1,50
 487 1270 487 1270 461 1133 c 2,51,-1
 242 0 l 1,52,-1
 55 0 l 1,53,-1
 276 1137 l 2,0,1
EndSplineSet
EndChar

StartChar: agrave
Encoding: 224 224 162
Width: 1233
GlyphClass: 3
Flags: W
LayerCount: 2
Fore
SplineSet
692 563 m 2,0,1
 573 563 573 563 515 555.5 c 128,-1,2
 457 548 457 548 414 530 c 0,3,4
 346 503 346 503 305 441.5 c 128,-1,5
 264 380 264 380 264 307 c 0,6,7
 264 224 264 224 315.5 174.5 c 128,-1,8
 367 125 367 125 455 125 c 0,9,10
 603 125 603 125 710.5 231 c 128,-1,11
 818 337 818 337 856 522 c 2,12,-1
 864 563 l 1,13,-1
 692 563 l 2,0,1
1063 639 m 2,14,-1
 938 0 l 1,15,-1
 754 0 l 1,16,-1
 786 166 l 1,17,18
 714 72 714 72 616 21.5 c 128,-1,19
 518 -29 518 -29 408 -29 c 0,20,21
 255 -29 255 -29 163.5 54.5 c 128,-1,22
 72 138 72 138 72 276 c 0,23,24
 72 472 72 472 226.5 589.5 c 128,-1,25
 381 707 381 707 645 707 c 2,26,-1
 891 707 l 1,27,-1
 903 768 l 2,28,29
 905 777 905 777 906 787 c 128,-1,30
 907 797 907 797 907 815 c 0,31,32
 907 900 907 900 844 945.5 c 128,-1,33
 781 991 781 991 664 991 c 0,34,35
 578 991 578 991 478.5 965.5 c 128,-1,36
 379 940 379 940 268 889 c 1,37,-1
 303 1069 l 1,38,39
 411 1108 411 1108 508 1127.5 c 128,-1,40
 605 1147 605 1147 694 1147 c 0,41,42
 880 1147 880 1147 983.5 1065 c 128,-1,43
 1087 983 1087 983 1087 838 c 0,44,45
 1087 806 1087 806 1081 754 c 128,-1,46
 1075 702 1075 702 1063 639 c 2,14,-1
655 1638 m 1,47,-1
 852 1262 l 1,48,-1
 709 1262 l 1,49,-1
 457 1638 l 1,50,-1
 655 1638 l 1,47,-1
EndSplineSet
EndChar

StartChar: aacute
Encoding: 225 225 163
Width: 1233
GlyphClass: 3
Flags: W
LayerCount: 2
Fore
SplineSet
692 563 m 2,0,1
 573 563 573 563 515 555.5 c 128,-1,2
 457 548 457 548 414 530 c 0,3,4
 346 503 346 503 305 441.5 c 128,-1,5
 264 380 264 380 264 307 c 0,6,7
 264 224 264 224 315.5 174.5 c 128,-1,8
 367 125 367 125 455 125 c 0,9,10
 603 125 603 125 710.5 231 c 128,-1,11
 818 337 818 337 856 522 c 2,12,-1
 864 563 l 1,13,-1
 692 563 l 2,0,1
1063 639 m 2,14,-1
 938 0 l 1,15,-1
 754 0 l 1,16,-1
 786 166 l 1,17,18
 714 72 714 72 616 21.5 c 128,-1,19
 518 -29 518 -29 408 -29 c 0,20,21
 255 -29 255 -29 163.5 54.5 c 128,-1,22
 72 138 72 138 72 276 c 0,23,24
 72 472 72 472 226.5 589.5 c 128,-1,25
 381 707 381 707 645 707 c 2,26,-1
 891 707 l 1,27,-1
 903 768 l 2,28,29
 905 777 905 777 906 787 c 128,-1,30
 907 797 907 797 907 815 c 0,31,32
 907 900 907 900 844 945.5 c 128,-1,33
 781 991 781 991 664 991 c 0,34,35
 578 991 578 991 478.5 965.5 c 128,-1,36
 379 940 379 940 268 889 c 1,37,-1
 303 1069 l 1,38,39
 411 1108 411 1108 508 1127.5 c 128,-1,40
 605 1147 605 1147 694 1147 c 0,41,42
 880 1147 880 1147 983.5 1065 c 128,-1,43
 1087 983 1087 983 1087 838 c 0,44,45
 1087 806 1087 806 1081 754 c 128,-1,46
 1075 702 1075 702 1063 639 c 2,14,-1
911 1638 m 1,47,-1
 1130 1638 l 1,48,-1
 735 1262 l 1,49,-1
 579 1262 l 1,50,-1
 911 1638 l 1,47,-1
EndSplineSet
EndChar

StartChar: acircumflex
Encoding: 226 226 164
Width: 1233
GlyphClass: 3
Flags: W
LayerCount: 2
Fore
SplineSet
692 563 m 2,0,1
 573 563 573 563 515 555.5 c 128,-1,2
 457 548 457 548 414 530 c 0,3,4
 346 503 346 503 305 441.5 c 128,-1,5
 264 380 264 380 264 307 c 0,6,7
 264 224 264 224 315.5 174.5 c 128,-1,8
 367 125 367 125 455 125 c 0,9,10
 603 125 603 125 710.5 231 c 128,-1,11
 818 337 818 337 856 522 c 2,12,-1
 864 563 l 1,13,-1
 692 563 l 2,0,1
1063 639 m 2,14,-1
 938 0 l 1,15,-1
 754 0 l 1,16,-1
 786 166 l 1,17,18
 714 72 714 72 616 21.5 c 128,-1,19
 518 -29 518 -29 408 -29 c 0,20,21
 255 -29 255 -29 163.5 54.5 c 128,-1,22
 72 138 72 138 72 276 c 0,23,24
 72 472 72 472 226.5 589.5 c 128,-1,25
 381 707 381 707 645 707 c 2,26,-1
 891 707 l 1,27,-1
 903 768 l 2,28,29
 905 777 905 777 906 787 c 128,-1,30
 907 797 907 797 907 815 c 0,31,32
 907 900 907 900 844 945.5 c 128,-1,33
 781 991 781 991 664 991 c 0,34,35
 578 991 578 991 478.5 965.5 c 128,-1,36
 379 940 379 940 268 889 c 1,37,-1
 303 1069 l 1,38,39
 411 1108 411 1108 508 1127.5 c 128,-1,40
 605 1147 605 1147 694 1147 c 0,41,42
 880 1147 880 1147 983.5 1065 c 128,-1,43
 1087 983 1087 983 1087 838 c 0,44,45
 1087 806 1087 806 1081 754 c 128,-1,46
 1075 702 1075 702 1063 639 c 2,14,-1
721 1638 m 1,47,-1
 868 1638 l 1,48,-1
 1032 1262 l 1,49,-1
 899 1262 l 1,50,-1
 782 1503 l 1,51,-1
 557 1262 l 1,52,-1
 401 1262 l 1,53,-1
 721 1638 l 1,47,-1
EndSplineSet
EndChar

StartChar: atilde
Encoding: 227 227 165
Width: 1233
GlyphClass: 3
Flags: W
LayerCount: 2
Fore
SplineSet
692 563 m 2,0,1
 573 563 573 563 515 555.5 c 128,-1,2
 457 548 457 548 414 530 c 0,3,4
 346 503 346 503 305 441.5 c 128,-1,5
 264 380 264 380 264 307 c 0,6,7
 264 224 264 224 315.5 174.5 c 128,-1,8
 367 125 367 125 455 125 c 0,9,10
 603 125 603 125 710.5 231 c 128,-1,11
 818 337 818 337 856 522 c 2,12,-1
 864 563 l 1,13,-1
 692 563 l 2,0,1
1063 639 m 2,14,-1
 938 0 l 1,15,-1
 754 0 l 1,16,-1
 786 166 l 1,17,18
 714 72 714 72 616 21.5 c 128,-1,19
 518 -29 518 -29 408 -29 c 0,20,21
 255 -29 255 -29 163.5 54.5 c 128,-1,22
 72 138 72 138 72 276 c 0,23,24
 72 472 72 472 226.5 589.5 c 128,-1,25
 381 707 381 707 645 707 c 2,26,-1
 891 707 l 1,27,-1
 903 768 l 2,28,29
 905 777 905 777 906 787 c 128,-1,30
 907 797 907 797 907 815 c 0,31,32
 907 900 907 900 844 945.5 c 128,-1,33
 781 991 781 991 664 991 c 0,34,35
 578 991 578 991 478.5 965.5 c 128,-1,36
 379 940 379 940 268 889 c 1,37,-1
 303 1069 l 1,38,39
 411 1108 411 1108 508 1127.5 c 128,-1,40
 605 1147 605 1147 694 1147 c 0,41,42
 880 1147 880 1147 983.5 1065 c 128,-1,43
 1087 983 1087 983 1087 838 c 0,44,45
 1087 806 1087 806 1081 754 c 128,-1,46
 1075 702 1075 702 1063 639 c 2,14,-1
745 1376 m 2,47,-1
 698 1425 l 2,48,49
 679 1444 679 1444 661.5 1453 c 128,-1,50
 644 1462 644 1462 627 1462 c 0,51,52
 585 1462 585 1462 561.5 1424.5 c 128,-1,53
 538 1387 538 1387 530 1309 c 1,54,-1
 405 1309 l 1,55,56
 422 1445 422 1445 479 1518 c 128,-1,57
 536 1591 536 1591 625 1591 c 0,58,59
 668 1591 668 1591 702 1575.5 c 128,-1,60
 736 1560 736 1560 774 1522 c 2,61,-1
 821 1475 l 2,62,63
 842 1453 842 1453 858 1444.5 c 128,-1,64
 874 1436 874 1436 891 1436 c 0,65,66
 932 1436 932 1436 956.5 1475 c 128,-1,67
 981 1514 981 1514 989 1591 c 1,68,-1
 1114 1591 l 1,69,70
 1097 1454 1097 1454 1040.5 1380.5 c 128,-1,71
 984 1307 984 1307 895 1307 c 0,72,73
 851 1307 851 1307 818 1321.5 c 128,-1,74
 785 1336 785 1336 745 1376 c 2,47,-1
EndSplineSet
EndChar

StartChar: adieresis
Encoding: 228 228 166
Width: 1233
GlyphClass: 3
Flags: W
LayerCount: 2
Fore
SplineSet
692 563 m 2,0,1
 573 563 573 563 515 555.5 c 128,-1,2
 457 548 457 548 414 530 c 0,3,4
 346 503 346 503 305 441.5 c 128,-1,5
 264 380 264 380 264 307 c 0,6,7
 264 224 264 224 315.5 174.5 c 128,-1,8
 367 125 367 125 455 125 c 0,9,10
 603 125 603 125 710.5 231 c 128,-1,11
 818 337 818 337 856 522 c 2,12,-1
 864 563 l 1,13,-1
 692 563 l 2,0,1
1063 639 m 2,14,-1
 938 0 l 1,15,-1
 754 0 l 1,16,-1
 786 166 l 1,17,18
 714 72 714 72 616 21.5 c 128,-1,19
 518 -29 518 -29 408 -29 c 0,20,21
 255 -29 255 -29 163.5 54.5 c 128,-1,22
 72 138 72 138 72 276 c 0,23,24
 72 472 72 472 226.5 589.5 c 128,-1,25
 381 707 381 707 645 707 c 2,26,-1
 891 707 l 1,27,-1
 903 768 l 2,28,29
 905 777 905 777 906 787 c 128,-1,30
 907 797 907 797 907 815 c 0,31,32
 907 900 907 900 844 945.5 c 128,-1,33
 781 991 781 991 664 991 c 0,34,35
 578 991 578 991 478.5 965.5 c 128,-1,36
 379 940 379 940 268 889 c 1,37,-1
 303 1069 l 1,38,39
 411 1108 411 1108 508 1127.5 c 128,-1,40
 605 1147 605 1147 694 1147 c 0,41,42
 880 1147 880 1147 983.5 1065 c 128,-1,43
 1087 983 1087 983 1087 838 c 0,44,45
 1087 806 1087 806 1081 754 c 128,-1,46
 1075 702 1075 702 1063 639 c 2,14,-1
479 1552 m 1,47,-1
 682 1552 l 1,48,-1
 643 1350 l 1,49,-1
 440 1350 l 1,50,-1
 479 1552 l 1,47,-1
870 1552 m 1,51,-1
 1073 1552 l 1,52,-1
 1034 1350 l 1,53,-1
 831 1350 l 1,54,-1
 870 1552 l 1,51,-1
EndSplineSet
EndChar

StartChar: aring
Encoding: 229 229 167
Width: 1233
GlyphClass: 3
Flags: W
LayerCount: 2
Fore
SplineSet
692 563 m 2,0,1
 573 563 573 563 515 555.5 c 128,-1,2
 457 548 457 548 414 530 c 0,3,4
 346 503 346 503 305 441.5 c 128,-1,5
 264 380 264 380 264 307 c 0,6,7
 264 224 264 224 315.5 174.5 c 128,-1,8
 367 125 367 125 455 125 c 0,9,10
 603 125 603 125 710.5 231 c 128,-1,11
 818 337 818 337 856 522 c 2,12,-1
 864 563 l 1,13,-1
 692 563 l 2,0,1
1063 639 m 2,14,-1
 938 0 l 1,15,-1
 754 0 l 1,16,-1
 786 166 l 1,17,18
 714 72 714 72 616 21.5 c 128,-1,19
 518 -29 518 -29 408 -29 c 0,20,21
 255 -29 255 -29 163.5 54.5 c 128,-1,22
 72 138 72 138 72 276 c 0,23,24
 72 472 72 472 226.5 589.5 c 128,-1,25
 381 707 381 707 645 707 c 2,26,-1
 891 707 l 1,27,-1
 903 768 l 2,28,29
 905 777 905 777 906 787 c 128,-1,30
 907 797 907 797 907 815 c 0,31,32
 907 900 907 900 844 945.5 c 128,-1,33
 781 991 781 991 664 991 c 0,34,35
 578 991 578 991 478.5 965.5 c 128,-1,36
 379 940 379 940 268 889 c 1,37,-1
 303 1069 l 1,38,39
 411 1108 411 1108 508 1127.5 c 128,-1,40
 605 1147 605 1147 694 1147 c 0,41,42
 880 1147 880 1147 983.5 1065 c 128,-1,43
 1087 983 1087 983 1087 838 c 0,44,45
 1087 806 1087 806 1081 754 c 128,-1,46
 1075 702 1075 702 1063 639 c 2,14,-1
934 1595 m 0,47,48
 934 1659 934 1659 890 1703 c 128,-1,49
 846 1747 846 1747 782 1747 c 256,50,51
 718 1747 718 1747 674.5 1703.5 c 128,-1,52
 631 1660 631 1660 631 1595 c 0,53,54
 631 1531 631 1531 674.5 1487.5 c 128,-1,55
 718 1444 718 1444 782 1444 c 256,56,57
 846 1444 846 1444 890 1488 c 128,-1,58
 934 1532 934 1532 934 1595 c 0,47,48
1057 1595 m 0,59,60
 1057 1480 1057 1480 977 1400.5 c 128,-1,61
 897 1321 897 1321 782 1321 c 256,62,63
 667 1321 667 1321 587.5 1400.5 c 128,-1,64
 508 1480 508 1480 508 1595 c 0,65,66
 508 1711 508 1711 587.5 1790.5 c 128,-1,67
 667 1870 667 1870 782 1870 c 256,68,69
 897 1870 897 1870 977 1790.5 c 128,-1,70
 1057 1711 1057 1711 1057 1595 c 0,59,60
EndSplineSet
EndChar

StartChar: ae
Encoding: 230 230 168
Width: 1233
GlyphClass: 2
Flags: W
LayerCount: 2
Fore
SplineSet
487 442 m 2,0,-1
 502 514 l 1,1,-1
 453 514 l 2,2,3
 328 514 328 514 275.5 498.5 c 128,-1,4
 223 483 223 483 188 444 c 0,5,6
 158 411 158 411 140.5 362 c 128,-1,7
 123 313 123 313 123 262 c 0,8,9
 123 202 123 202 162 162.5 c 128,-1,10
 201 123 201 123 260 123 c 0,11,12
 350 123 350 123 400.5 190 c 128,-1,13
 451 257 451 257 487 442 c 2,0,-1
1024 657 m 1,14,-1
 1040 731 l 2,15,16
 1046 758 1046 758 1048.5 786 c 128,-1,17
 1051 814 1051 814 1051 846 c 0,18,19
 1051 916 1051 916 1017 955.5 c 128,-1,20
 983 995 983 995 924 995 c 0,21,22
 841 995 841 995 788 931.5 c 128,-1,23
 735 868 735 868 711 739 c 2,24,-1
 694 657 l 1,25,-1
 1024 657 l 1,14,-1
1163 514 m 1,26,-1
 668 514 l 1,27,28
 649 423 649 423 641 368 c 128,-1,29
 633 313 633 313 633 285 c 0,30,31
 633 207 633 207 681.5 163 c 128,-1,32
 730 119 730 119 815 119 c 0,33,34
 885 119 885 119 956.5 148 c 128,-1,35
 1028 177 1028 177 1081 227 c 1,36,-1
 1047 55 l 1,37,38
 988 14 988 14 922 -7.5 c 128,-1,39
 856 -29 856 -29 784 -29 c 0,40,41
 678 -29 678 -29 608.5 12.5 c 128,-1,42
 539 54 539 54 514 131 c 1,43,44
 467 51 467 51 396.5 11 c 128,-1,45
 326 -29 326 -29 233 -29 c 0,46,47
 105 -29 105 -29 29 44 c 128,-1,48
 -47 117 -47 117 -47 240 c 0,49,50
 -47 440 -47 440 73.5 548.5 c 128,-1,51
 194 657 194 657 418 657 c 2,52,-1
 535 657 l 1,53,-1
 553 745 l 2,54,55
 557 765 557 765 559 786.5 c 128,-1,56
 561 808 561 808 561 834 c 0,57,58
 561 910 561 910 518.5 952.5 c 128,-1,59
 476 995 476 995 399 995 c 0,60,61
 350 995 350 995 283.5 973.5 c 128,-1,62
 217 952 217 952 141 911 c 1,63,-1
 176 1079 l 1,64,65
 255 1113 255 1113 324 1130 c 128,-1,66
 393 1147 393 1147 449 1147 c 0,67,68
 531 1147 531 1147 590 1114 c 128,-1,69
 649 1081 649 1081 680 1018 c 1,70,71
 730 1080 730 1080 800 1113.5 c 128,-1,72
 870 1147 870 1147 950 1147 c 0,73,74
 1071 1147 1071 1147 1142.5 1070 c 128,-1,75
 1214 993 1214 993 1214 862 c 0,76,77
 1214 823 1214 823 1205.5 759.5 c 128,-1,78
 1197 696 1197 696 1180 604 c 2,79,-1
 1163 514 l 1,26,-1
EndSplineSet
EndChar

StartChar: ccedilla
Encoding: 231 231 169
Width: 1233
GlyphClass: 3
Flags: W
LayerCount: 2
Fore
SplineSet
940 51 m 1,0,1
 867 12 867 12 783.5 -8.5 c 128,-1,2
 700 -29 700 -29 610 -29 c 0,3,4
 386 -29 386 -29 271 83.5 c 128,-1,5
 156 196 156 196 156 416 c 0,6,7
 156 565 156 565 209.5 708.5 c 128,-1,8
 263 852 263 852 354 950 c 0,9,10
 447 1049 447 1049 558.5 1098 c 128,-1,11
 670 1147 670 1147 803 1147 c 0,12,13
 892 1147 892 1147 975 1125.5 c 128,-1,14
 1058 1104 1058 1104 1137 1061 c 1,15,-1
 1100 879 l 1,16,17
 1034 937 1034 937 964 964 c 128,-1,18
 894 991 894 991 809 991 c 0,19,20
 699 991 699 991 614 946.5 c 128,-1,21
 529 902 529 902 469 813 c 0,22,23
 413 731 413 731 381.5 625.5 c 128,-1,24
 350 520 350 520 350 416 c 0,25,26
 350 272 350 272 418.5 199.5 c 128,-1,27
 487 127 487 127 623 127 c 0,28,29
 719 127 719 127 807.5 158 c 128,-1,30
 896 189 896 189 979 252 c 1,31,-1
 940 51 l 1,0,1
659 0 m 1,32,33
 696 -64 696 -64 713.5 -110.5 c 128,-1,34
 731 -157 731 -157 731 -193 c 0,35,36
 731 -286 731 -286 660.5 -340.5 c 128,-1,37
 590 -395 590 -395 471 -395 c 0,38,39
 427 -395 427 -395 380 -387.5 c 128,-1,40
 333 -380 333 -380 286 -365 c 1,41,-1
 311 -236 l 1,42,43
 351 -255 351 -255 387.5 -264.5 c 128,-1,44
 424 -274 424 -274 456 -274 c 0,45,46
 523 -274 523 -274 560.5 -244 c 128,-1,47
 598 -214 598 -214 598 -160 c 0,48,49
 598 -132 598 -132 583.5 -93 c 128,-1,50
 569 -54 569 -54 540 0 c 1,51,-1
 659 0 l 1,32,33
EndSplineSet
EndChar

StartChar: egrave
Encoding: 232 232 170
Width: 1233
GlyphClass: 3
Flags: W
LayerCount: 2
Fore
SplineSet
938 659 m 1,0,1
 944 686 944 686 946 703.5 c 128,-1,2
 948 721 948 721 948 737 c 0,3,4
 948 857 948 857 883 924 c 128,-1,5
 818 991 818 991 702 991 c 0,6,7
 579 991 579 991 477.5 901 c 128,-1,8
 376 811 376 811 332 659 c 1,9,-1
 938 659 l 1,0,1
961 57 m 1,10,11
 856 14 856 14 756 -7.5 c 128,-1,12
 656 -29 656 -29 553 -29 c 0,13,14
 330 -29 330 -29 214 82.5 c 128,-1,15
 98 194 98 194 98 408 c 0,16,17
 98 564 98 564 158 714 c 128,-1,18
 218 864 218 864 324 973 c 0,19,20
 407 1059 407 1059 507.5 1104 c 128,-1,21
 608 1149 608 1149 717 1149 c 0,22,23
 903 1149 903 1149 1014.5 1034.5 c 128,-1,24
 1126 920 1126 920 1126 729 c 0,25,26
 1126 695 1126 695 1121 644.5 c 128,-1,27
 1116 594 1116 594 1104 516 c 1,28,-1
 297 516 l 1,29,30
 291 484 291 484 288 458 c 128,-1,31
 285 432 285 432 285 412 c 0,32,33
 285 273 285 273 362 200 c 128,-1,34
 439 127 439 127 586 127 c 0,35,36
 674 127 674 127 778.5 155.5 c 128,-1,37
 883 184 883 184 997 240 c 1,38,-1
 961 57 l 1,10,11
651 1638 m 1,39,-1
 848 1262 l 1,40,-1
 705 1262 l 1,41,-1
 453 1638 l 1,42,-1
 651 1638 l 1,39,-1
EndSplineSet
EndChar

StartChar: eacute
Encoding: 233 233 171
Width: 1233
GlyphClass: 3
Flags: W
LayerCount: 2
Fore
SplineSet
938 659 m 1,0,1
 944 686 944 686 946 703.5 c 128,-1,2
 948 721 948 721 948 737 c 0,3,4
 948 857 948 857 883 924 c 128,-1,5
 818 991 818 991 702 991 c 0,6,7
 579 991 579 991 477.5 901 c 128,-1,8
 376 811 376 811 332 659 c 1,9,-1
 938 659 l 1,0,1
961 57 m 1,10,11
 856 14 856 14 756 -7.5 c 128,-1,12
 656 -29 656 -29 553 -29 c 0,13,14
 330 -29 330 -29 214 82.5 c 128,-1,15
 98 194 98 194 98 408 c 0,16,17
 98 564 98 564 158 714 c 128,-1,18
 218 864 218 864 324 973 c 0,19,20
 407 1059 407 1059 507.5 1104 c 128,-1,21
 608 1149 608 1149 717 1149 c 0,22,23
 903 1149 903 1149 1014.5 1034.5 c 128,-1,24
 1126 920 1126 920 1126 729 c 0,25,26
 1126 695 1126 695 1121 644.5 c 128,-1,27
 1116 594 1116 594 1104 516 c 1,28,-1
 297 516 l 1,29,30
 291 484 291 484 288 458 c 128,-1,31
 285 432 285 432 285 412 c 0,32,33
 285 273 285 273 362 200 c 128,-1,34
 439 127 439 127 586 127 c 0,35,36
 674 127 674 127 778.5 155.5 c 128,-1,37
 883 184 883 184 997 240 c 1,38,-1
 961 57 l 1,10,11
907 1638 m 1,39,-1
 1126 1638 l 1,40,-1
 731 1262 l 1,41,-1
 575 1262 l 1,42,-1
 907 1638 l 1,39,-1
EndSplineSet
EndChar

StartChar: ecircumflex
Encoding: 234 234 172
Width: 1233
GlyphClass: 3
Flags: W
LayerCount: 2
Fore
SplineSet
938 659 m 1,0,1
 944 686 944 686 946 703.5 c 128,-1,2
 948 721 948 721 948 737 c 0,3,4
 948 857 948 857 883 924 c 128,-1,5
 818 991 818 991 702 991 c 0,6,7
 579 991 579 991 477.5 901 c 128,-1,8
 376 811 376 811 332 659 c 1,9,-1
 938 659 l 1,0,1
961 57 m 1,10,11
 856 14 856 14 756 -7.5 c 128,-1,12
 656 -29 656 -29 553 -29 c 0,13,14
 330 -29 330 -29 214 82.5 c 128,-1,15
 98 194 98 194 98 408 c 0,16,17
 98 564 98 564 158 714 c 128,-1,18
 218 864 218 864 324 973 c 0,19,20
 407 1059 407 1059 507.5 1104 c 128,-1,21
 608 1149 608 1149 717 1149 c 0,22,23
 903 1149 903 1149 1014.5 1034.5 c 128,-1,24
 1126 920 1126 920 1126 729 c 0,25,26
 1126 695 1126 695 1121 644.5 c 128,-1,27
 1116 594 1116 594 1104 516 c 1,28,-1
 297 516 l 1,29,30
 291 484 291 484 288 458 c 128,-1,31
 285 432 285 432 285 412 c 0,32,33
 285 273 285 273 362 200 c 128,-1,34
 439 127 439 127 586 127 c 0,35,36
 674 127 674 127 778.5 155.5 c 128,-1,37
 883 184 883 184 997 240 c 1,38,-1
 961 57 l 1,10,11
717 1638 m 1,39,-1
 864 1638 l 1,40,-1
 1028 1262 l 1,41,-1
 895 1262 l 1,42,-1
 778 1503 l 1,43,-1
 553 1262 l 1,44,-1
 397 1262 l 1,45,-1
 717 1638 l 1,39,-1
EndSplineSet
EndChar

StartChar: edieresis
Encoding: 235 235 173
Width: 1233
GlyphClass: 3
Flags: W
LayerCount: 2
Fore
SplineSet
938 659 m 1,0,1
 944 686 944 686 946 703.5 c 128,-1,2
 948 721 948 721 948 737 c 0,3,4
 948 857 948 857 883 924 c 128,-1,5
 818 991 818 991 702 991 c 0,6,7
 579 991 579 991 477.5 901 c 128,-1,8
 376 811 376 811 332 659 c 1,9,-1
 938 659 l 1,0,1
961 57 m 1,10,11
 856 14 856 14 756 -7.5 c 128,-1,12
 656 -29 656 -29 553 -29 c 0,13,14
 330 -29 330 -29 214 82.5 c 128,-1,15
 98 194 98 194 98 408 c 0,16,17
 98 564 98 564 158 714 c 128,-1,18
 218 864 218 864 324 973 c 0,19,20
 407 1059 407 1059 507.5 1104 c 128,-1,21
 608 1149 608 1149 717 1149 c 0,22,23
 903 1149 903 1149 1014.5 1034.5 c 128,-1,24
 1126 920 1126 920 1126 729 c 0,25,26
 1126 695 1126 695 1121 644.5 c 128,-1,27
 1116 594 1116 594 1104 516 c 1,28,-1
 297 516 l 1,29,30
 291 484 291 484 288 458 c 128,-1,31
 285 432 285 432 285 412 c 0,32,33
 285 273 285 273 362 200 c 128,-1,34
 439 127 439 127 586 127 c 0,35,36
 674 127 674 127 778.5 155.5 c 128,-1,37
 883 184 883 184 997 240 c 1,38,-1
 961 57 l 1,10,11
475 1552 m 1,39,-1
 678 1552 l 1,40,-1
 639 1350 l 1,41,-1
 436 1350 l 1,42,-1
 475 1552 l 1,39,-1
866 1552 m 1,43,-1
 1069 1552 l 1,44,-1
 1030 1350 l 1,45,-1
 827 1350 l 1,46,-1
 866 1552 l 1,43,-1
EndSplineSet
EndChar

StartChar: igrave
Encoding: 236 236 174
Width: 1233
GlyphClass: 3
Flags: W
LayerCount: 2
Fore
SplineSet
358 1120 m 1,0,-1
 829 1120 l 1,1,-1
 639 143 l 1,2,-1
 1004 143 l 1,3,-1
 975 0 l 1,4,-1
 61 0 l 1,5,-1
 90 143 l 1,6,-1
 455 143 l 1,7,-1
 616 977 l 1,8,-1
 330 977 l 1,9,-1
 358 1120 l 1,0,-1
623 1638 m 1,10,-1
 820 1262 l 1,11,-1
 677 1262 l 1,12,-1
 425 1638 l 1,13,-1
 623 1638 l 1,10,-1
EndSplineSet
EndChar

StartChar: iacute
Encoding: 237 237 175
Width: 1233
GlyphClass: 3
Flags: W
LayerCount: 2
Fore
SplineSet
358 1120 m 1,0,-1
 829 1120 l 1,1,-1
 639 143 l 1,2,-1
 1004 143 l 1,3,-1
 975 0 l 1,4,-1
 61 0 l 1,5,-1
 90 143 l 1,6,-1
 455 143 l 1,7,-1
 616 977 l 1,8,-1
 330 977 l 1,9,-1
 358 1120 l 1,0,-1
879 1638 m 1,10,-1
 1098 1638 l 1,11,-1
 703 1262 l 1,12,-1
 547 1262 l 1,13,-1
 879 1638 l 1,10,-1
EndSplineSet
EndChar

StartChar: icircumflex
Encoding: 238 238 176
Width: 1233
GlyphClass: 3
Flags: W
LayerCount: 2
Fore
SplineSet
358 1120 m 1,0,-1
 829 1120 l 1,1,-1
 639 143 l 1,2,-1
 1004 143 l 1,3,-1
 975 0 l 1,4,-1
 61 0 l 1,5,-1
 90 143 l 1,6,-1
 455 143 l 1,7,-1
 616 977 l 1,8,-1
 330 977 l 1,9,-1
 358 1120 l 1,0,-1
689 1638 m 1,10,-1
 836 1638 l 1,11,-1
 1000 1262 l 1,12,-1
 867 1262 l 1,13,-1
 750 1503 l 1,14,-1
 525 1262 l 1,15,-1
 369 1262 l 1,16,-1
 689 1638 l 1,10,-1
EndSplineSet
EndChar

StartChar: idieresis
Encoding: 239 239 177
Width: 1233
GlyphClass: 3
Flags: W
LayerCount: 2
Fore
SplineSet
358 1120 m 1,0,-1
 829 1120 l 1,1,-1
 639 143 l 1,2,-1
 1004 143 l 1,3,-1
 975 0 l 1,4,-1
 61 0 l 1,5,-1
 90 143 l 1,6,-1
 455 143 l 1,7,-1
 616 977 l 1,8,-1
 330 977 l 1,9,-1
 358 1120 l 1,0,-1
447 1552 m 1,10,-1
 650 1552 l 1,11,-1
 611 1350 l 1,12,-1
 408 1350 l 1,13,-1
 447 1552 l 1,10,-1
838 1552 m 1,14,-1
 1041 1552 l 1,15,-1
 1002 1350 l 1,16,-1
 799 1350 l 1,17,-1
 838 1552 l 1,14,-1
EndSplineSet
EndChar

StartChar: eth
Encoding: 240 240 178
Width: 1233
GlyphClass: 2
Flags: W
LayerCount: 2
Fore
SplineSet
870 1327 m 1,0,1
 993 1156 993 1156 1049.5 1007 c 128,-1,2
 1106 858 1106 858 1106 707 c 0,3,4
 1106 568 1106 568 1068.5 439.5 c 128,-1,5
 1031 311 1031 311 961 207 c 0,6,7
 884 91 884 91 770.5 31 c 128,-1,8
 657 -29 657 -29 516 -29 c 0,9,10
 323 -29 323 -29 221 78.5 c 128,-1,11
 119 186 119 186 119 389 c 0,12,13
 119 515 119 515 157 637 c 128,-1,14
 195 759 195 759 266 864 c 0,15,16
 342 975 342 975 457.5 1036.5 c 128,-1,17
 573 1098 573 1098 707 1098 c 0,18,19
 724 1098 724 1098 772 1093 c 0,20,21
 793 1091 793 1091 805 1090 c 1,22,23
 786 1128 786 1128 759.5 1171 c 128,-1,24
 733 1214 733 1214 692 1272 c 1,25,-1
 395 1178 l 1,26,-1
 365 1270 l 1,27,-1
 639 1356 l 1,28,-1
 498 1556 l 1,29,-1
 711 1556 l 1,30,-1
 815 1411 l 1,31,-1
 1102 1499 l 1,32,-1
 1130 1407 l 1,33,-1
 870 1327 l 1,0,1
874 907 m 1,34,35
 837 926 837 926 797 935 c 128,-1,36
 757 944 757 944 713 944 c 0,37,38
 534 944 534 944 423.5 788 c 128,-1,39
 313 632 313 632 313 379 c 0,40,41
 313 259 313 259 370.5 193 c 128,-1,42
 428 127 428 127 532 127 c 0,43,44
 699 127 699 127 805 287.5 c 128,-1,45
 911 448 911 448 911 705 c 0,46,47
 911 769 911 769 902 819.5 c 128,-1,48
 893 870 893 870 874 907 c 1,34,35
EndSplineSet
EndChar

StartChar: ntilde
Encoding: 241 241 179
Width: 1233
GlyphClass: 3
Flags: W
LayerCount: 2
Fore
SplineSet
1075 694 m 2,0,-1
 940 0 l 1,1,-1
 756 0 l 1,2,-1
 891 695 l 2,3,4
 892 699 892 699 894 709 c 0,5,6
 909 780 909 780 909 819 c 0,7,8
 909 900 909 900 862.5 943.5 c 128,-1,9
 816 987 816 987 729 987 c 0,10,11
 602 987 602 987 513 894 c 128,-1,12
 424 801 424 801 391 633 c 2,13,-1
 268 0 l 1,14,-1
 84 0 l 1,15,-1
 303 1120 l 1,16,-1
 487 1120 l 1,17,-1
 455 952 l 1,18,19
 530 1049 530 1049 617.5 1098 c 128,-1,20
 705 1147 705 1147 803 1147 c 0,21,22
 942 1147 942 1147 1019 1074.5 c 128,-1,23
 1096 1002 1096 1002 1096 872 c 0,24,25
 1096 840 1096 840 1090.5 793 c 128,-1,26
 1085 746 1085 746 1075 694 c 2,0,-1
741 1376 m 2,27,-1
 694 1425 l 2,28,29
 675 1444 675 1444 657.5 1453 c 128,-1,30
 640 1462 640 1462 623 1462 c 0,31,32
 581 1462 581 1462 557.5 1424.5 c 128,-1,33
 534 1387 534 1387 526 1309 c 1,34,-1
 401 1309 l 1,35,36
 418 1445 418 1445 475 1518 c 128,-1,37
 532 1591 532 1591 621 1591 c 0,38,39
 664 1591 664 1591 698 1575.5 c 128,-1,40
 732 1560 732 1560 770 1522 c 2,41,-1
 817 1475 l 2,42,43
 838 1453 838 1453 854 1444.5 c 128,-1,44
 870 1436 870 1436 887 1436 c 0,45,46
 928 1436 928 1436 952.5 1475 c 128,-1,47
 977 1514 977 1514 985 1591 c 1,48,-1
 1110 1591 l 1,49,50
 1093 1454 1093 1454 1036.5 1380.5 c 128,-1,51
 980 1307 980 1307 891 1307 c 0,52,53
 847 1307 847 1307 814 1321.5 c 128,-1,54
 781 1336 781 1336 741 1376 c 2,27,-1
EndSplineSet
EndChar

StartChar: ograve
Encoding: 242 242 180
Width: 1233
GlyphClass: 3
Flags: W
LayerCount: 2
Fore
SplineSet
696 991 m 0,0,1
 532 991 532 991 422.5 820 c 128,-1,2
 313 649 313 649 313 385 c 0,3,4
 313 256 313 256 369 191.5 c 128,-1,5
 425 127 425 127 537 127 c 0,6,7
 701 127 701 127 810.5 298 c 128,-1,8
 920 469 920 469 920 733 c 0,9,10
 920 862 920 862 864 926.5 c 128,-1,11
 808 991 808 991 696 991 c 0,0,1
713 1147 m 0,12,13
 909 1147 909 1147 1011.5 1040 c 128,-1,14
 1114 933 1114 933 1114 727 c 0,15,16
 1114 589 1114 589 1073 452.5 c 128,-1,17
 1032 316 1032 316 958 207 c 0,18,19
 879 89 879 89 766 30 c 128,-1,20
 653 -29 653 -29 506 -29 c 0,21,22
 319 -29 319 -29 218 80.5 c 128,-1,23
 117 190 117 190 117 393 c 0,24,25
 117 528 117 528 158 663 c 128,-1,26
 199 798 199 798 274 911 c 0,27,28
 353 1027 353 1027 464.5 1087 c 128,-1,29
 576 1147 576 1147 713 1147 c 0,12,13
651 1638 m 1,30,-1
 848 1262 l 1,31,-1
 705 1262 l 1,32,-1
 453 1638 l 1,33,-1
 651 1638 l 1,30,-1
EndSplineSet
EndChar

StartChar: oacute
Encoding: 243 243 181
Width: 1233
GlyphClass: 3
Flags: W
LayerCount: 2
Fore
SplineSet
696 991 m 0,0,1
 532 991 532 991 422.5 820 c 128,-1,2
 313 649 313 649 313 385 c 0,3,4
 313 256 313 256 369 191.5 c 128,-1,5
 425 127 425 127 537 127 c 0,6,7
 701 127 701 127 810.5 298 c 128,-1,8
 920 469 920 469 920 733 c 0,9,10
 920 862 920 862 864 926.5 c 128,-1,11
 808 991 808 991 696 991 c 0,0,1
713 1147 m 0,12,13
 909 1147 909 1147 1011.5 1040 c 128,-1,14
 1114 933 1114 933 1114 727 c 0,15,16
 1114 589 1114 589 1073 452.5 c 128,-1,17
 1032 316 1032 316 958 207 c 0,18,19
 879 89 879 89 766 30 c 128,-1,20
 653 -29 653 -29 506 -29 c 0,21,22
 319 -29 319 -29 218 80.5 c 128,-1,23
 117 190 117 190 117 393 c 0,24,25
 117 528 117 528 158 663 c 128,-1,26
 199 798 199 798 274 911 c 0,27,28
 353 1027 353 1027 464.5 1087 c 128,-1,29
 576 1147 576 1147 713 1147 c 0,12,13
907 1638 m 1,30,-1
 1126 1638 l 1,31,-1
 731 1262 l 1,32,-1
 575 1262 l 1,33,-1
 907 1638 l 1,30,-1
EndSplineSet
EndChar

StartChar: ocircumflex
Encoding: 244 244 182
Width: 1233
GlyphClass: 3
Flags: W
LayerCount: 2
Fore
SplineSet
696 991 m 0,0,1
 532 991 532 991 422.5 820 c 128,-1,2
 313 649 313 649 313 385 c 0,3,4
 313 256 313 256 369 191.5 c 128,-1,5
 425 127 425 127 537 127 c 0,6,7
 701 127 701 127 810.5 298 c 128,-1,8
 920 469 920 469 920 733 c 0,9,10
 920 862 920 862 864 926.5 c 128,-1,11
 808 991 808 991 696 991 c 0,0,1
713 1147 m 0,12,13
 909 1147 909 1147 1011.5 1040 c 128,-1,14
 1114 933 1114 933 1114 727 c 0,15,16
 1114 589 1114 589 1073 452.5 c 128,-1,17
 1032 316 1032 316 958 207 c 0,18,19
 879 89 879 89 766 30 c 128,-1,20
 653 -29 653 -29 506 -29 c 0,21,22
 319 -29 319 -29 218 80.5 c 128,-1,23
 117 190 117 190 117 393 c 0,24,25
 117 528 117 528 158 663 c 128,-1,26
 199 798 199 798 274 911 c 0,27,28
 353 1027 353 1027 464.5 1087 c 128,-1,29
 576 1147 576 1147 713 1147 c 0,12,13
717 1638 m 1,30,-1
 864 1638 l 1,31,-1
 1028 1262 l 1,32,-1
 895 1262 l 1,33,-1
 778 1503 l 1,34,-1
 553 1262 l 1,35,-1
 397 1262 l 1,36,-1
 717 1638 l 1,30,-1
EndSplineSet
EndChar

StartChar: otilde
Encoding: 245 245 183
Width: 1233
GlyphClass: 3
Flags: W
LayerCount: 2
Fore
SplineSet
696 991 m 0,0,1
 532 991 532 991 422.5 820 c 128,-1,2
 313 649 313 649 313 385 c 0,3,4
 313 256 313 256 369 191.5 c 128,-1,5
 425 127 425 127 537 127 c 0,6,7
 701 127 701 127 810.5 298 c 128,-1,8
 920 469 920 469 920 733 c 0,9,10
 920 862 920 862 864 926.5 c 128,-1,11
 808 991 808 991 696 991 c 0,0,1
713 1147 m 0,12,13
 909 1147 909 1147 1011.5 1040 c 128,-1,14
 1114 933 1114 933 1114 727 c 0,15,16
 1114 589 1114 589 1073 452.5 c 128,-1,17
 1032 316 1032 316 958 207 c 0,18,19
 879 89 879 89 766 30 c 128,-1,20
 653 -29 653 -29 506 -29 c 0,21,22
 319 -29 319 -29 218 80.5 c 128,-1,23
 117 190 117 190 117 393 c 0,24,25
 117 528 117 528 158 663 c 128,-1,26
 199 798 199 798 274 911 c 0,27,28
 353 1027 353 1027 464.5 1087 c 128,-1,29
 576 1147 576 1147 713 1147 c 0,12,13
741 1376 m 2,30,-1
 694 1425 l 2,31,32
 675 1444 675 1444 657.5 1453 c 128,-1,33
 640 1462 640 1462 623 1462 c 0,34,35
 581 1462 581 1462 557.5 1424.5 c 128,-1,36
 534 1387 534 1387 526 1309 c 1,37,-1
 401 1309 l 1,38,39
 418 1445 418 1445 475 1518 c 128,-1,40
 532 1591 532 1591 621 1591 c 0,41,42
 664 1591 664 1591 698 1575.5 c 128,-1,43
 732 1560 732 1560 770 1522 c 2,44,-1
 817 1475 l 2,45,46
 838 1453 838 1453 854 1444.5 c 128,-1,47
 870 1436 870 1436 887 1436 c 0,48,49
 928 1436 928 1436 952.5 1475 c 128,-1,50
 977 1514 977 1514 985 1591 c 1,51,-1
 1110 1591 l 1,52,53
 1093 1454 1093 1454 1036.5 1380.5 c 128,-1,54
 980 1307 980 1307 891 1307 c 0,55,56
 847 1307 847 1307 814 1321.5 c 128,-1,57
 781 1336 781 1336 741 1376 c 2,30,-1
EndSplineSet
EndChar

StartChar: odieresis
Encoding: 246 246 184
Width: 1233
GlyphClass: 3
Flags: W
LayerCount: 2
Fore
SplineSet
696 991 m 0,0,1
 532 991 532 991 422.5 820 c 128,-1,2
 313 649 313 649 313 385 c 0,3,4
 313 256 313 256 369 191.5 c 128,-1,5
 425 127 425 127 537 127 c 0,6,7
 701 127 701 127 810.5 298 c 128,-1,8
 920 469 920 469 920 733 c 0,9,10
 920 862 920 862 864 926.5 c 128,-1,11
 808 991 808 991 696 991 c 0,0,1
713 1147 m 0,12,13
 909 1147 909 1147 1011.5 1040 c 128,-1,14
 1114 933 1114 933 1114 727 c 0,15,16
 1114 589 1114 589 1073 452.5 c 128,-1,17
 1032 316 1032 316 958 207 c 0,18,19
 879 89 879 89 766 30 c 128,-1,20
 653 -29 653 -29 506 -29 c 0,21,22
 319 -29 319 -29 218 80.5 c 128,-1,23
 117 190 117 190 117 393 c 0,24,25
 117 528 117 528 158 663 c 128,-1,26
 199 798 199 798 274 911 c 0,27,28
 353 1027 353 1027 464.5 1087 c 128,-1,29
 576 1147 576 1147 713 1147 c 0,12,13
475 1552 m 1,30,-1
 678 1552 l 1,31,-1
 639 1350 l 1,32,-1
 436 1350 l 1,33,-1
 475 1552 l 1,30,-1
866 1552 m 1,34,-1
 1069 1552 l 1,35,-1
 1030 1350 l 1,36,-1
 827 1350 l 1,37,-1
 866 1552 l 1,34,-1
EndSplineSet
EndChar

StartChar: divide
Encoding: 247 247 185
Width: 1233
GlyphClass: 2
Flags: W
LayerCount: 2
Fore
SplineSet
494 395 m 1,0,-1
 739 395 l 1,1,-1
 739 150 l 1,2,-1
 494 150 l 1,3,-1
 494 395 l 1,0,-1
494 1135 m 1,4,-1
 739 1135 l 1,5,-1
 739 889 l 1,6,-1
 494 889 l 1,7,-1
 494 1135 l 1,4,-1
88 727 m 1,8,-1
 1145 727 l 1,9,-1
 1145 557 l 1,10,-1
 88 557 l 1,11,-1
 88 727 l 1,8,-1
EndSplineSet
EndChar

StartChar: oslash
Encoding: 248 248 186
Width: 1233
GlyphClass: 2
Flags: W
LayerCount: 2
Fore
SplineSet
911 825 m 1,0,-1
 377 186 l 1,1,2
 407 156 407 156 446 141.5 c 128,-1,3
 485 127 485 127 537 127 c 0,4,5
 700 127 700 127 810 298.5 c 128,-1,6
 920 470 920 470 920 733 c 0,7,8
 920 759 920 759 918 782 c 128,-1,9
 916 805 916 805 911 825 c 1,0,-1
176 133 m 1,10,11
 147 181 147 181 133 245 c 128,-1,12
 119 309 119 309 119 389 c 0,13,14
 119 531 119 531 159 666 c 128,-1,15
 199 801 199 801 274 911 c 0,16,17
 355 1030 355 1030 466.5 1088.5 c 128,-1,18
 578 1147 578 1147 725 1147 c 0,19,20
 803 1147 803 1147 863 1129 c 128,-1,21
 923 1111 923 1111 969 1075 c 1,22,-1
 1081 1212 l 1,23,-1
 1174 1135 l 1,24,-1
 1051 989 l 1,25,26
 1083 939 1083 939 1098.5 875 c 128,-1,27
 1114 811 1114 811 1114 727 c 0,28,29
 1114 589 1114 589 1073 452.5 c 128,-1,30
 1032 316 1032 316 958 207 c 0,31,32
 879 89 879 89 766 30 c 128,-1,33
 653 -29 653 -29 506 -29 c 0,34,35
 432 -29 432 -29 370.5 -10.5 c 128,-1,36
 309 8 309 8 258 45 c 1,37,-1
 139 -96 l 1,38,-1
 47 -20 l 1,39,-1
 176 133 l 1,10,11
852 938 m 1,40,41
 821 966 821 966 784.5 978.5 c 128,-1,42
 748 991 748 991 696 991 c 0,43,44
 532 991 532 991 422.5 819 c 128,-1,45
 313 647 313 647 313 379 c 0,46,47
 313 359 313 359 314.5 339.5 c 128,-1,48
 316 320 316 320 319 302 c 1,49,-1
 852 938 l 1,40,41
EndSplineSet
EndChar

StartChar: ugrave
Encoding: 249 249 187
Width: 1233
GlyphClass: 3
Flags: W
LayerCount: 2
Fore
SplineSet
143 426 m 2,0,-1
 276 1120 l 1,1,-1
 461 1120 l 1,2,-1
 326 426 l 2,3,4
 319 389 319 389 315 355 c 128,-1,5
 311 321 311 321 311 297 c 0,6,7
 311 218 311 218 357.5 175.5 c 128,-1,8
 404 133 404 133 489 133 c 0,9,10
 616 133 616 133 704 225.5 c 128,-1,11
 792 318 792 318 825 487 c 2,12,-1
 948 1120 l 1,13,-1
 1133 1120 l 1,14,-1
 915 0 l 1,15,-1
 731 0 l 1,16,-1
 764 168 l 1,17,18
 691 70 691 70 602 21.5 c 128,-1,19
 513 -27 513 -27 408 -27 c 0,20,21
 277 -27 277 -27 201 46.5 c 128,-1,22
 125 120 125 120 125 246 c 0,23,24
 125 285 125 285 129.5 331.5 c 128,-1,25
 134 378 134 378 143 426 c 2,0,-1
648 1638 m 1,26,-1
 845 1262 l 1,27,-1
 702 1262 l 1,28,-1
 450 1638 l 1,29,-1
 648 1638 l 1,26,-1
EndSplineSet
EndChar

StartChar: uacute
Encoding: 250 250 188
Width: 1233
GlyphClass: 3
Flags: W
LayerCount: 2
Fore
SplineSet
143 426 m 2,0,-1
 276 1120 l 1,1,-1
 461 1120 l 1,2,-1
 326 426 l 2,3,4
 319 389 319 389 315 355 c 128,-1,5
 311 321 311 321 311 297 c 0,6,7
 311 218 311 218 357.5 175.5 c 128,-1,8
 404 133 404 133 489 133 c 0,9,10
 616 133 616 133 704 225.5 c 128,-1,11
 792 318 792 318 825 487 c 2,12,-1
 948 1120 l 1,13,-1
 1133 1120 l 1,14,-1
 915 0 l 1,15,-1
 731 0 l 1,16,-1
 764 168 l 1,17,18
 691 70 691 70 602 21.5 c 128,-1,19
 513 -27 513 -27 408 -27 c 0,20,21
 277 -27 277 -27 201 46.5 c 128,-1,22
 125 120 125 120 125 246 c 0,23,24
 125 285 125 285 129.5 331.5 c 128,-1,25
 134 378 134 378 143 426 c 2,0,-1
904 1638 m 1,26,-1
 1123 1638 l 1,27,-1
 728 1262 l 1,28,-1
 572 1262 l 1,29,-1
 904 1638 l 1,26,-1
EndSplineSet
EndChar

StartChar: ucircumflex
Encoding: 251 251 189
Width: 1233
GlyphClass: 3
Flags: W
LayerCount: 2
Fore
SplineSet
143 426 m 2,0,-1
 276 1120 l 1,1,-1
 461 1120 l 1,2,-1
 326 426 l 2,3,4
 319 389 319 389 315 355 c 128,-1,5
 311 321 311 321 311 297 c 0,6,7
 311 218 311 218 357.5 175.5 c 128,-1,8
 404 133 404 133 489 133 c 0,9,10
 616 133 616 133 704 225.5 c 128,-1,11
 792 318 792 318 825 487 c 2,12,-1
 948 1120 l 1,13,-1
 1133 1120 l 1,14,-1
 915 0 l 1,15,-1
 731 0 l 1,16,-1
 764 168 l 1,17,18
 691 70 691 70 602 21.5 c 128,-1,19
 513 -27 513 -27 408 -27 c 0,20,21
 277 -27 277 -27 201 46.5 c 128,-1,22
 125 120 125 120 125 246 c 0,23,24
 125 285 125 285 129.5 331.5 c 128,-1,25
 134 378 134 378 143 426 c 2,0,-1
714 1638 m 1,26,-1
 861 1638 l 1,27,-1
 1025 1262 l 1,28,-1
 892 1262 l 1,29,-1
 775 1503 l 1,30,-1
 550 1262 l 1,31,-1
 394 1262 l 1,32,-1
 714 1638 l 1,26,-1
EndSplineSet
EndChar

StartChar: udieresis
Encoding: 252 252 190
Width: 1233
GlyphClass: 3
Flags: W
LayerCount: 2
Fore
SplineSet
143 426 m 2,0,-1
 276 1120 l 1,1,-1
 461 1120 l 1,2,-1
 326 426 l 2,3,4
 319 389 319 389 315 355 c 128,-1,5
 311 321 311 321 311 297 c 0,6,7
 311 218 311 218 357.5 175.5 c 128,-1,8
 404 133 404 133 489 133 c 0,9,10
 616 133 616 133 704 225.5 c 128,-1,11
 792 318 792 318 825 487 c 2,12,-1
 948 1120 l 1,13,-1
 1133 1120 l 1,14,-1
 915 0 l 1,15,-1
 731 0 l 1,16,-1
 764 168 l 1,17,18
 691 70 691 70 602 21.5 c 128,-1,19
 513 -27 513 -27 408 -27 c 0,20,21
 277 -27 277 -27 201 46.5 c 128,-1,22
 125 120 125 120 125 246 c 0,23,24
 125 285 125 285 129.5 331.5 c 128,-1,25
 134 378 134 378 143 426 c 2,0,-1
472 1552 m 1,26,-1
 675 1552 l 1,27,-1
 636 1350 l 1,28,-1
 433 1350 l 1,29,-1
 472 1552 l 1,26,-1
863 1552 m 1,30,-1
 1066 1552 l 1,31,-1
 1027 1350 l 1,32,-1
 824 1350 l 1,33,-1
 863 1552 l 1,30,-1
EndSplineSet
EndChar

StartChar: yacute
Encoding: 253 253 191
Width: 1233
GlyphClass: 3
Flags: W
LayerCount: 2
Fore
SplineSet
786 360 m 2,0,1
 724 253 724 253 621 72 c 0,2,3
 466 -203 466 -203 412 -276 c 0,4,5
 354 -352 354 -352 279.5 -389 c 128,-1,6
 205 -426 205 -426 109 -426 c 2,7,-1
 -39 -426 l 1,8,-1
 -10 -272 l 1,9,-1
 98 -272 l 2,10,11
 179 -272 179 -272 237.5 -225.5 c 128,-1,12
 296 -179 296 -179 356 -66 c 2,13,-1
 399 18 l 1,14,-1
 182 1120 l 1,15,-1
 365 1120 l 1,16,-1
 537 258 l 1,17,-1
 1020 1120 l 1,18,-1
 1225 1120 l 1,19,-1
 786 360 l 2,0,1
907 1638 m 1,20,-1
 1126 1638 l 1,21,-1
 731 1262 l 1,22,-1
 575 1262 l 1,23,-1
 907 1638 l 1,20,-1
EndSplineSet
EndChar

StartChar: thorn
Encoding: 254 254 192
Width: 1233
GlyphClass: 2
Flags: W
LayerCount: 2
Fore
SplineSet
293 141 m 1,0,-1
 182 -426 l 1,1,-1
 -2 -426 l 1,2,-1
 385 1567 l 1,3,-1
 569 1567 l 1,4,-1
 455 977 l 1,5,6
 516 1059 516 1059 602 1103 c 128,-1,7
 688 1147 688 1147 788 1147 c 0,8,9
 950 1147 950 1147 1039 1043 c 128,-1,10
 1128 939 1128 939 1128 752 c 0,11,12
 1128 609 1128 609 1088.5 465 c 128,-1,13
 1049 321 1049 321 979 211 c 0,14,15
 904 93 904 93 802 32 c 128,-1,16
 700 -29 700 -29 578 -29 c 0,17,18
 478 -29 478 -29 407.5 13 c 128,-1,19
 337 55 337 55 293 141 c 1,0,-1
569 127 m 0,20,21
 650 127 650 127 717 171.5 c 128,-1,22
 784 216 784 216 829 301 c 0,23,24
 878 393 878 393 906 508.5 c 128,-1,25
 934 624 934 624 934 737 c 0,26,27
 934 864 934 864 882.5 927.5 c 128,-1,28
 831 991 831 991 729 991 c 0,29,30
 644 991 644 991 575.5 946 c 128,-1,31
 507 901 507 901 459 813 c 0,32,33
 410 725 410 725 382 611 c 128,-1,34
 354 497 354 497 354 383 c 0,35,36
 354 260 354 260 410 193.5 c 128,-1,37
 466 127 466 127 569 127 c 0,20,21
EndSplineSet
EndChar

StartChar: ydieresis
Encoding: 255 255 193
Width: 1233
GlyphClass: 3
Flags: W
LayerCount: 2
Fore
SplineSet
786 360 m 2,0,1
 724 253 724 253 621 72 c 0,2,3
 466 -203 466 -203 412 -276 c 0,4,5
 354 -352 354 -352 279.5 -389 c 128,-1,6
 205 -426 205 -426 109 -426 c 2,7,-1
 -39 -426 l 1,8,-1
 -10 -272 l 1,9,-1
 98 -272 l 2,10,11
 179 -272 179 -272 237.5 -225.5 c 128,-1,12
 296 -179 296 -179 356 -66 c 2,13,-1
 399 18 l 1,14,-1
 182 1120 l 1,15,-1
 365 1120 l 1,16,-1
 537 258 l 1,17,-1
 1020 1120 l 1,18,-1
 1225 1120 l 1,19,-1
 786 360 l 2,0,1
475 1552 m 1,20,-1
 678 1552 l 1,21,-1
 639 1350 l 1,22,-1
 436 1350 l 1,23,-1
 475 1552 l 1,20,-1
866 1552 m 1,24,-1
 1069 1552 l 1,25,-1
 1030 1350 l 1,26,-1
 827 1350 l 1,27,-1
 866 1552 l 1,24,-1
EndSplineSet
EndChar

StartChar: Amacron
Encoding: 256 256 194
Width: 1233
GlyphClass: 3
Flags: W
LayerCount: 2
Fore
SplineSet
735 1325 m 1,0,-1
 371 551 l 1,1,-1
 801 551 l 1,2,-1
 735 1325 l 1,0,-1
639 1493 m 1,3,-1
 885 1493 l 1,4,-1
 1051 0 l 1,5,-1
 850 0 l 1,6,-1
 815 389 l 1,7,-1
 295 389 l 1,8,-1
 111 0 l 1,9,-1
 -106 0 l 1,10,-1
 639 1493 l 1,3,-1
531 1840 m 1,11,-1
 1129 1840 l 1,12,-1
 1100 1692 l 1,13,-1
 502 1692 l 1,14,-1
 531 1840 l 1,11,-1
EndSplineSet
EndChar

StartChar: amacron
Encoding: 257 257 195
Width: 1233
GlyphClass: 3
Flags: W
LayerCount: 2
Fore
SplineSet
692 563 m 2,0,1
 573 563 573 563 515 555.5 c 128,-1,2
 457 548 457 548 414 530 c 0,3,4
 346 503 346 503 305 441.5 c 128,-1,5
 264 380 264 380 264 307 c 0,6,7
 264 224 264 224 315.5 174.5 c 128,-1,8
 367 125 367 125 455 125 c 0,9,10
 603 125 603 125 710.5 231 c 128,-1,11
 818 337 818 337 856 522 c 2,12,-1
 864 563 l 1,13,-1
 692 563 l 2,0,1
1063 639 m 2,14,-1
 938 0 l 1,15,-1
 754 0 l 1,16,-1
 786 166 l 1,17,18
 714 72 714 72 616 21.5 c 128,-1,19
 518 -29 518 -29 408 -29 c 0,20,21
 255 -29 255 -29 163.5 54.5 c 128,-1,22
 72 138 72 138 72 276 c 0,23,24
 72 472 72 472 226.5 589.5 c 128,-1,25
 381 707 381 707 645 707 c 2,26,-1
 891 707 l 1,27,-1
 903 768 l 2,28,29
 905 777 905 777 906 787 c 128,-1,30
 907 797 907 797 907 815 c 0,31,32
 907 900 907 900 844 945.5 c 128,-1,33
 781 991 781 991 664 991 c 0,34,35
 578 991 578 991 478.5 965.5 c 128,-1,36
 379 940 379 940 268 889 c 1,37,-1
 303 1069 l 1,38,39
 411 1108 411 1108 508 1127.5 c 128,-1,40
 605 1147 605 1147 694 1147 c 0,41,42
 880 1147 880 1147 983.5 1065 c 128,-1,43
 1087 983 1087 983 1087 838 c 0,44,45
 1087 806 1087 806 1081 754 c 128,-1,46
 1075 702 1075 702 1063 639 c 2,14,-1
469 1526 m 1,47,-1
 1067 1526 l 1,48,-1
 1038 1378 l 1,49,-1
 440 1378 l 1,50,-1
 469 1526 l 1,47,-1
EndSplineSet
EndChar

StartChar: Abreve
Encoding: 258 258 196
Width: 1233
GlyphClass: 3
Flags: W
LayerCount: 2
Fore
SplineSet
735 1325 m 1,0,-1
 371 551 l 1,1,-1
 801 551 l 1,2,-1
 735 1325 l 1,0,-1
639 1493 m 1,3,-1
 885 1493 l 1,4,-1
 1051 0 l 1,5,-1
 850 0 l 1,6,-1
 815 389 l 1,7,-1
 295 389 l 1,8,-1
 111 0 l 1,9,-1
 -106 0 l 1,10,-1
 639 1493 l 1,3,-1
529 1901 m 1,11,-1
 648 1901 l 1,12,13
 649 1847 649 1847 693.5 1818.5 c 128,-1,14
 738 1790 738 1790 820 1790 c 0,15,16
 903 1790 903 1790 957 1817.5 c 128,-1,17
 1011 1845 1011 1845 1037 1901 c 1,18,-1
 1156 1901 l 1,19,20
 1121 1782 1121 1782 1029.5 1720.5 c 128,-1,21
 938 1659 938 1659 794 1659 c 256,22,23
 650 1659 650 1659 583 1720 c 128,-1,24
 516 1781 516 1781 529 1901 c 1,11,-1
EndSplineSet
EndChar

StartChar: abreve
Encoding: 259 259 197
Width: 1233
GlyphClass: 3
Flags: W
LayerCount: 2
Fore
SplineSet
692 563 m 2,0,1
 573 563 573 563 515 555.5 c 128,-1,2
 457 548 457 548 414 530 c 0,3,4
 346 503 346 503 305 441.5 c 128,-1,5
 264 380 264 380 264 307 c 0,6,7
 264 224 264 224 315.5 174.5 c 128,-1,8
 367 125 367 125 455 125 c 0,9,10
 603 125 603 125 710.5 231 c 128,-1,11
 818 337 818 337 856 522 c 2,12,-1
 864 563 l 1,13,-1
 692 563 l 2,0,1
1063 639 m 2,14,-1
 938 0 l 1,15,-1
 754 0 l 1,16,-1
 786 166 l 1,17,18
 714 72 714 72 616 21.5 c 128,-1,19
 518 -29 518 -29 408 -29 c 0,20,21
 255 -29 255 -29 163.5 54.5 c 128,-1,22
 72 138 72 138 72 276 c 0,23,24
 72 472 72 472 226.5 589.5 c 128,-1,25
 381 707 381 707 645 707 c 2,26,-1
 891 707 l 1,27,-1
 903 768 l 2,28,29
 905 777 905 777 906 787 c 128,-1,30
 907 797 907 797 907 815 c 0,31,32
 907 900 907 900 844 945.5 c 128,-1,33
 781 991 781 991 664 991 c 0,34,35
 578 991 578 991 478.5 965.5 c 128,-1,36
 379 940 379 940 268 889 c 1,37,-1
 303 1069 l 1,38,39
 411 1108 411 1108 508 1127.5 c 128,-1,40
 605 1147 605 1147 694 1147 c 0,41,42
 880 1147 880 1147 983.5 1065 c 128,-1,43
 1087 983 1087 983 1087 838 c 0,44,45
 1087 806 1087 806 1081 754 c 128,-1,46
 1075 702 1075 702 1063 639 c 2,14,-1
472 1608 m 1,47,-1
 592 1608 l 1,48,-1
 592 1591 l 2,49,50
 592 1526 592 1526 635.5 1492 c 128,-1,51
 679 1458 679 1458 764 1458 c 0,52,53
 844 1458 844 1458 897 1495 c 128,-1,54
 950 1532 950 1532 979 1608 c 1,55,-1
 1098 1608 l 1,56,57
 1066 1467 1066 1467 976.5 1394 c 128,-1,58
 887 1321 887 1321 748 1321 c 0,59,60
 614 1321 614 1321 541.5 1385 c 128,-1,61
 469 1449 469 1449 469 1567 c 0,62,63
 469 1584 469 1584 469.5 1592 c 128,-1,64
 470 1600 470 1600 472 1608 c 1,47,-1
EndSplineSet
EndChar

StartChar: Aogonek
Encoding: 260 260 198
Width: 1233
GlyphClass: 3
Flags: W
LayerCount: 2
Fore
SplineSet
853 0 m 1,0,-1
 972 0 l 1,1,2
 911 -58 911 -58 879 -108.5 c 128,-1,3
 847 -159 847 -159 847 -197 c 0,4,5
 847 -234 847 -234 870.5 -253 c 128,-1,6
 894 -272 894 -272 939 -272 c 0,7,8
 972 -272 972 -272 1005 -264.5 c 128,-1,9
 1038 -257 1038 -257 1070 -242 c 1,10,-1
 1045 -375 l 1,11,12
 1011 -385 1011 -385 975.5 -390 c 128,-1,13
 940 -395 940 -395 906 -395 c 0,14,15
 809 -395 809 -395 755 -355 c 128,-1,16
 701 -315 701 -315 701 -244 c 0,17,18
 701 -189 701 -189 738.5 -129 c 128,-1,19
 776 -69 776 -69 853 0 c 1,0,-1
735 1325 m 1,20,-1
 371 551 l 1,21,-1
 801 551 l 1,22,-1
 735 1325 l 1,20,-1
639 1493 m 1,23,-1
 885 1493 l 1,24,-1
 1051 0 l 1,25,-1
 850 0 l 1,26,-1
 815 389 l 1,27,-1
 295 389 l 1,28,-1
 111 0 l 1,29,-1
 -106 0 l 1,30,-1
 639 1493 l 1,23,-1
EndSplineSet
EndChar

StartChar: aogonek
Encoding: 261 261 199
Width: 1233
GlyphClass: 3
Flags: W
LayerCount: 2
Fore
SplineSet
749 0 m 1,0,-1
 868 0 l 1,1,2
 807 -58 807 -58 775 -108.5 c 128,-1,3
 743 -159 743 -159 743 -197 c 0,4,5
 743 -234 743 -234 766.5 -253 c 128,-1,6
 790 -272 790 -272 835 -272 c 0,7,8
 868 -272 868 -272 901 -264.5 c 128,-1,9
 934 -257 934 -257 966 -242 c 1,10,-1
 941 -375 l 1,11,12
 907 -385 907 -385 871.5 -390 c 128,-1,13
 836 -395 836 -395 802 -395 c 0,14,15
 705 -395 705 -395 651 -355 c 128,-1,16
 597 -315 597 -315 597 -244 c 0,17,18
 597 -189 597 -189 634.5 -129 c 128,-1,19
 672 -69 672 -69 749 0 c 1,0,-1
692 563 m 2,20,21
 573 563 573 563 515 555.5 c 128,-1,22
 457 548 457 548 414 530 c 0,23,24
 346 503 346 503 305 441.5 c 128,-1,25
 264 380 264 380 264 307 c 0,26,27
 264 224 264 224 315.5 174.5 c 128,-1,28
 367 125 367 125 455 125 c 0,29,30
 603 125 603 125 710.5 231 c 128,-1,31
 818 337 818 337 856 522 c 2,32,-1
 864 563 l 1,33,-1
 692 563 l 2,20,21
1063 639 m 2,34,-1
 938 0 l 1,35,-1
 754 0 l 1,36,-1
 786 166 l 1,37,38
 714 72 714 72 616 21.5 c 128,-1,39
 518 -29 518 -29 408 -29 c 0,40,41
 255 -29 255 -29 163.5 54.5 c 128,-1,42
 72 138 72 138 72 276 c 0,43,44
 72 472 72 472 226.5 589.5 c 128,-1,45
 381 707 381 707 645 707 c 2,46,-1
 891 707 l 1,47,-1
 903 768 l 2,48,49
 905 777 905 777 906 787 c 128,-1,50
 907 797 907 797 907 815 c 0,51,52
 907 900 907 900 844 945.5 c 128,-1,53
 781 991 781 991 664 991 c 0,54,55
 578 991 578 991 478.5 965.5 c 128,-1,56
 379 940 379 940 268 889 c 1,57,-1
 303 1069 l 1,58,59
 411 1108 411 1108 508 1127.5 c 128,-1,60
 605 1147 605 1147 694 1147 c 0,61,62
 880 1147 880 1147 983.5 1065 c 128,-1,63
 1087 983 1087 983 1087 838 c 0,64,65
 1087 806 1087 806 1081 754 c 128,-1,66
 1075 702 1075 702 1063 639 c 2,34,-1
EndSplineSet
EndChar

StartChar: Cacute
Encoding: 262 262 200
Width: 1233
GlyphClass: 3
Flags: W
LayerCount: 2
Fore
SplineSet
944 53 m 1,0,1
 860 12 860 12 774.5 -8.5 c 128,-1,2
 689 -29 689 -29 598 -29 c 0,3,4
 368 -29 368 -29 241.5 104 c 128,-1,5
 115 237 115 237 115 477 c 0,6,7
 115 697 115 697 185 913 c 128,-1,8
 255 1129 255 1129 369 1266 c 0,9,10
 476 1396 476 1396 605 1458 c 128,-1,11
 734 1520 734 1520 899 1520 c 0,12,13
 979 1520 979 1520 1058 1499 c 128,-1,14
 1137 1478 1137 1478 1212 1438 c 1,15,-1
 1171 1231 l 1,16,17
 1107 1294 1107 1294 1036 1325 c 128,-1,18
 965 1356 965 1356 885 1356 c 0,19,20
 790 1356 790 1356 709 1315.5 c 128,-1,21
 628 1275 628 1275 557 1192 c 0,22,23
 453 1069 453 1069 389.5 877 c 128,-1,24
 326 685 326 685 326 492 c 0,25,26
 326 319 326 319 404 227 c 128,-1,27
 482 135 482 135 629 135 c 0,28,29
 714 135 714 135 804.5 167 c 128,-1,30
 895 199 895 199 983 260 c 1,31,-1
 944 53 l 1,0,1
1008 1899 m 1,32,-1
 1216 1899 l 1,33,-1
 909 1635 l 1,34,-1
 749 1635 l 1,35,-1
 1008 1899 l 1,32,-1
EndSplineSet
EndChar

StartChar: cacute
Encoding: 263 263 201
Width: 1233
GlyphClass: 3
Flags: W
LayerCount: 2
Fore
SplineSet
940 51 m 1,0,1
 867 12 867 12 783.5 -8.5 c 128,-1,2
 700 -29 700 -29 610 -29 c 0,3,4
 386 -29 386 -29 271 83.5 c 128,-1,5
 156 196 156 196 156 416 c 0,6,7
 156 565 156 565 209.5 708.5 c 128,-1,8
 263 852 263 852 354 950 c 0,9,10
 447 1049 447 1049 558.5 1098 c 128,-1,11
 670 1147 670 1147 803 1147 c 0,12,13
 892 1147 892 1147 975 1125.5 c 128,-1,14
 1058 1104 1058 1104 1137 1061 c 1,15,-1
 1100 879 l 1,16,17
 1034 937 1034 937 964 964 c 128,-1,18
 894 991 894 991 809 991 c 0,19,20
 699 991 699 991 614 946.5 c 128,-1,21
 529 902 529 902 469 813 c 0,22,23
 413 731 413 731 381.5 625.5 c 128,-1,24
 350 520 350 520 350 416 c 0,25,26
 350 272 350 272 418.5 199.5 c 128,-1,27
 487 127 487 127 623 127 c 0,28,29
 719 127 719 127 807.5 158 c 128,-1,30
 896 189 896 189 979 252 c 1,31,-1
 940 51 l 1,0,1
997 1638 m 1,32,-1
 1216 1638 l 1,33,-1
 821 1262 l 1,34,-1
 665 1262 l 1,35,-1
 997 1638 l 1,32,-1
EndSplineSet
EndChar

StartChar: Ccircumflex
Encoding: 264 264 202
Width: 1233
GlyphClass: 3
Flags: W
LayerCount: 2
Fore
SplineSet
868 1901 m 1,0,-1
 1081 1901 l 1,1,-1
 1239 1635 l 1,2,-1
 1106 1635 l 1,3,-1
 967 1813 l 1,4,-1
 758 1635 l 1,5,-1
 606 1635 l 1,6,-1
 868 1901 l 1,0,-1
944 53 m 1,7,8
 860 12 860 12 774.5 -8.5 c 128,-1,9
 689 -29 689 -29 598 -29 c 0,10,11
 368 -29 368 -29 241.5 104 c 128,-1,12
 115 237 115 237 115 477 c 0,13,14
 115 697 115 697 185 913 c 128,-1,15
 255 1129 255 1129 369 1266 c 0,16,17
 476 1396 476 1396 605 1458 c 128,-1,18
 734 1520 734 1520 899 1520 c 0,19,20
 979 1520 979 1520 1058 1499 c 128,-1,21
 1137 1478 1137 1478 1212 1438 c 1,22,-1
 1171 1231 l 1,23,24
 1107 1294 1107 1294 1036 1325 c 128,-1,25
 965 1356 965 1356 885 1356 c 0,26,27
 790 1356 790 1356 709 1315.5 c 128,-1,28
 628 1275 628 1275 557 1192 c 0,29,30
 453 1069 453 1069 389.5 877 c 128,-1,31
 326 685 326 685 326 492 c 0,32,33
 326 319 326 319 404 227 c 128,-1,34
 482 135 482 135 629 135 c 0,35,36
 714 135 714 135 804.5 167 c 128,-1,37
 895 199 895 199 983 260 c 1,38,-1
 944 53 l 1,7,8
EndSplineSet
EndChar

StartChar: ccircumflex
Encoding: 265 265 203
Width: 1233
GlyphClass: 3
Flags: W
LayerCount: 2
Fore
SplineSet
807 1638 m 1,0,-1
 954 1638 l 1,1,-1
 1118 1262 l 1,2,-1
 985 1262 l 1,3,-1
 868 1503 l 1,4,-1
 643 1262 l 1,5,-1
 487 1262 l 1,6,-1
 807 1638 l 1,0,-1
940 51 m 1,7,8
 867 12 867 12 783.5 -8.5 c 128,-1,9
 700 -29 700 -29 610 -29 c 0,10,11
 386 -29 386 -29 271 83.5 c 128,-1,12
 156 196 156 196 156 416 c 0,13,14
 156 565 156 565 209.5 708.5 c 128,-1,15
 263 852 263 852 354 950 c 0,16,17
 447 1049 447 1049 558.5 1098 c 128,-1,18
 670 1147 670 1147 803 1147 c 0,19,20
 892 1147 892 1147 975 1125.5 c 128,-1,21
 1058 1104 1058 1104 1137 1061 c 1,22,-1
 1100 879 l 1,23,24
 1034 937 1034 937 964 964 c 128,-1,25
 894 991 894 991 809 991 c 0,26,27
 699 991 699 991 614 946.5 c 128,-1,28
 529 902 529 902 469 813 c 0,29,30
 413 731 413 731 381.5 625.5 c 128,-1,31
 350 520 350 520 350 416 c 0,32,33
 350 272 350 272 418.5 199.5 c 128,-1,34
 487 127 487 127 623 127 c 0,35,36
 719 127 719 127 807.5 158 c 128,-1,37
 896 189 896 189 979 252 c 1,38,-1
 940 51 l 1,7,8
EndSplineSet
EndChar

StartChar: Cdotaccent
Encoding: 266 266 204
Width: 1233
GlyphClass: 3
Flags: W
LayerCount: 2
Fore
SplineSet
944 53 m 1,0,1
 860 12 860 12 774.5 -8.5 c 128,-1,2
 689 -29 689 -29 598 -29 c 0,3,4
 368 -29 368 -29 241.5 104 c 128,-1,5
 115 237 115 237 115 477 c 0,6,7
 115 697 115 697 185 913 c 128,-1,8
 255 1129 255 1129 369 1266 c 0,9,10
 476 1396 476 1396 605 1458 c 128,-1,11
 734 1520 734 1520 899 1520 c 0,12,13
 979 1520 979 1520 1058 1499 c 128,-1,14
 1137 1478 1137 1478 1212 1438 c 1,15,-1
 1171 1231 l 1,16,17
 1107 1294 1107 1294 1036 1325 c 128,-1,18
 965 1356 965 1356 885 1356 c 0,19,20
 790 1356 790 1356 709 1315.5 c 128,-1,21
 628 1275 628 1275 557 1192 c 0,22,23
 453 1069 453 1069 389.5 877 c 128,-1,24
 326 685 326 685 326 492 c 0,25,26
 326 319 326 319 404 227 c 128,-1,27
 482 135 482 135 629 135 c 0,28,29
 714 135 714 135 804.5 167 c 128,-1,30
 895 199 895 199 983 260 c 1,31,-1
 944 53 l 1,0,1
808 1872 m 1,32,-1
 1013 1872 l 1,33,-1
 973 1667 l 1,34,-1
 768 1667 l 1,35,-1
 808 1872 l 1,32,-1
EndSplineSet
EndChar

StartChar: cdotaccent
Encoding: 267 267 205
Width: 1233
GlyphClass: 3
Flags: W
LayerCount: 2
Fore
SplineSet
940 51 m 1,0,1
 867 12 867 12 783.5 -8.5 c 128,-1,2
 700 -29 700 -29 610 -29 c 0,3,4
 386 -29 386 -29 271 83.5 c 128,-1,5
 156 196 156 196 156 416 c 0,6,7
 156 565 156 565 209.5 708.5 c 128,-1,8
 263 852 263 852 354 950 c 0,9,10
 447 1049 447 1049 558.5 1098 c 128,-1,11
 670 1147 670 1147 803 1147 c 0,12,13
 892 1147 892 1147 975 1125.5 c 128,-1,14
 1058 1104 1058 1104 1137 1061 c 1,15,-1
 1100 879 l 1,16,17
 1034 937 1034 937 964 964 c 128,-1,18
 894 991 894 991 809 991 c 0,19,20
 699 991 699 991 614 946.5 c 128,-1,21
 529 902 529 902 469 813 c 0,22,23
 413 731 413 731 381.5 625.5 c 128,-1,24
 350 520 350 520 350 416 c 0,25,26
 350 272 350 272 418.5 199.5 c 128,-1,27
 487 127 487 127 623 127 c 0,28,29
 719 127 719 127 807.5 158 c 128,-1,30
 896 189 896 189 979 252 c 1,31,-1
 940 51 l 1,0,1
747 1552 m 1,32,-1
 952 1552 l 1,33,-1
 911 1348 l 1,34,-1
 706 1348 l 1,35,-1
 747 1552 l 1,32,-1
EndSplineSet
EndChar

StartChar: Ccaron
Encoding: 268 268 206
Width: 1233
GlyphClass: 3
Flags: W
LayerCount: 2
Fore
SplineSet
944 53 m 1,0,1
 860 12 860 12 774.5 -8.5 c 128,-1,2
 689 -29 689 -29 598 -29 c 0,3,4
 368 -29 368 -29 241.5 104 c 128,-1,5
 115 237 115 237 115 477 c 0,6,7
 115 697 115 697 185 913 c 128,-1,8
 255 1129 255 1129 369 1266 c 0,9,10
 476 1396 476 1396 605 1458 c 128,-1,11
 734 1520 734 1520 899 1520 c 0,12,13
 979 1520 979 1520 1058 1499 c 128,-1,14
 1137 1478 1137 1478 1212 1438 c 1,15,-1
 1171 1231 l 1,16,17
 1107 1294 1107 1294 1036 1325 c 128,-1,18
 965 1356 965 1356 885 1356 c 0,19,20
 790 1356 790 1356 709 1315.5 c 128,-1,21
 628 1275 628 1275 557 1192 c 0,22,23
 453 1069 453 1069 389.5 877 c 128,-1,24
 326 685 326 685 326 492 c 0,25,26
 326 319 326 319 404 227 c 128,-1,27
 482 135 482 135 629 135 c 0,28,29
 714 135 714 135 804.5 167 c 128,-1,30
 895 199 895 199 983 260 c 1,31,-1
 944 53 l 1,0,1
987 1635 m 1,32,-1
 774 1635 l 1,33,-1
 616 1901 l 1,34,-1
 752 1901 l 1,35,-1
 891 1723 l 1,36,-1
 1100 1901 l 1,37,-1
 1251 1901 l 1,38,-1
 987 1635 l 1,32,-1
EndSplineSet
EndChar

StartChar: ccaron
Encoding: 269 269 207
Width: 1233
GlyphClass: 3
Flags: W
LayerCount: 2
Fore
SplineSet
940 51 m 1,0,1
 867 12 867 12 783.5 -8.5 c 128,-1,2
 700 -29 700 -29 610 -29 c 0,3,4
 386 -29 386 -29 271 83.5 c 128,-1,5
 156 196 156 196 156 416 c 0,6,7
 156 565 156 565 209.5 708.5 c 128,-1,8
 263 852 263 852 354 950 c 0,9,10
 447 1049 447 1049 558.5 1098 c 128,-1,11
 670 1147 670 1147 803 1147 c 0,12,13
 892 1147 892 1147 975 1125.5 c 128,-1,14
 1058 1104 1058 1104 1137 1061 c 1,15,-1
 1100 879 l 1,16,17
 1034 937 1034 937 964 964 c 128,-1,18
 894 991 894 991 809 991 c 0,19,20
 699 991 699 991 614 946.5 c 128,-1,21
 529 902 529 902 469 813 c 0,22,23
 413 731 413 731 381.5 625.5 c 128,-1,24
 350 520 350 520 350 416 c 0,25,26
 350 272 350 272 418.5 199.5 c 128,-1,27
 487 127 487 127 623 127 c 0,28,29
 719 127 719 127 807.5 158 c 128,-1,30
 896 189 896 189 979 252 c 1,31,-1
 940 51 l 1,0,1
872 1262 m 1,32,-1
 725 1262 l 1,33,-1
 561 1638 l 1,34,-1
 692 1638 l 1,35,-1
 811 1395 l 1,36,-1
 1036 1638 l 1,37,-1
 1192 1638 l 1,38,-1
 872 1262 l 1,32,-1
EndSplineSet
EndChar

StartChar: Dcaron
Encoding: 270 270 208
Width: 1233
GlyphClass: 3
Flags: W
LayerCount: 2
Fore
SplineSet
324 166 m 2,0,1
 509 166 509 166 621 228.5 c 128,-1,2
 733 291 733 291 801 432 c 0,3,4
 855 547 855 547 889.5 706.5 c 128,-1,5
 924 866 924 866 924 999 c 0,6,7
 924 1175 924 1175 842 1251 c 128,-1,8
 760 1327 760 1327 567 1327 c 2,9,-1
 453 1327 l 1,10,-1
 227 166 l 1,11,-1
 324 166 l 2,0,1
586 1493 m 2,12,13
 859 1493 859 1493 994.5 1369 c 128,-1,14
 1130 1245 1130 1245 1130 993 c 0,15,16
 1130 831 1130 831 1088 659 c 128,-1,17
 1046 487 1046 487 975 354 c 0,18,19
 871 163 871 163 715.5 81.5 c 128,-1,20
 560 0 560 0 295 0 c 2,21,-1
 -8 0 l 1,22,-1
 283 1493 l 1,23,-1
 586 1493 l 2,12,13
855 1635 m 1,24,-1
 642 1635 l 1,25,-1
 484 1901 l 1,26,-1
 620 1901 l 1,27,-1
 759 1723 l 1,28,-1
 968 1901 l 1,29,-1
 1119 1901 l 1,30,-1
 855 1635 l 1,24,-1
EndSplineSet
EndChar

StartChar: dcaron
Encoding: 271 271 209
Width: 1233
GlyphClass: 3
Flags: W
LayerCount: 2
Fore
SplineSet
1246 1554 m 1,0,-1
 1442 1554 l 1,1,-1
 1256 1181 l 1,2,-1
 1116 1181 l 1,3,-1
 1246 1554 l 1,0,-1
686 991 m 0,4,5
 598 991 598 991 531 947.5 c 128,-1,6
 464 904 464 904 418 817 c 0,7,8
 369 727 369 727 342 612.5 c 128,-1,9
 315 498 315 498 315 383 c 0,10,11
 315 255 315 255 366 191 c 128,-1,12
 417 127 417 127 518 127 c 0,13,14
 603 127 603 127 671.5 172 c 128,-1,15
 740 217 740 217 788 305 c 0,16,17
 837 392 837 392 865 507.5 c 128,-1,18
 893 623 893 623 893 737 c 0,19,20
 893 857 893 857 838.5 924 c 128,-1,21
 784 991 784 991 686 991 c 0,4,5
954 977 m 1,22,-1
 1069 1556 l 1,23,-1
 1253 1556 l 1,24,-1
 950 0 l 1,25,-1
 766 0 l 1,26,-1
 793 141 l 1,27,28
 728 57 728 57 645.5 14 c 128,-1,29
 563 -29 563 -29 463 -29 c 0,30,31
 300 -29 300 -29 209.5 76 c 128,-1,32
 119 181 119 181 119 369 c 0,33,34
 119 512 119 512 159 656.5 c 128,-1,35
 199 801 199 801 268 909 c 0,36,37
 343 1027 343 1027 444.5 1087 c 128,-1,38
 546 1147 546 1147 670 1147 c 0,39,40
 767 1147 767 1147 840 1103.5 c 128,-1,41
 913 1060 913 1060 954 977 c 1,22,-1
EndSplineSet
EndChar

StartChar: Dcroat
Encoding: 272 272 210
Width: 1233
GlyphClass: 2
Flags: W
LayerCount: 2
Fore
SplineSet
324 166 m 2,0,1
 509 166 509 166 621 228.5 c 128,-1,2
 733 291 733 291 801 432 c 0,3,4
 855 547 855 547 889.5 706.5 c 128,-1,5
 924 866 924 866 924 999 c 0,6,7
 924 1175 924 1175 842 1251 c 128,-1,8
 760 1327 760 1327 567 1327 c 2,9,-1
 453 1327 l 1,10,-1
 362 858 l 1,11,-1
 629 858 l 1,12,-1
 600 709 l 1,13,-1
 334 709 l 1,14,-1
 227 166 l 1,15,-1
 324 166 l 2,0,1
586 1493 m 2,16,17
 859 1493 859 1493 994.5 1369 c 128,-1,18
 1130 1245 1130 1245 1130 993 c 0,19,20
 1130 831 1130 831 1088 659 c 128,-1,21
 1046 487 1046 487 975 354 c 0,22,23
 871 163 871 163 715.5 81.5 c 128,-1,24
 560 0 560 0 295 0 c 2,25,-1
 -8 0 l 1,26,-1
 129 709 l 1,27,-1
 2 709 l 1,28,-1
 31 858 l 1,29,-1
 160 858 l 1,30,-1
 283 1493 l 1,31,-1
 586 1493 l 2,16,17
EndSplineSet
EndChar

StartChar: dcroat
Encoding: 273 273 211
Width: 1233
GlyphClass: 2
Flags: W
LayerCount: 2
Fore
SplineSet
686 991 m 0,0,1
 598 991 598 991 531 947.5 c 128,-1,2
 464 904 464 904 418 817 c 0,3,4
 369 727 369 727 342 612.5 c 128,-1,5
 315 498 315 498 315 383 c 0,6,7
 315 255 315 255 366 191 c 128,-1,8
 417 127 417 127 518 127 c 0,9,10
 603 127 603 127 671.5 172 c 128,-1,11
 740 217 740 217 788 305 c 0,12,13
 837 392 837 392 865 507.5 c 128,-1,14
 893 623 893 623 893 737 c 0,15,16
 893 857 893 857 838.5 924 c 128,-1,17
 784 991 784 991 686 991 c 0,0,1
954 977 m 1,18,-1
 1016 1286 l 1,19,-1
 684 1286 l 1,20,-1
 709 1407 l 1,21,-1
 1038 1407 l 1,22,-1
 1069 1556 l 1,23,-1
 1253 1556 l 1,24,-1
 1223 1407 l 1,25,-1
 1415 1407 l 1,26,-1
 1393 1286 l 1,27,-1
 1200 1286 l 1,28,-1
 950 0 l 1,29,-1
 766 0 l 1,30,-1
 793 141 l 1,31,32
 728 57 728 57 645.5 14 c 128,-1,33
 563 -29 563 -29 463 -29 c 0,34,35
 300 -29 300 -29 209.5 76 c 128,-1,36
 119 181 119 181 119 369 c 0,37,38
 119 512 119 512 159 656.5 c 128,-1,39
 199 801 199 801 268 909 c 0,40,41
 343 1027 343 1027 444.5 1087 c 128,-1,42
 546 1147 546 1147 670 1147 c 0,43,44
 767 1147 767 1147 840 1103.5 c 128,-1,45
 913 1060 913 1060 954 977 c 1,18,-1
EndSplineSet
EndChar

StartChar: Emacron
Encoding: 274 274 212
Width: 1233
GlyphClass: 3
Flags: W
LayerCount: 2
Fore
SplineSet
344 1493 m 1,0,-1
 1229 1493 l 1,1,-1
 1196 1323 l 1,2,-1
 512 1323 l 1,3,-1
 426 881 l 1,4,-1
 1079 881 l 1,5,-1
 1047 711 l 1,6,-1
 393 711 l 1,7,-1
 289 170 l 1,8,-1
 991 170 l 1,9,-1
 958 0 l 1,10,-1
 53 0 l 1,11,-1
 344 1493 l 1,0,-1
549 1840 m 1,12,-1
 1147 1840 l 1,13,-1
 1118 1692 l 1,14,-1
 520 1692 l 1,15,-1
 549 1840 l 1,12,-1
EndSplineSet
EndChar

StartChar: emacron
Encoding: 275 275 213
Width: 1233
GlyphClass: 3
Flags: W
LayerCount: 2
Fore
SplineSet
938 659 m 1,0,1
 944 686 944 686 946 703.5 c 128,-1,2
 948 721 948 721 948 737 c 0,3,4
 948 857 948 857 883 924 c 128,-1,5
 818 991 818 991 702 991 c 0,6,7
 579 991 579 991 477.5 901 c 128,-1,8
 376 811 376 811 332 659 c 1,9,-1
 938 659 l 1,0,1
961 57 m 1,10,11
 856 14 856 14 756 -7.5 c 128,-1,12
 656 -29 656 -29 553 -29 c 0,13,14
 330 -29 330 -29 214 82.5 c 128,-1,15
 98 194 98 194 98 408 c 0,16,17
 98 564 98 564 158 714 c 128,-1,18
 218 864 218 864 324 973 c 0,19,20
 407 1059 407 1059 507.5 1104 c 128,-1,21
 608 1149 608 1149 717 1149 c 0,22,23
 903 1149 903 1149 1014.5 1034.5 c 128,-1,24
 1126 920 1126 920 1126 729 c 0,25,26
 1126 695 1126 695 1121 644.5 c 128,-1,27
 1116 594 1116 594 1104 516 c 1,28,-1
 297 516 l 1,29,30
 291 484 291 484 288 458 c 128,-1,31
 285 432 285 432 285 412 c 0,32,33
 285 273 285 273 362 200 c 128,-1,34
 439 127 439 127 586 127 c 0,35,36
 674 127 674 127 778.5 155.5 c 128,-1,37
 883 184 883 184 997 240 c 1,38,-1
 961 57 l 1,10,11
504 1526 m 1,39,-1
 1102 1526 l 1,40,-1
 1073 1378 l 1,41,-1
 475 1378 l 1,42,-1
 504 1526 l 1,39,-1
EndSplineSet
EndChar

StartChar: Ebreve
Encoding: 276 276 214
Width: 1233
GlyphClass: 3
Flags: W
LayerCount: 2
Fore
SplineSet
344 1493 m 1,0,-1
 1229 1493 l 1,1,-1
 1196 1323 l 1,2,-1
 512 1323 l 1,3,-1
 426 881 l 1,4,-1
 1079 881 l 1,5,-1
 1047 711 l 1,6,-1
 393 711 l 1,7,-1
 289 170 l 1,8,-1
 991 170 l 1,9,-1
 958 0 l 1,10,-1
 53 0 l 1,11,-1
 344 1493 l 1,0,-1
547 1901 m 1,12,-1
 666 1901 l 1,13,14
 667 1847 667 1847 711.5 1818.5 c 128,-1,15
 756 1790 756 1790 838 1790 c 0,16,17
 921 1790 921 1790 975 1817.5 c 128,-1,18
 1029 1845 1029 1845 1055 1901 c 1,19,-1
 1174 1901 l 1,20,21
 1139 1782 1139 1782 1047.5 1720.5 c 128,-1,22
 956 1659 956 1659 812 1659 c 256,23,24
 668 1659 668 1659 601 1720 c 128,-1,25
 534 1781 534 1781 547 1901 c 1,12,-1
EndSplineSet
EndChar

StartChar: ebreve
Encoding: 277 277 215
Width: 1233
GlyphClass: 3
Flags: W
LayerCount: 2
Fore
SplineSet
938 659 m 1,0,1
 944 686 944 686 946 703.5 c 128,-1,2
 948 721 948 721 948 737 c 0,3,4
 948 857 948 857 883 924 c 128,-1,5
 818 991 818 991 702 991 c 0,6,7
 579 991 579 991 477.5 901 c 128,-1,8
 376 811 376 811 332 659 c 1,9,-1
 938 659 l 1,0,1
961 57 m 1,10,11
 856 14 856 14 756 -7.5 c 128,-1,12
 656 -29 656 -29 553 -29 c 0,13,14
 330 -29 330 -29 214 82.5 c 128,-1,15
 98 194 98 194 98 408 c 0,16,17
 98 564 98 564 158 714 c 128,-1,18
 218 864 218 864 324 973 c 0,19,20
 407 1059 407 1059 507.5 1104 c 128,-1,21
 608 1149 608 1149 717 1149 c 0,22,23
 903 1149 903 1149 1014.5 1034.5 c 128,-1,24
 1126 920 1126 920 1126 729 c 0,25,26
 1126 695 1126 695 1121 644.5 c 128,-1,27
 1116 594 1116 594 1104 516 c 1,28,-1
 297 516 l 1,29,30
 291 484 291 484 288 458 c 128,-1,31
 285 432 285 432 285 412 c 0,32,33
 285 273 285 273 362 200 c 128,-1,34
 439 127 439 127 586 127 c 0,35,36
 674 127 674 127 778.5 155.5 c 128,-1,37
 883 184 883 184 997 240 c 1,38,-1
 961 57 l 1,10,11
486 1608 m 1,39,-1
 606 1608 l 1,40,-1
 606 1591 l 2,41,42
 606 1526 606 1526 649.5 1492 c 128,-1,43
 693 1458 693 1458 778 1458 c 0,44,45
 858 1458 858 1458 911 1495 c 128,-1,46
 964 1532 964 1532 993 1608 c 1,47,-1
 1112 1608 l 1,48,49
 1080 1467 1080 1467 990.5 1394 c 128,-1,50
 901 1321 901 1321 762 1321 c 0,51,52
 628 1321 628 1321 555.5 1385 c 128,-1,53
 483 1449 483 1449 483 1567 c 0,54,55
 483 1584 483 1584 483.5 1592 c 128,-1,56
 484 1600 484 1600 486 1608 c 1,39,-1
EndSplineSet
EndChar

StartChar: Edotaccent
Encoding: 278 278 216
Width: 1233
GlyphClass: 3
Flags: W
LayerCount: 2
Fore
SplineSet
344 1493 m 1,0,-1
 1229 1493 l 1,1,-1
 1196 1323 l 1,2,-1
 512 1323 l 1,3,-1
 426 881 l 1,4,-1
 1079 881 l 1,5,-1
 1047 711 l 1,6,-1
 393 711 l 1,7,-1
 289 170 l 1,8,-1
 991 170 l 1,9,-1
 958 0 l 1,10,-1
 53 0 l 1,11,-1
 344 1493 l 1,0,-1
751 1872 m 1,12,-1
 956 1872 l 1,13,-1
 916 1667 l 1,14,-1
 711 1667 l 1,15,-1
 751 1872 l 1,12,-1
EndSplineSet
EndChar

StartChar: edotaccent
Encoding: 279 279 217
Width: 1233
GlyphClass: 3
Flags: W
LayerCount: 2
Fore
SplineSet
938 659 m 1,0,1
 944 686 944 686 946 703.5 c 128,-1,2
 948 721 948 721 948 737 c 0,3,4
 948 857 948 857 883 924 c 128,-1,5
 818 991 818 991 702 991 c 0,6,7
 579 991 579 991 477.5 901 c 128,-1,8
 376 811 376 811 332 659 c 1,9,-1
 938 659 l 1,0,1
961 57 m 1,10,11
 856 14 856 14 756 -7.5 c 128,-1,12
 656 -29 656 -29 553 -29 c 0,13,14
 330 -29 330 -29 214 82.5 c 128,-1,15
 98 194 98 194 98 408 c 0,16,17
 98 564 98 564 158 714 c 128,-1,18
 218 864 218 864 324 973 c 0,19,20
 407 1059 407 1059 507.5 1104 c 128,-1,21
 608 1149 608 1149 717 1149 c 0,22,23
 903 1149 903 1149 1014.5 1034.5 c 128,-1,24
 1126 920 1126 920 1126 729 c 0,25,26
 1126 695 1126 695 1121 644.5 c 128,-1,27
 1116 594 1116 594 1104 516 c 1,28,-1
 297 516 l 1,29,30
 291 484 291 484 288 458 c 128,-1,31
 285 432 285 432 285 412 c 0,32,33
 285 273 285 273 362 200 c 128,-1,34
 439 127 439 127 586 127 c 0,35,36
 674 127 674 127 778.5 155.5 c 128,-1,37
 883 184 883 184 997 240 c 1,38,-1
 961 57 l 1,10,11
686 1552 m 1,39,-1
 891 1552 l 1,40,-1
 850 1348 l 1,41,-1
 645 1348 l 1,42,-1
 686 1552 l 1,39,-1
EndSplineSet
EndChar

StartChar: Eogonek
Encoding: 280 280 218
Width: 1233
GlyphClass: 3
Flags: W
LayerCount: 2
Fore
SplineSet
743 0 m 1,0,-1
 862 0 l 1,1,2
 801 -58 801 -58 769 -108.5 c 128,-1,3
 737 -159 737 -159 737 -197 c 0,4,5
 737 -234 737 -234 760.5 -253 c 128,-1,6
 784 -272 784 -272 829 -272 c 0,7,8
 862 -272 862 -272 895 -264.5 c 128,-1,9
 928 -257 928 -257 960 -242 c 1,10,-1
 935 -375 l 1,11,12
 901 -385 901 -385 865.5 -390 c 128,-1,13
 830 -395 830 -395 796 -395 c 0,14,15
 699 -395 699 -395 645 -355 c 128,-1,16
 591 -315 591 -315 591 -244 c 0,17,18
 591 -189 591 -189 628.5 -129 c 128,-1,19
 666 -69 666 -69 743 0 c 1,0,-1
344 1493 m 1,20,-1
 1229 1493 l 1,21,-1
 1196 1323 l 1,22,-1
 512 1323 l 1,23,-1
 426 881 l 1,24,-1
 1079 881 l 1,25,-1
 1047 711 l 1,26,-1
 393 711 l 1,27,-1
 289 170 l 1,28,-1
 991 170 l 1,29,-1
 958 0 l 1,30,-1
 53 0 l 1,31,-1
 344 1493 l 1,20,-1
EndSplineSet
EndChar

StartChar: eogonek
Encoding: 281 281 219
Width: 1233
GlyphClass: 3
Flags: W
LayerCount: 2
Fore
SplineSet
668 0 m 1,0,-1
 787 0 l 1,1,2
 726 -58 726 -58 694 -108.5 c 128,-1,3
 662 -159 662 -159 662 -197 c 0,4,5
 662 -234 662 -234 685.5 -253 c 128,-1,6
 709 -272 709 -272 754 -272 c 0,7,8
 787 -272 787 -272 820 -264.5 c 128,-1,9
 853 -257 853 -257 885 -242 c 1,10,-1
 860 -375 l 1,11,12
 826 -385 826 -385 790.5 -390 c 128,-1,13
 755 -395 755 -395 721 -395 c 0,14,15
 624 -395 624 -395 570 -355 c 128,-1,16
 516 -315 516 -315 516 -244 c 0,17,18
 516 -189 516 -189 553.5 -129 c 128,-1,19
 591 -69 591 -69 668 0 c 1,0,-1
938 659 m 1,20,21
 944 686 944 686 946 703.5 c 128,-1,22
 948 721 948 721 948 737 c 0,23,24
 948 857 948 857 883 924 c 128,-1,25
 818 991 818 991 702 991 c 0,26,27
 579 991 579 991 477.5 901 c 128,-1,28
 376 811 376 811 332 659 c 1,29,-1
 938 659 l 1,20,21
961 57 m 1,30,31
 856 14 856 14 756 -7.5 c 128,-1,32
 656 -29 656 -29 553 -29 c 0,33,34
 330 -29 330 -29 214 82.5 c 128,-1,35
 98 194 98 194 98 408 c 0,36,37
 98 564 98 564 158 714 c 128,-1,38
 218 864 218 864 324 973 c 0,39,40
 407 1059 407 1059 507.5 1104 c 128,-1,41
 608 1149 608 1149 717 1149 c 0,42,43
 903 1149 903 1149 1014.5 1034.5 c 128,-1,44
 1126 920 1126 920 1126 729 c 0,45,46
 1126 695 1126 695 1121 644.5 c 128,-1,47
 1116 594 1116 594 1104 516 c 1,48,-1
 297 516 l 1,49,50
 291 484 291 484 288 458 c 128,-1,51
 285 432 285 432 285 412 c 0,52,53
 285 273 285 273 362 200 c 128,-1,54
 439 127 439 127 586 127 c 0,55,56
 674 127 674 127 778.5 155.5 c 128,-1,57
 883 184 883 184 997 240 c 1,58,-1
 961 57 l 1,30,31
EndSplineSet
EndChar

StartChar: Ecaron
Encoding: 282 282 220
Width: 1233
GlyphClass: 3
Flags: W
LayerCount: 2
Fore
SplineSet
344 1493 m 1,0,-1
 1229 1493 l 1,1,-1
 1196 1323 l 1,2,-1
 512 1323 l 1,3,-1
 426 881 l 1,4,-1
 1079 881 l 1,5,-1
 1047 711 l 1,6,-1
 393 711 l 1,7,-1
 289 170 l 1,8,-1
 991 170 l 1,9,-1
 958 0 l 1,10,-1
 53 0 l 1,11,-1
 344 1493 l 1,0,-1
957 1635 m 1,12,-1
 744 1635 l 1,13,-1
 586 1901 l 1,14,-1
 722 1901 l 1,15,-1
 861 1723 l 1,16,-1
 1070 1901 l 1,17,-1
 1221 1901 l 1,18,-1
 957 1635 l 1,12,-1
EndSplineSet
EndChar

StartChar: ecaron
Encoding: 283 283 221
Width: 1233
GlyphClass: 3
Flags: W
LayerCount: 2
Fore
SplineSet
938 659 m 1,0,1
 944 686 944 686 946 703.5 c 128,-1,2
 948 721 948 721 948 737 c 0,3,4
 948 857 948 857 883 924 c 128,-1,5
 818 991 818 991 702 991 c 0,6,7
 579 991 579 991 477.5 901 c 128,-1,8
 376 811 376 811 332 659 c 1,9,-1
 938 659 l 1,0,1
961 57 m 1,10,11
 856 14 856 14 756 -7.5 c 128,-1,12
 656 -29 656 -29 553 -29 c 0,13,14
 330 -29 330 -29 214 82.5 c 128,-1,15
 98 194 98 194 98 408 c 0,16,17
 98 564 98 564 158 714 c 128,-1,18
 218 864 218 864 324 973 c 0,19,20
 407 1059 407 1059 507.5 1104 c 128,-1,21
 608 1149 608 1149 717 1149 c 0,22,23
 903 1149 903 1149 1014.5 1034.5 c 128,-1,24
 1126 920 1126 920 1126 729 c 0,25,26
 1126 695 1126 695 1121 644.5 c 128,-1,27
 1116 594 1116 594 1104 516 c 1,28,-1
 297 516 l 1,29,30
 291 484 291 484 288 458 c 128,-1,31
 285 432 285 432 285 412 c 0,32,33
 285 273 285 273 362 200 c 128,-1,34
 439 127 439 127 586 127 c 0,35,36
 674 127 674 127 778.5 155.5 c 128,-1,37
 883 184 883 184 997 240 c 1,38,-1
 961 57 l 1,10,11
837 1262 m 1,39,-1
 690 1262 l 1,40,-1
 526 1638 l 1,41,-1
 657 1638 l 1,42,-1
 776 1395 l 1,43,-1
 1001 1638 l 1,44,-1
 1157 1638 l 1,45,-1
 837 1262 l 1,39,-1
EndSplineSet
EndChar

StartChar: Gcircumflex
Encoding: 284 284 222
Width: 1233
GlyphClass: 3
Flags: W
LayerCount: 2
Fore
SplineSet
710 1901 m 1,0,-1
 923 1901 l 1,1,-1
 1081 1635 l 1,2,-1
 948 1635 l 1,3,-1
 809 1813 l 1,4,-1
 600 1635 l 1,5,-1
 448 1635 l 1,6,-1
 710 1901 l 1,0,-1
969 96 m 1,7,8
 882 34 882 34 779 2.5 c 128,-1,9
 676 -29 676 -29 559 -29 c 0,10,11
 327 -29 327 -29 202.5 105.5 c 128,-1,12
 78 240 78 240 78 489 c 0,13,14
 78 579 78 579 94.5 680.5 c 128,-1,15
 111 782 111 782 143 893 c 0,16,17
 178 1010 178 1010 225 1104.5 c 128,-1,18
 272 1199 272 1199 328 1266 c 0,19,20
 435 1396 435 1396 564.5 1458 c 128,-1,21
 694 1520 694 1520 860 1520 c 0,22,23
 940 1520 940 1520 1019.5 1499 c 128,-1,24
 1099 1478 1099 1478 1176 1438 c 1,25,-1
 1135 1231 l 1,26,27
 1070 1294 1070 1294 998.5 1325 c 128,-1,28
 927 1356 927 1356 846 1356 c 0,29,30
 748 1356 748 1356 662 1314.5 c 128,-1,31
 576 1273 576 1273 508 1192 c 0,32,33
 464 1140 464 1140 425 1062 c 128,-1,34
 386 984 386 984 356 887 c 0,35,36
 322 773 322 773 304.5 673 c 128,-1,37
 287 573 287 573 287 492 c 0,38,39
 287 321 287 321 366 228 c 128,-1,40
 445 135 445 135 590 135 c 0,41,42
 658 135 658 135 712 153.5 c 128,-1,43
 766 172 766 172 803 207 c 1,44,-1
 879 600 l 1,45,-1
 662 600 l 1,46,-1
 692 766 l 1,47,-1
 1102 766 l 1,48,-1
 969 96 l 1,7,8
EndSplineSet
EndChar

StartChar: gcircumflex
Encoding: 285 285 223
Width: 1233
GlyphClass: 3
Flags: W
LayerCount: 2
Fore
SplineSet
717 1638 m 1,0,-1
 864 1638 l 1,1,-1
 1028 1262 l 1,2,-1
 895 1262 l 1,3,-1
 778 1503 l 1,4,-1
 553 1262 l 1,5,-1
 397 1262 l 1,6,-1
 717 1638 l 1,0,-1
512 145 m 0,7,8
 591 145 591 145 657.5 190 c 128,-1,9
 724 235 724 235 770 319 c 0,10,11
 819 409 819 409 846.5 521 c 128,-1,12
 874 633 874 633 874 739 c 0,13,14
 874 858 874 858 818 924.5 c 128,-1,15
 762 991 762 991 662 991 c 0,16,17
 508 991 508 991 402.5 822.5 c 128,-1,18
 297 654 297 654 297 399 c 0,19,20
 297 280 297 280 354 212.5 c 128,-1,21
 411 145 411 145 512 145 c 0,7,8
942 72 m 2,22,23
 889 -199 889 -199 755.5 -319.5 c 128,-1,24
 622 -440 622 -440 375 -440 c 0,25,26
 293 -440 293 -440 213.5 -426 c 128,-1,27
 134 -412 134 -412 59 -385 c 1,28,-1
 96 -203 l 1,29,30
 169 -247 169 -247 247.5 -270 c 128,-1,31
 326 -293 326 -293 406 -293 c 0,32,33
 555 -293 555 -293 637 -213 c 128,-1,34
 719 -133 719 -133 756 53 c 2,35,-1
 780 170 l 1,36,37
 722 83 722 83 635 37.5 c 128,-1,38
 548 -8 548 -8 438 -8 c 0,39,40
 284 -8 284 -8 193 99.5 c 128,-1,41
 102 207 102 207 102 391 c 0,42,43
 102 530 102 530 142 667.5 c 128,-1,44
 182 805 182 805 254 911 c 0,45,46
 328 1023 328 1023 432 1085 c 128,-1,47
 536 1147 536 1147 647 1147 c 0,48,49
 748 1147 748 1147 824 1098.5 c 128,-1,50
 900 1050 900 1050 934 965 c 1,51,-1
 961 1116 l 1,52,-1
 1145 1116 l 1,53,-1
 942 72 l 2,22,23
EndSplineSet
EndChar

StartChar: Gbreve
Encoding: 286 286 224
Width: 1233
GlyphClass: 3
Flags: W
LayerCount: 2
Fore
SplineSet
969 96 m 1,0,1
 882 34 882 34 779 2.5 c 128,-1,2
 676 -29 676 -29 559 -29 c 0,3,4
 327 -29 327 -29 202.5 105.5 c 128,-1,5
 78 240 78 240 78 489 c 0,6,7
 78 579 78 579 94.5 680.5 c 128,-1,8
 111 782 111 782 143 893 c 0,9,10
 178 1010 178 1010 225 1104.5 c 128,-1,11
 272 1199 272 1199 328 1266 c 0,12,13
 435 1396 435 1396 564.5 1458 c 128,-1,14
 694 1520 694 1520 860 1520 c 0,15,16
 940 1520 940 1520 1019.5 1499 c 128,-1,17
 1099 1478 1099 1478 1176 1438 c 1,18,-1
 1135 1231 l 1,19,20
 1070 1294 1070 1294 998.5 1325 c 128,-1,21
 927 1356 927 1356 846 1356 c 0,22,23
 748 1356 748 1356 662 1314.5 c 128,-1,24
 576 1273 576 1273 508 1192 c 0,25,26
 464 1140 464 1140 425 1062 c 128,-1,27
 386 984 386 984 356 887 c 0,28,29
 322 773 322 773 304.5 673 c 128,-1,30
 287 573 287 573 287 492 c 0,31,32
 287 321 287 321 366 228 c 128,-1,33
 445 135 445 135 590 135 c 0,34,35
 658 135 658 135 712 153.5 c 128,-1,36
 766 172 766 172 803 207 c 1,37,-1
 879 600 l 1,38,-1
 662 600 l 1,39,-1
 692 766 l 1,40,-1
 1102 766 l 1,41,-1
 969 96 l 1,0,1
579 1901 m 1,42,-1
 698 1901 l 1,43,44
 699 1847 699 1847 743.5 1818.5 c 128,-1,45
 788 1790 788 1790 870 1790 c 0,46,47
 953 1790 953 1790 1007 1817.5 c 128,-1,48
 1061 1845 1061 1845 1087 1901 c 1,49,-1
 1206 1901 l 1,50,51
 1171 1782 1171 1782 1079.5 1720.5 c 128,-1,52
 988 1659 988 1659 844 1659 c 256,53,54
 700 1659 700 1659 633 1720 c 128,-1,55
 566 1781 566 1781 579 1901 c 1,42,-1
EndSplineSet
EndChar

StartChar: gbreve
Encoding: 287 287 225
Width: 1233
GlyphClass: 3
Flags: W
LayerCount: 2
Fore
SplineSet
512 145 m 0,0,1
 591 145 591 145 657.5 190 c 128,-1,2
 724 235 724 235 770 319 c 0,3,4
 819 409 819 409 846.5 521 c 128,-1,5
 874 633 874 633 874 739 c 0,6,7
 874 858 874 858 818 924.5 c 128,-1,8
 762 991 762 991 662 991 c 0,9,10
 508 991 508 991 402.5 822.5 c 128,-1,11
 297 654 297 654 297 399 c 0,12,13
 297 280 297 280 354 212.5 c 128,-1,14
 411 145 411 145 512 145 c 0,0,1
942 72 m 2,15,16
 889 -199 889 -199 755.5 -319.5 c 128,-1,17
 622 -440 622 -440 375 -440 c 0,18,19
 293 -440 293 -440 213.5 -426 c 128,-1,20
 134 -412 134 -412 59 -385 c 1,21,-1
 96 -203 l 1,22,23
 169 -247 169 -247 247.5 -270 c 128,-1,24
 326 -293 326 -293 406 -293 c 0,25,26
 555 -293 555 -293 637 -213 c 128,-1,27
 719 -133 719 -133 756 53 c 2,28,-1
 780 170 l 1,29,30
 722 83 722 83 635 37.5 c 128,-1,31
 548 -8 548 -8 438 -8 c 0,32,33
 284 -8 284 -8 193 99.5 c 128,-1,34
 102 207 102 207 102 391 c 0,35,36
 102 530 102 530 142 667.5 c 128,-1,37
 182 805 182 805 254 911 c 0,38,39
 328 1023 328 1023 432 1085 c 128,-1,40
 536 1147 536 1147 647 1147 c 0,41,42
 748 1147 748 1147 824 1098.5 c 128,-1,43
 900 1050 900 1050 934 965 c 1,44,-1
 961 1116 l 1,45,-1
 1145 1116 l 1,46,-1
 942 72 l 2,15,16
472 1608 m 1,47,-1
 592 1608 l 1,48,-1
 592 1591 l 2,49,50
 592 1526 592 1526 635.5 1492 c 128,-1,51
 679 1458 679 1458 764 1458 c 0,52,53
 844 1458 844 1458 897 1495 c 128,-1,54
 950 1532 950 1532 979 1608 c 1,55,-1
 1098 1608 l 1,56,57
 1066 1467 1066 1467 976.5 1394 c 128,-1,58
 887 1321 887 1321 748 1321 c 0,59,60
 614 1321 614 1321 541.5 1385 c 128,-1,61
 469 1449 469 1449 469 1567 c 0,62,63
 469 1584 469 1584 469.5 1592 c 128,-1,64
 470 1600 470 1600 472 1608 c 1,47,-1
EndSplineSet
EndChar

StartChar: Gdotaccent
Encoding: 288 288 226
Width: 1233
GlyphClass: 3
Flags: W
LayerCount: 2
Fore
SplineSet
969 96 m 1,0,1
 882 34 882 34 779 2.5 c 128,-1,2
 676 -29 676 -29 559 -29 c 0,3,4
 327 -29 327 -29 202.5 105.5 c 128,-1,5
 78 240 78 240 78 489 c 0,6,7
 78 579 78 579 94.5 680.5 c 128,-1,8
 111 782 111 782 143 893 c 0,9,10
 178 1010 178 1010 225 1104.5 c 128,-1,11
 272 1199 272 1199 328 1266 c 0,12,13
 435 1396 435 1396 564.5 1458 c 128,-1,14
 694 1520 694 1520 860 1520 c 0,15,16
 940 1520 940 1520 1019.5 1499 c 128,-1,17
 1099 1478 1099 1478 1176 1438 c 1,18,-1
 1135 1231 l 1,19,20
 1070 1294 1070 1294 998.5 1325 c 128,-1,21
 927 1356 927 1356 846 1356 c 0,22,23
 748 1356 748 1356 662 1314.5 c 128,-1,24
 576 1273 576 1273 508 1192 c 0,25,26
 464 1140 464 1140 425 1062 c 128,-1,27
 386 984 386 984 356 887 c 0,28,29
 322 773 322 773 304.5 673 c 128,-1,30
 287 573 287 573 287 492 c 0,31,32
 287 321 287 321 366 228 c 128,-1,33
 445 135 445 135 590 135 c 0,34,35
 658 135 658 135 712 153.5 c 128,-1,36
 766 172 766 172 803 207 c 1,37,-1
 879 600 l 1,38,-1
 662 600 l 1,39,-1
 692 766 l 1,40,-1
 1102 766 l 1,41,-1
 969 96 l 1,0,1
783 1872 m 1,42,-1
 988 1872 l 1,43,-1
 948 1667 l 1,44,-1
 743 1667 l 1,45,-1
 783 1872 l 1,42,-1
EndSplineSet
EndChar

StartChar: gdotaccent
Encoding: 289 289 227
Width: 1233
GlyphClass: 3
Flags: W
LayerCount: 2
Fore
SplineSet
512 145 m 0,0,1
 591 145 591 145 657.5 190 c 128,-1,2
 724 235 724 235 770 319 c 0,3,4
 819 409 819 409 846.5 521 c 128,-1,5
 874 633 874 633 874 739 c 0,6,7
 874 858 874 858 818 924.5 c 128,-1,8
 762 991 762 991 662 991 c 0,9,10
 508 991 508 991 402.5 822.5 c 128,-1,11
 297 654 297 654 297 399 c 0,12,13
 297 280 297 280 354 212.5 c 128,-1,14
 411 145 411 145 512 145 c 0,0,1
942 72 m 2,15,16
 889 -199 889 -199 755.5 -319.5 c 128,-1,17
 622 -440 622 -440 375 -440 c 0,18,19
 293 -440 293 -440 213.5 -426 c 128,-1,20
 134 -412 134 -412 59 -385 c 1,21,-1
 96 -203 l 1,22,23
 169 -247 169 -247 247.5 -270 c 128,-1,24
 326 -293 326 -293 406 -293 c 0,25,26
 555 -293 555 -293 637 -213 c 128,-1,27
 719 -133 719 -133 756 53 c 2,28,-1
 780 170 l 1,29,30
 722 83 722 83 635 37.5 c 128,-1,31
 548 -8 548 -8 438 -8 c 0,32,33
 284 -8 284 -8 193 99.5 c 128,-1,34
 102 207 102 207 102 391 c 0,35,36
 102 530 102 530 142 667.5 c 128,-1,37
 182 805 182 805 254 911 c 0,38,39
 328 1023 328 1023 432 1085 c 128,-1,40
 536 1147 536 1147 647 1147 c 0,41,42
 748 1147 748 1147 824 1098.5 c 128,-1,43
 900 1050 900 1050 934 965 c 1,44,-1
 961 1116 l 1,45,-1
 1145 1116 l 1,46,-1
 942 72 l 2,15,16
672 1552 m 1,47,-1
 877 1552 l 1,48,-1
 836 1348 l 1,49,-1
 631 1348 l 1,50,-1
 672 1552 l 1,47,-1
EndSplineSet
EndChar

StartChar: Gcommaaccent
Encoding: 290 290 228
Width: 1233
GlyphClass: 3
Flags: W
LayerCount: 2
Fore
SplineSet
463 -227 m 1,0,-1
 702 -227 l 1,1,-1
 448 -572 l 1,2,-1
 302 -572 l 1,3,-1
 463 -227 l 1,0,-1
969 96 m 1,4,5
 882 34 882 34 779 2.5 c 128,-1,6
 676 -29 676 -29 559 -29 c 0,7,8
 327 -29 327 -29 202.5 105.5 c 128,-1,9
 78 240 78 240 78 489 c 0,10,11
 78 579 78 579 94.5 680.5 c 128,-1,12
 111 782 111 782 143 893 c 0,13,14
 178 1010 178 1010 225 1104.5 c 128,-1,15
 272 1199 272 1199 328 1266 c 0,16,17
 435 1396 435 1396 564.5 1458 c 128,-1,18
 694 1520 694 1520 860 1520 c 0,19,20
 940 1520 940 1520 1019.5 1499 c 128,-1,21
 1099 1478 1099 1478 1176 1438 c 1,22,-1
 1135 1231 l 1,23,24
 1070 1294 1070 1294 998.5 1325 c 128,-1,25
 927 1356 927 1356 846 1356 c 0,26,27
 748 1356 748 1356 662 1314.5 c 128,-1,28
 576 1273 576 1273 508 1192 c 0,29,30
 464 1140 464 1140 425 1062 c 128,-1,31
 386 984 386 984 356 887 c 0,32,33
 322 773 322 773 304.5 673 c 128,-1,34
 287 573 287 573 287 492 c 0,35,36
 287 321 287 321 366 228 c 128,-1,37
 445 135 445 135 590 135 c 0,38,39
 658 135 658 135 712 153.5 c 128,-1,40
 766 172 766 172 803 207 c 1,41,-1
 879 600 l 1,42,-1
 662 600 l 1,43,-1
 692 766 l 1,44,-1
 1102 766 l 1,45,-1
 969 96 l 1,4,5
EndSplineSet
EndChar

StartChar: gcommaaccent
Encoding: 291 291 229
Width: 1233
GlyphClass: 3
Flags: W
LayerCount: 2
Fore
SplineSet
789 1269 m 1,0,-1
 550 1269 l 1,1,-1
 804 1614 l 1,2,-1
 950 1614 l 1,3,-1
 789 1269 l 1,0,-1
512 145 m 0,4,5
 591 145 591 145 657.5 190 c 128,-1,6
 724 235 724 235 770 319 c 0,7,8
 819 409 819 409 846.5 521 c 128,-1,9
 874 633 874 633 874 739 c 0,10,11
 874 858 874 858 818 924.5 c 128,-1,12
 762 991 762 991 662 991 c 0,13,14
 508 991 508 991 402.5 822.5 c 128,-1,15
 297 654 297 654 297 399 c 0,16,17
 297 280 297 280 354 212.5 c 128,-1,18
 411 145 411 145 512 145 c 0,4,5
942 72 m 2,19,20
 889 -199 889 -199 755.5 -319.5 c 128,-1,21
 622 -440 622 -440 375 -440 c 0,22,23
 293 -440 293 -440 213.5 -426 c 128,-1,24
 134 -412 134 -412 59 -385 c 1,25,-1
 96 -203 l 1,26,27
 169 -247 169 -247 247.5 -270 c 128,-1,28
 326 -293 326 -293 406 -293 c 0,29,30
 555 -293 555 -293 637 -213 c 128,-1,31
 719 -133 719 -133 756 53 c 2,32,-1
 780 170 l 1,33,34
 722 83 722 83 635 37.5 c 128,-1,35
 548 -8 548 -8 438 -8 c 0,36,37
 284 -8 284 -8 193 99.5 c 128,-1,38
 102 207 102 207 102 391 c 0,39,40
 102 530 102 530 142 667.5 c 128,-1,41
 182 805 182 805 254 911 c 0,42,43
 328 1023 328 1023 432 1085 c 128,-1,44
 536 1147 536 1147 647 1147 c 0,45,46
 748 1147 748 1147 824 1098.5 c 128,-1,47
 900 1050 900 1050 934 965 c 1,48,-1
 961 1116 l 1,49,-1
 1145 1116 l 1,50,-1
 942 72 l 2,19,20
EndSplineSet
EndChar

StartChar: Hcircumflex
Encoding: 292 292 230
Width: 1233
GlyphClass: 3
Flags: W
LayerCount: 2
Fore
SplineSet
728 1901 m 1,0,-1
 941 1901 l 1,1,-1
 1099 1635 l 1,2,-1
 966 1635 l 1,3,-1
 827 1813 l 1,4,-1
 618 1635 l 1,5,-1
 466 1635 l 1,6,-1
 728 1901 l 1,0,-1
283 1493 m 1,7,-1
 485 1493 l 1,8,-1
 367 881 l 1,9,-1
 920 881 l 1,10,-1
 1038 1493 l 1,11,-1
 1241 1493 l 1,12,-1
 950 0 l 1,13,-1
 748 0 l 1,14,-1
 887 711 l 1,15,-1
 332 711 l 1,16,-1
 195 0 l 1,17,-1
 -8 0 l 1,18,-1
 283 1493 l 1,7,-1
EndSplineSet
EndChar

StartChar: hcircumflex
Encoding: 293 293 231
Width: 1233
GlyphClass: 3
Flags: W
LayerCount: 2
Fore
SplineSet
442 1901 m 1,0,-1
 655 1901 l 1,1,-1
 813 1635 l 1,2,-1
 680 1635 l 1,3,-1
 541 1813 l 1,4,-1
 332 1635 l 1,5,-1
 180 1635 l 1,6,-1
 442 1901 l 1,0,-1
1075 694 m 2,7,-1
 940 0 l 1,8,-1
 756 0 l 1,9,-1
 891 695 l 2,10,11
 892 699 892 699 894 709 c 0,12,13
 909 780 909 780 909 819 c 0,14,15
 909 900 909 900 862.5 943.5 c 128,-1,16
 816 987 816 987 729 987 c 0,17,18
 602 987 602 987 513 894 c 128,-1,19
 424 801 424 801 391 633 c 2,20,-1
 268 0 l 1,21,-1
 84 0 l 1,22,-1
 387 1556 l 1,23,-1
 571 1556 l 1,24,-1
 455 952 l 1,25,26
 530 1049 530 1049 617.5 1098 c 128,-1,27
 705 1147 705 1147 803 1147 c 0,28,29
 942 1147 942 1147 1019 1074.5 c 128,-1,30
 1096 1002 1096 1002 1096 872 c 0,31,32
 1096 840 1096 840 1090.5 793 c 128,-1,33
 1085 746 1085 746 1075 694 c 2,7,-1
EndSplineSet
EndChar

StartChar: Hbar
Encoding: 294 294 232
Width: 1233
GlyphClass: 2
Flags: W
LayerCount: 2
Fore
SplineSet
282 1493 m 1,0,-1
 484 1493 l 1,1,-1
 441 1269 l 1,2,-1
 995 1269 l 1,3,-1
 1038 1493 l 1,4,-1
 1240 1493 l 1,5,-1
 1197 1269 l 1,6,-1
 1332 1269 l 1,7,-1
 1300 1105 l 1,8,-1
 1165 1105 l 1,9,-1
 950 0 l 1,10,-1
 748 0 l 1,11,-1
 886 711 l 1,12,-1
 332 711 l 1,13,-1
 194 0 l 1,14,-1
 -8 0 l 1,15,-1
 207 1105 l 1,16,-1
 73 1105 l 1,17,-1
 105 1269 l 1,18,-1
 239 1269 l 1,19,-1
 282 1493 l 1,0,-1
409 1105 m 1,20,-1
 365 881 l 1,21,-1
 919 881 l 1,22,-1
 963 1105 l 1,23,-1
 409 1105 l 1,20,-1
EndSplineSet
EndChar

StartChar: hbar
Encoding: 295 295 233
Width: 1233
GlyphClass: 2
Flags: W
LayerCount: 2
Fore
SplineSet
1034 694 m 2,0,-1
 900 0 l 1,1,-1
 715 0 l 1,2,-1
 850 695 l 2,3,4
 862 760 862 760 862 809 c 0,5,6
 862 875 862 875 840 916 c 0,7,8
 800 987 800 987 688 987 c 0,9,10
 562 987 562 987 472 896 c 0,11,12
 384 808 384 808 351 633 c 2,13,-1
 228 0 l 1,14,-1
 44 0 l 1,15,-1
 291 1270 l 1,16,-1
 166 1270 l 1,17,-1
 198 1434 l 1,18,-1
 323 1434 l 1,19,-1
 346 1556 l 1,20,-1
 530 1556 l 1,21,-1
 507 1434 l 1,22,-1
 860 1434 l 1,23,-1
 828 1270 l 1,24,-1
 475 1270 l 1,25,-1
 413 952 l 1,26,27
 480 1048 480 1048 574 1098 c 0,28,29
 668 1147 668 1147 782 1147 c 0,30,31
 954 1147 954 1147 1016 1034 c 0,32,33
 1053 968 1053 968 1053 863 c 0,34,35
 1053 788 1053 788 1034 694 c 2,0,-1
EndSplineSet
EndChar

StartChar: Itilde
Encoding: 296 296 234
Width: 1233
GlyphClass: 3
Flags: W
LayerCount: 2
Fore
SplineSet
796 1710 m 2,0,-1
 762 1735 l 1,1,-1
 760 1736 l 1,2,3
 718 1768 718 1768 680 1768 c 0,4,5
 646 1768 646 1768 619 1742.5 c 128,-1,6
 592 1717 592 1717 573 1667 c 1,7,-1
 448 1667 l 1,8,9
 483 1776 483 1776 545 1831 c 128,-1,10
 607 1886 607 1886 692 1886 c 0,11,12
 726 1886 726 1886 757 1875 c 128,-1,13
 788 1864 788 1864 823 1839 c 2,14,-1
 858 1813 l 2,15,16
 876 1799 876 1799 894 1792.5 c 128,-1,17
 912 1786 912 1786 931 1786 c 0,18,19
 971 1786 971 1786 999 1813 c 128,-1,20
 1027 1840 1027 1840 1038 1886 c 1,21,-1
 1163 1886 l 1,22,23
 1131 1777 1131 1777 1068 1722 c 128,-1,24
 1005 1667 1005 1667 913 1667 c 0,25,26
 882 1667 882 1667 854.5 1677.5 c 128,-1,27
 827 1688 827 1688 796 1710 c 2,0,-1
346 1493 m 1,28,-1
 1176 1493 l 1,29,-1
 1143 1323 l 1,30,-1
 829 1323 l 1,31,-1
 606 170 l 1,32,-1
 920 170 l 1,33,-1
 887 0 l 1,34,-1
 57 0 l 1,35,-1
 90 170 l 1,36,-1
 403 170 l 1,37,-1
 627 1323 l 1,38,-1
 313 1323 l 1,39,-1
 346 1493 l 1,28,-1
EndSplineSet
EndChar

StartChar: itilde
Encoding: 297 297 235
Width: 1233
GlyphClass: 3
Flags: W
LayerCount: 2
Fore
SplineSet
713 1376 m 2,0,-1
 666 1425 l 2,1,2
 647 1444 647 1444 629.5 1453 c 128,-1,3
 612 1462 612 1462 595 1462 c 0,4,5
 553 1462 553 1462 529.5 1424.5 c 128,-1,6
 506 1387 506 1387 498 1309 c 1,7,-1
 373 1309 l 1,8,9
 390 1445 390 1445 447 1518 c 128,-1,10
 504 1591 504 1591 593 1591 c 0,11,12
 636 1591 636 1591 670 1575.5 c 128,-1,13
 704 1560 704 1560 742 1522 c 2,14,-1
 789 1475 l 2,15,16
 810 1453 810 1453 826 1444.5 c 128,-1,17
 842 1436 842 1436 859 1436 c 0,18,19
 900 1436 900 1436 924.5 1475 c 128,-1,20
 949 1514 949 1514 957 1591 c 1,21,-1
 1082 1591 l 1,22,23
 1065 1454 1065 1454 1008.5 1380.5 c 128,-1,24
 952 1307 952 1307 863 1307 c 0,25,26
 819 1307 819 1307 786 1321.5 c 128,-1,27
 753 1336 753 1336 713 1376 c 2,0,-1
358 1120 m 1,28,-1
 829 1120 l 1,29,-1
 639 143 l 1,30,-1
 1004 143 l 1,31,-1
 975 0 l 1,32,-1
 61 0 l 1,33,-1
 90 143 l 1,34,-1
 455 143 l 1,35,-1
 616 977 l 1,36,-1
 330 977 l 1,37,-1
 358 1120 l 1,28,-1
EndSplineSet
EndChar

StartChar: Imacron
Encoding: 298 298 236
Width: 1233
GlyphClass: 3
Flags: W
LayerCount: 2
Fore
SplineSet
346 1493 m 1,0,-1
 1176 1493 l 1,1,-1
 1143 1323 l 1,2,-1
 829 1323 l 1,3,-1
 606 170 l 1,4,-1
 920 170 l 1,5,-1
 887 0 l 1,6,-1
 57 0 l 1,7,-1
 90 170 l 1,8,-1
 403 170 l 1,9,-1
 627 1323 l 1,10,-1
 313 1323 l 1,11,-1
 346 1493 l 1,0,-1
531 1840 m 1,12,-1
 1129 1840 l 1,13,-1
 1100 1692 l 1,14,-1
 502 1692 l 1,15,-1
 531 1840 l 1,12,-1
EndSplineSet
EndChar

